<svg xmlns="http://www.w3.org/2000/svg" viewBox="0 0 256 256">
  <rect width="256" height="256" rx="52" fill="#080808"/>
  <g transform="translate(128 128) scale(0.5443)"><path d="M57.3 -18.1L59.2 -15.2L61.0 -12.2L62.6 -9.0L64.0 -5.7L65.3 -2.2L66.4 1.3L67.3 5.1L68.0 8.9L68.4 12.8L68.7 16.8L68.6 20.8L68.4 24.9L67.9 29.1L67.1 33.3L66.1 37.5L64.9 41.6L64.9 41.5L66.3 37.1L67.5 32.6L68.3 28.1L68.9 23.6L69.1 19.2L69.1 14.8L68.8 10.4L68.3 6.2L67.5 2.0L66.4 -2.0L65.1 -5.9L63.6 -9.7L61.8 -13.3L59.9 -16.7L57.8 -20.0L55.5 -23.1ZM58.6 -13.0L61.7 -10.3L64.7 -7.3L67.4 -3.9L70.1 -0.3L72.5 3.6L74.7 7.8L76.6 12.3L78.3 17.0L79.6 22.0L80.7 27.1L81.4 32.5L81.7 38.0L81.7 43.6L81.3 49.4L80.5 55.3L79.3 61.2L79.3 61.2L80.7 54.9L81.7 48.8L82.2 42.7L82.3 36.7L82.0 30.9L81.3 25.2L80.2 19.7L78.8 14.4L77.0 9.3L74.9 4.5L72.6 -0.0L69.9 -4.3L67.1 -8.2L64.0 -11.9L60.7 -15.2L57.3 -18.1ZM59.5 -7.9L64.6 -5.1L69.5 -1.9L74.2 1.9L78.7 6.3L83.0 11.2L86.9 16.6L90.4 22.4L93.6 28.8L96.3 35.5L98.5 42.7L100.2 50.3L101.4 58.1L101.9 66.3L101.9 74.7L101.2 83.3L99.8 92.1L99.9 92.0L101.5 83.0L102.3 74.1L102.5 65.4L102.1 56.9L101.0 48.7L99.3 40.8L97.1 33.3L94.3 26.2L91.1 19.5L87.4 13.3L83.4 7.5L78.9 2.3L74.2 -2.4L69.2 -6.5L64.0 -10.1L58.6 -13.1ZM60.0 -2.6L66.8 0.4L73.3 4.3L79.7 8.9L85.7 14.3L91.3 20.3L96.5 27.1L101.3 34.5L105.4 42.6L109.0 51.2L111.8 60.4L114.0 70.0L115.4 80.1L116.0 90.6L115.8 101.4L114.7 112.5L112.7 123.7L112.8 123.7L115.0 112.2L116.3 100.8L116.7 89.8L116.2 79.0L114.9 68.5L112.8 58.5L110.0 49.0L106.4 40.0L102.2 31.6L97.4 23.8L92.1 16.7L86.2 10.3L80.0 4.6L73.5 -0.4L66.6 -4.5L59.5 -7.9ZM60.0 2.6L67.3 6.3L74.2 10.8L80.9 16.2L87.2 22.4L93.0 29.3L98.3 37.0L103.0 45.4L107.0 54.4L110.3 64.0L112.8 74.2L114.5 84.8L115.3 95.9L115.2 107.4L114.2 119.1L112.2 131.0L109.1 143.1L109.2 143.1L112.5 130.8L114.7 118.6L116.0 106.6L116.2 94.8L115.5 83.4L113.9 72.5L111.4 61.9L108.2 52.0L104.1 42.6L99.4 33.8L94.0 25.8L88.1 18.5L81.7 12.0L74.8 6.2L67.5 1.3L60.0 -2.7ZM59.5 7.8L65.7 12.0L71.5 17.0L77.0 22.6L82.0 29.0L86.6 35.9L90.5 43.5L93.9 51.7L96.6 60.3L98.7 69.5L99.9 79.1L100.4 89.0L100.0 99.2L98.8 109.7L96.7 120.3L93.7 131.1L89.8 141.8L89.8 141.8L94.0 130.8L97.3 119.9L99.6 109.0L101.0 98.2L101.5 87.7L101.2 77.4L100.0 67.5L98.0 58.0L95.3 49.0L91.9 40.5L87.9 32.5L83.3 25.2L78.1 18.4L72.5 12.4L66.4 7.1L60.0 2.5ZM58.6 13.0L62.5 17.3L66.0 22.0L69.2 27.3L72.0 32.9L74.4 39.0L76.2 45.4L77.6 52.2L78.4 59.3L78.7 66.6L78.3 74.2L77.4 81.9L75.8 89.7L73.5 97.7L70.6 105.6L67.0 113.5L62.7 121.4L62.8 121.3L67.3 113.3L71.2 105.2L74.4 97.0L76.8 88.8L78.6 80.7L79.7 72.7L80.2 64.8L80.0 57.1L79.2 49.7L77.9 42.5L76.0 35.7L73.6 29.2L70.7 23.2L67.4 17.6L63.6 12.4L59.6 7.8ZM57.3 18.0L58.6 21.9L59.7 26.1L60.5 30.4L61.0 34.9L61.1 39.5L61.0 44.3L60.4 49.1L59.5 54.1L58.2 59.1L56.6 64.1L54.5 69.2L52.1 74.2L49.2 79.1L46.0 84.0L42.3 88.7L38.3 93.3L38.4 93.3L42.7 88.5L46.6 83.6L50.1 78.5L53.2 73.4L55.9 68.1L58.1 62.8L59.9 57.4L61.3 52.1L62.3 46.8L62.9 41.5L63.1 36.4L62.9 31.3L62.3 26.4L61.4 21.7L60.2 17.2L58.7 12.9ZM55.5 23.0L55.1 26.4L54.6 29.9L53.8 33.3L52.8 36.8L51.5 40.3L50.1 43.8L48.4 47.2L46.5 50.6L44.3 53.9L41.9 57.1L39.3 60.2L36.5 63.2L33.4 66.1L30.1 68.9L26.7 71.4L23.0 73.8L23.1 73.8L27.1 71.3L30.8 68.6L34.4 65.6L37.7 62.5L40.7 59.3L43.6 55.9L46.1 52.3L48.4 48.7L50.5 45.0L52.2 41.2L53.7 37.4L55.0 33.5L55.9 29.6L56.7 25.7L57.1 21.8L57.3 18.0ZM53.3 27.7L52.5 31.0L51.4 34.3L50.2 37.5L48.7 40.8L47.1 44.0L45.2 47.1L43.1 50.2L40.8 53.1L38.4 56.0L35.7 58.8L32.8 61.4L29.7 63.9L26.5 66.3L23.1 68.5L19.5 70.5L15.8 72.3L15.9 72.3L19.9 70.4L23.8 68.2L27.5 65.9L31.0 63.3L34.3 60.6L37.4 57.7L40.3 54.6L42.9 51.4L45.4 48.1L47.5 44.7L49.5 41.2L51.2 37.6L52.6 34.0L53.8 30.3L54.8 26.6L55.5 22.9ZM50.7 32.2L49.6 35.4L48.2 38.6L46.7 41.8L45.0 44.9L43.0 47.9L40.9 50.9L38.6 53.7L36.0 56.5L33.3 59.1L30.4 61.7L27.3 64.0L24.1 66.3L20.6 68.3L17.0 70.2L13.3 71.9L9.4 73.4L9.5 73.4L13.7 71.8L17.8 70.0L21.6 68.0L25.4 65.8L28.9 63.3L32.2 60.7L35.4 57.9L38.3 55.0L41.0 51.9L43.5 48.7L45.7 45.4L47.7 41.9L49.5 38.5L51.0 34.9L52.3 31.3L53.3 27.7ZM47.7 36.5L46.3 39.6L44.7 42.7L42.9 45.7L40.9 48.6L38.7 51.5L36.3 54.2L33.8 56.9L31.0 59.4L28.0 61.8L24.9 64.1L21.6 66.2L18.2 68.1L14.6 69.9L10.8 71.4L7.0 72.8L3.0 73.9L3.1 73.9L7.4 72.8L11.6 71.3L15.6 69.6L19.5 67.7L23.3 65.6L26.8 63.3L30.2 60.8L33.4 58.1L36.3 55.3L39.1 52.3L41.6 49.2L43.9 45.9L45.9 42.6L47.8 39.2L49.4 35.7L50.7 32.2ZM44.3 40.6L42.6 43.5L40.8 46.4L38.7 49.2L36.5 52.0L34.1 54.6L31.5 57.2L28.7 59.6L25.7 61.9L22.5 64.0L19.2 66.0L15.8 67.8L12.2 69.4L8.4 70.9L4.6 72.1L0.6 73.1L-3.5 73.9L-3.4 73.9L1.0 73.1L5.3 72.1L9.5 70.7L13.6 69.2L17.5 67.4L21.2 65.4L24.8 63.2L28.2 60.8L31.4 58.2L34.4 55.5L37.1 52.6L39.7 49.6L42.0 46.5L44.2 43.2L46.1 39.9L47.7 36.5ZM40.6 44.3L38.7 47.1L36.6 49.8L34.3 52.4L31.8 55.0L29.2 57.4L26.4 59.7L23.4 61.9L20.2 63.9L16.9 65.8L13.4 67.4L9.8 68.9L6.1 70.2L2.2 71.3L-1.7 72.2L-5.8 72.9L-9.9 73.3L-9.8 73.3L-5.4 72.9L-1.0 72.2L3.3 71.3L7.5 70.1L11.5 68.7L15.4 67.0L19.2 65.1L22.8 63.0L26.2 60.7L29.4 58.3L32.4 55.7L35.2 52.9L37.8 49.9L40.2 46.9L42.4 43.8L44.3 40.5ZM36.6 47.6L34.4 50.3L32.1 52.8L29.6 55.2L26.9 57.5L24.1 59.7L21.1 61.8L17.9 63.7L14.6 65.4L11.1 67.0L7.5 68.3L3.8 69.5L-0.1 70.5L-4.0 71.3L-8.0 71.8L-12.1 72.1L-16.3 72.2L-16.2 72.2L-11.7 72.2L-7.3 71.9L-2.9 71.3L1.3 70.5L5.5 69.4L9.5 68.1L13.4 66.5L17.2 64.8L20.8 62.8L24.2 60.6L27.4 58.3L30.5 55.7L33.3 53.1L36.0 50.2L38.4 47.3L40.6 44.2ZM32.3 50.6L29.9 53.1L27.4 55.4L24.7 57.6L21.8 59.7L18.8 61.6L15.6 63.4L12.3 65.0L8.8 66.4L5.2 67.7L1.5 68.7L-2.3 69.6L-6.2 70.2L-10.2 70.6L-14.2 70.8L-18.3 70.8L-22.5 70.5L-22.4 70.5L-17.9 70.9L-13.5 71.0L-9.1 70.8L-4.8 70.3L-0.6 69.6L3.6 68.7L7.6 67.5L11.5 66.0L15.2 64.4L18.8 62.5L22.3 60.4L25.5 58.2L28.6 55.8L31.5 53.2L34.2 50.5L36.6 47.6ZM27.8 53.3L25.2 55.5L22.5 57.6L19.6 59.5L16.5 61.3L13.3 63.0L10.0 64.5L6.5 65.8L3.0 66.9L-0.7 67.9L-4.5 68.6L-8.4 69.1L-12.3 69.4L-16.3 69.5L-20.4 69.3L-24.4 68.9L-28.6 68.3L-28.5 68.3L-24.0 69.1L-19.6 69.5L-15.3 69.7L-10.9 69.7L-6.6 69.3L-2.4 68.7L1.7 67.9L5.7 66.8L9.6 65.4L13.3 63.9L16.9 62.1L20.3 60.2L23.6 58.0L26.7 55.7L29.6 53.2L32.3 50.6ZM23.0 55.5L20.3 57.5L17.4 59.3L14.3 61.0L11.1 62.6L7.8 63.9L4.3 65.1L0.8 66.1L-2.9 67.0L-6.6 67.6L-10.5 68.0L-14.4 68.1L-18.3 68.1L-22.3 67.8L-26.3 67.3L-30.4 66.5L-34.4 65.5L-34.3 65.6L-30.0 66.7L-25.6 67.6L-21.3 68.1L-17.0 68.4L-12.7 68.5L-8.4 68.2L-4.3 67.8L-0.2 67.0L3.8 66.0L7.7 64.8L11.4 63.4L15.0 61.7L18.5 59.9L21.8 57.8L24.9 55.6L27.8 53.2ZM18.1 57.3L15.2 59.2L12.2 61.0L9.0 62.6L5.7 64.0L2.2 65.3L-1.3 66.4L-5.1 67.3L-8.9 68.0L-12.8 68.4L-16.8 68.7L-20.8 68.6L-24.9 68.4L-29.1 67.9L-33.3 67.1L-37.5 66.1L-41.6 64.9L-41.5 64.9L-37.1 66.3L-32.6 67.5L-28.1 68.3L-23.6 68.9L-19.2 69.1L-14.8 69.1L-10.4 68.8L-6.2 68.3L-2.0 67.5L2.0 66.4L5.9 65.1L9.7 63.6L13.3 61.8L16.7 59.9L20.0 57.8L23.1 55.5ZM13.0 58.6L10.3 61.7L7.3 64.7L3.9 67.4L0.3 70.1L-3.6 72.5L-7.8 74.7L-12.3 76.6L-17.0 78.3L-22.0 79.6L-27.1 80.7L-32.5 81.4L-38.0 81.7L-43.6 81.7L-49.4 81.3L-55.3 80.5L-61.2 79.3L-61.2 79.3L-54.9 80.7L-48.8 81.7L-42.7 82.2L-36.7 82.3L-30.9 82.0L-25.2 81.3L-19.7 80.2L-14.4 78.8L-9.3 77.0L-4.5 74.9L0.0 72.6L4.3 69.9L8.2 67.1L11.9 64.0L15.2 60.7L18.1 57.3ZM7.9 59.5L5.1 64.6L1.9 69.5L-1.9 74.2L-6.3 78.7L-11.2 83.0L-16.6 86.9L-22.4 90.4L-28.8 93.6L-35.5 96.3L-42.7 98.5L-50.3 100.2L-58.1 101.4L-66.3 101.9L-74.7 101.9L-83.3 101.2L-92.1 99.8L-92.0 99.9L-83.0 101.5L-74.1 102.3L-65.4 102.5L-56.9 102.1L-48.7 101.0L-40.8 99.3L-33.3 97.1L-26.2 94.3L-19.5 91.1L-13.3 87.4L-7.5 83.4L-2.3 78.9L2.4 74.2L6.5 69.2L10.1 64.0L13.1 58.6ZM2.6 60.0L-0.4 66.8L-4.3 73.3L-8.9 79.7L-14.3 85.7L-20.3 91.3L-27.1 96.5L-34.5 101.3L-42.6 105.4L-51.2 109.0L-60.4 111.8L-70.0 114.0L-80.1 115.4L-90.6 116.0L-101.4 115.8L-112.5 114.7L-123.7 112.7L-123.7 112.8L-112.2 115.0L-100.8 116.3L-89.8 116.7L-79.0 116.2L-68.5 114.9L-58.5 112.8L-49.0 110.0L-40.0 106.4L-31.6 102.2L-23.8 97.4L-16.7 92.1L-10.3 86.2L-4.6 80.0L0.4 73.5L4.5 66.6L7.9 59.5ZM-2.6 60.0L-6.3 67.3L-10.8 74.2L-16.2 80.9L-22.4 87.2L-29.3 93.0L-37.0 98.3L-45.4 103.0L-54.4 107.0L-64.0 110.3L-74.2 112.8L-84.8 114.5L-95.9 115.3L-107.4 115.2L-119.1 114.2L-131.0 112.2L-143.1 109.1L-143.1 109.2L-130.8 112.5L-118.6 114.7L-106.6 116.0L-94.8 116.2L-83.4 115.5L-72.5 113.9L-61.9 111.4L-52.0 108.2L-42.6 104.1L-33.8 99.4L-25.8 94.0L-18.5 88.1L-12.0 81.7L-6.2 74.8L-1.3 67.5L2.7 60.0ZM-7.8 59.5L-12.0 65.7L-17.0 71.5L-22.6 77.0L-29.0 82.0L-35.9 86.6L-43.5 90.5L-51.7 93.9L-60.3 96.6L-69.5 98.7L-79.1 99.9L-89.0 100.4L-99.2 100.0L-109.7 98.8L-120.3 96.7L-131.1 93.7L-141.8 89.8L-141.8 89.8L-130.8 94.0L-119.9 97.3L-109.0 99.6L-98.2 101.0L-87.7 101.5L-77.4 101.2L-67.5 100.0L-58.0 98.0L-49.0 95.3L-40.5 91.9L-32.5 87.9L-25.2 83.3L-18.4 78.1L-12.4 72.5L-7.1 66.4L-2.5 60.0ZM-13.0 58.6L-17.3 62.5L-22.0 66.0L-27.3 69.2L-32.9 72.0L-39.0 74.4L-45.4 76.2L-52.2 77.6L-59.3 78.4L-66.6 78.7L-74.2 78.3L-81.9 77.4L-89.7 75.8L-97.7 73.5L-105.6 70.6L-113.5 67.0L-121.4 62.7L-121.3 62.8L-113.3 67.3L-105.2 71.2L-97.0 74.4L-88.8 76.8L-80.7 78.6L-72.7 79.7L-64.8 80.2L-57.1 80.0L-49.7 79.2L-42.5 77.9L-35.7 76.0L-29.2 73.6L-23.2 70.7L-17.6 67.4L-12.4 63.6L-7.8 59.6ZM-18.0 57.3L-21.9 58.6L-26.1 59.7L-30.4 60.5L-34.9 61.0L-39.5 61.1L-44.3 61.0L-49.1 60.4L-54.1 59.5L-59.1 58.2L-64.1 56.6L-69.2 54.5L-74.2 52.1L-79.1 49.2L-84.0 46.0L-88.7 42.3L-93.3 38.3L-93.3 38.4L-88.5 42.7L-83.6 46.6L-78.5 50.1L-73.4 53.2L-68.1 55.9L-62.8 58.1L-57.4 59.9L-52.1 61.3L-46.8 62.3L-41.5 62.9L-36.4 63.1L-31.3 62.9L-26.4 62.3L-21.7 61.4L-17.2 60.2L-12.9 58.7ZM-23.0 55.5L-26.4 55.1L-29.9 54.6L-33.3 53.8L-36.8 52.8L-40.3 51.5L-43.8 50.1L-47.2 48.4L-50.6 46.5L-53.9 44.3L-57.1 41.9L-60.2 39.3L-63.2 36.5L-66.1 33.4L-68.9 30.1L-71.4 26.7L-73.8 23.0L-73.8 23.1L-71.3 27.1L-68.6 30.8L-65.6 34.4L-62.5 37.7L-59.3 40.7L-55.9 43.6L-52.3 46.1L-48.7 48.4L-45.0 50.5L-41.2 52.2L-37.4 53.7L-33.5 55.0L-29.6 55.9L-25.7 56.7L-21.8 57.1L-18.0 57.3ZM-27.7 53.3L-31.0 52.5L-34.3 51.4L-37.5 50.2L-40.8 48.7L-44.0 47.1L-47.1 45.2L-50.2 43.1L-53.1 40.8L-56.0 38.4L-58.8 35.7L-61.4 32.8L-63.9 29.7L-66.3 26.5L-68.5 23.1L-70.5 19.5L-72.3 15.8L-72.3 15.9L-70.4 19.9L-68.2 23.8L-65.9 27.5L-63.3 31.0L-60.6 34.3L-57.7 37.4L-54.6 40.3L-51.4 42.9L-48.1 45.4L-44.7 47.5L-41.2 49.5L-37.6 51.2L-34.0 52.6L-30.3 53.8L-26.6 54.8L-22.9 55.5ZM-32.2 50.7L-35.4 49.6L-38.6 48.2L-41.8 46.7L-44.9 45.0L-47.9 43.0L-50.9 40.9L-53.7 38.6L-56.5 36.0L-59.1 33.3L-61.7 30.4L-64.0 27.3L-66.3 24.1L-68.3 20.6L-70.2 17.0L-71.9 13.3L-73.4 9.4L-73.4 9.5L-71.8 13.7L-70.0 17.8L-68.0 21.6L-65.8 25.4L-63.3 28.9L-60.7 32.2L-57.9 35.4L-55.0 38.3L-51.9 41.0L-48.7 43.5L-45.4 45.7L-41.9 47.7L-38.5 49.5L-34.9 51.0L-31.3 52.3L-27.7 53.3ZM-36.5 47.7L-39.6 46.3L-42.7 44.7L-45.7 42.9L-48.6 40.9L-51.5 38.7L-54.2 36.3L-56.9 33.8L-59.4 31.0L-61.8 28.0L-64.1 24.9L-66.2 21.6L-68.1 18.2L-69.9 14.6L-71.4 10.8L-72.8 7.0L-73.9 3.0L-73.9 3.1L-72.8 7.4L-71.3 11.6L-69.6 15.6L-67.7 19.5L-65.6 23.3L-63.3 26.8L-60.8 30.2L-58.1 33.4L-55.3 36.3L-52.3 39.1L-49.2 41.6L-45.9 43.9L-42.6 45.9L-39.2 47.8L-35.7 49.4L-32.2 50.7ZM-40.6 44.3L-43.5 42.6L-46.4 40.8L-49.2 38.7L-52.0 36.5L-54.6 34.1L-57.2 31.5L-59.6 28.7L-61.9 25.7L-64.0 22.5L-66.0 19.2L-67.8 15.8L-69.4 12.2L-70.9 8.4L-72.1 4.6L-73.1 0.6L-73.9 -3.5L-73.9 -3.4L-73.1 1.0L-72.1 5.3L-70.7 9.5L-69.2 13.6L-67.4 17.5L-65.4 21.2L-63.2 24.8L-60.8 28.2L-58.2 31.4L-55.5 34.4L-52.6 37.1L-49.6 39.7L-46.5 42.0L-43.2 44.2L-39.9 46.1L-36.5 47.7ZM-44.3 40.6L-47.1 38.7L-49.8 36.6L-52.4 34.3L-55.0 31.8L-57.4 29.2L-59.7 26.4L-61.9 23.4L-63.9 20.2L-65.8 16.9L-67.4 13.4L-68.9 9.8L-70.2 6.1L-71.3 2.2L-72.2 -1.7L-72.9 -5.8L-73.3 -9.9L-73.3 -9.8L-72.9 -5.4L-72.2 -1.0L-71.3 3.3L-70.1 7.5L-68.7 11.5L-67.0 15.4L-65.1 19.2L-63.0 22.8L-60.7 26.2L-58.3 29.4L-55.7 32.4L-52.9 35.2L-49.9 37.8L-46.9 40.2L-43.8 42.4L-40.5 44.3ZM-47.6 36.6L-50.3 34.4L-52.8 32.1L-55.2 29.6L-57.5 26.9L-59.7 24.1L-61.8 21.1L-63.7 17.9L-65.4 14.6L-67.0 11.1L-68.3 7.5L-69.5 3.8L-70.5 -0.1L-71.3 -4.0L-71.8 -8.0L-72.1 -12.1L-72.2 -16.3L-72.2 -16.2L-72.2 -11.7L-71.9 -7.3L-71.3 -2.9L-70.5 1.3L-69.4 5.5L-68.1 9.5L-66.5 13.4L-64.8 17.2L-62.8 20.8L-60.6 24.2L-58.3 27.4L-55.7 30.5L-53.1 33.3L-50.2 36.0L-47.3 38.4L-44.2 40.6ZM-50.6 32.3L-53.1 29.9L-55.4 27.4L-57.6 24.7L-59.7 21.8L-61.6 18.8L-63.4 15.6L-65.0 12.3L-66.4 8.8L-67.7 5.2L-68.7 1.5L-69.6 -2.3L-70.2 -6.2L-70.6 -10.2L-70.8 -14.2L-70.8 -18.3L-70.5 -22.5L-70.5 -22.4L-70.9 -17.9L-71.0 -13.5L-70.8 -9.1L-70.3 -4.8L-69.6 -0.6L-68.7 3.6L-67.5 7.6L-66.0 11.5L-64.4 15.2L-62.5 18.8L-60.4 22.3L-58.2 25.5L-55.8 28.6L-53.2 31.5L-50.5 34.2L-47.6 36.6ZM-53.3 27.8L-55.5 25.2L-57.6 22.5L-59.5 19.6L-61.3 16.5L-63.0 13.3L-64.5 10.0L-65.8 6.5L-66.9 3.0L-67.9 -0.7L-68.6 -4.5L-69.1 -8.4L-69.4 -12.3L-69.5 -16.3L-69.3 -20.4L-68.9 -24.4L-68.3 -28.6L-68.3 -28.5L-69.1 -24.0L-69.5 -19.6L-69.7 -15.3L-69.7 -10.9L-69.3 -6.6L-68.7 -2.4L-67.9 1.7L-66.8 5.7L-65.4 9.6L-63.9 13.3L-62.1 16.9L-60.2 20.3L-58.0 23.6L-55.7 26.7L-53.2 29.6L-50.6 32.3ZM-55.5 23.0L-57.5 20.3L-59.3 17.4L-61.0 14.3L-62.6 11.1L-63.9 7.8L-65.1 4.3L-66.1 0.8L-67.0 -2.9L-67.6 -6.6L-68.0 -10.5L-68.1 -14.4L-68.1 -18.3L-67.8 -22.3L-67.3 -26.3L-66.5 -30.4L-65.5 -34.4L-65.6 -34.3L-66.7 -30.0L-67.6 -25.6L-68.1 -21.3L-68.4 -17.0L-68.5 -12.7L-68.2 -8.4L-67.8 -4.3L-67.0 -0.2L-66.0 3.8L-64.8 7.7L-63.4 11.4L-61.7 15.0L-59.9 18.5L-57.8 21.8L-55.6 24.9L-53.2 27.8ZM-57.3 18.1L-59.2 15.2L-61.0 12.2L-62.6 9.0L-64.0 5.7L-65.3 2.2L-66.4 -1.3L-67.3 -5.1L-68.0 -8.9L-68.4 -12.8L-68.7 -16.8L-68.6 -20.8L-68.4 -24.9L-67.9 -29.1L-67.1 -33.3L-66.1 -37.5L-64.9 -41.6L-64.9 -41.5L-66.3 -37.1L-67.5 -32.6L-68.3 -28.1L-68.9 -23.6L-69.1 -19.2L-69.1 -14.8L-68.8 -10.4L-68.3 -6.2L-67.5 -2.0L-66.4 2.0L-65.1 5.9L-63.6 9.7L-61.8 13.3L-59.9 16.7L-57.8 20.0L-55.5 23.1ZM-58.6 13.0L-61.7 10.3L-64.7 7.3L-67.4 3.9L-70.1 0.3L-72.5 -3.6L-74.7 -7.8L-76.6 -12.3L-78.3 -17.0L-79.6 -22.0L-80.7 -27.1L-81.4 -32.5L-81.7 -38.0L-81.7 -43.6L-81.3 -49.4L-80.5 -55.3L-79.3 -61.2L-79.3 -61.2L-80.7 -54.9L-81.7 -48.8L-82.2 -42.7L-82.3 -36.7L-82.0 -30.9L-81.3 -25.2L-80.2 -19.7L-78.8 -14.4L-77.0 -9.3L-74.9 -4.5L-72.6 0.0L-69.9 4.3L-67.1 8.2L-64.0 11.9L-60.7 15.2L-57.3 18.1ZM-59.5 7.9L-64.6 5.1L-69.5 1.9L-74.2 -1.9L-78.7 -6.3L-83.0 -11.2L-86.9 -16.6L-90.4 -22.4L-93.6 -28.8L-96.3 -35.5L-98.5 -42.7L-100.2 -50.3L-101.4 -58.1L-101.9 -66.3L-101.9 -74.7L-101.2 -83.3L-99.8 -92.1L-99.9 -92.0L-101.5 -83.0L-102.3 -74.1L-102.5 -65.4L-102.1 -56.9L-101.0 -48.7L-99.3 -40.8L-97.1 -33.3L-94.3 -26.2L-91.1 -19.5L-87.4 -13.3L-83.4 -7.5L-78.9 -2.3L-74.2 2.4L-69.2 6.5L-64.0 10.1L-58.6 13.1ZM-60.0 2.6L-66.8 -0.4L-73.3 -4.3L-79.7 -8.9L-85.7 -14.3L-91.3 -20.3L-96.5 -27.1L-101.3 -34.5L-105.4 -42.6L-109.0 -51.2L-111.8 -60.4L-114.0 -70.0L-115.4 -80.1L-116.0 -90.6L-115.8 -101.4L-114.7 -112.5L-112.7 -123.7L-112.8 -123.7L-115.0 -112.2L-116.3 -100.8L-116.7 -89.8L-116.2 -79.0L-114.9 -68.5L-112.8 -58.5L-110.0 -49.0L-106.4 -40.0L-102.2 -31.6L-97.4 -23.8L-92.1 -16.7L-86.2 -10.3L-80.0 -4.6L-73.5 0.4L-66.6 4.5L-59.5 7.9ZM-60.0 -2.6L-67.3 -6.3L-74.2 -10.8L-80.9 -16.2L-87.2 -22.4L-93.0 -29.3L-98.3 -37.0L-103.0 -45.4L-107.0 -54.4L-110.3 -64.0L-112.8 -74.2L-114.5 -84.8L-115.3 -95.9L-115.2 -107.4L-114.2 -119.1L-112.2 -131.0L-109.1 -143.1L-109.2 -143.1L-112.5 -130.8L-114.7 -118.6L-116.0 -106.6L-116.2 -94.8L-115.5 -83.4L-113.9 -72.5L-111.4 -61.9L-108.2 -52.0L-104.1 -42.6L-99.4 -33.8L-94.0 -25.8L-88.1 -18.5L-81.7 -12.0L-74.8 -6.2L-67.5 -1.3L-60.0 2.7ZM-59.5 -7.8L-65.7 -12.0L-71.5 -17.0L-77.0 -22.6L-82.0 -29.0L-86.6 -35.9L-90.5 -43.5L-93.9 -51.7L-96.6 -60.3L-98.7 -69.5L-99.9 -79.1L-100.4 -89.0L-100.0 -99.2L-98.8 -109.7L-96.7 -120.3L-93.7 -131.1L-89.8 -141.8L-89.8 -141.8L-94.0 -130.8L-97.3 -119.9L-99.6 -109.0L-101.0 -98.2L-101.5 -87.7L-101.2 -77.4L-100.0 -67.5L-98.0 -58.0L-95.3 -49.0L-91.9 -40.5L-87.9 -32.5L-83.3 -25.2L-78.1 -18.4L-72.5 -12.4L-66.4 -7.1L-60.0 -2.5ZM-58.6 -13.0L-62.5 -17.3L-66.0 -22.0L-69.2 -27.3L-72.0 -32.9L-74.4 -39.0L-76.2 -45.4L-77.6 -52.2L-78.4 -59.3L-78.7 -66.6L-78.3 -74.2L-77.4 -81.9L-75.8 -89.7L-73.5 -97.7L-70.6 -105.6L-67.0 -113.5L-62.7 -121.4L-62.8 -121.3L-67.3 -113.3L-71.2 -105.2L-74.4 -97.0L-76.8 -88.8L-78.6 -80.7L-79.7 -72.7L-80.2 -64.8L-80.0 -57.1L-79.2 -49.7L-77.9 -42.5L-76.0 -35.7L-73.6 -29.2L-70.7 -23.2L-67.4 -17.6L-63.6 -12.4L-59.6 -7.8ZM-57.3 -18.0L-58.6 -21.9L-59.7 -26.1L-60.5 -30.4L-61.0 -34.9L-61.1 -39.5L-61.0 -44.3L-60.4 -49.1L-59.5 -54.1L-58.2 -59.1L-56.6 -64.1L-54.5 -69.2L-52.1 -74.2L-49.2 -79.1L-46.0 -84.0L-42.3 -88.7L-38.3 -93.3L-38.4 -93.3L-42.7 -88.5L-46.6 -83.6L-50.1 -78.5L-53.2 -73.4L-55.9 -68.1L-58.1 -62.8L-59.9 -57.4L-61.3 -52.1L-62.3 -46.8L-62.9 -41.5L-63.1 -36.4L-62.9 -31.3L-62.3 -26.4L-61.4 -21.7L-60.2 -17.2L-58.7 -12.9ZM-55.5 -23.0L-55.1 -26.4L-54.6 -29.9L-53.8 -33.3L-52.8 -36.8L-51.5 -40.3L-50.1 -43.8L-48.4 -47.2L-46.5 -50.6L-44.3 -53.9L-41.9 -57.1L-39.3 -60.2L-36.5 -63.2L-33.4 -66.1L-30.1 -68.9L-26.7 -71.4L-23.0 -73.8L-23.1 -73.8L-27.1 -71.3L-30.8 -68.6L-34.4 -65.6L-37.7 -62.5L-40.7 -59.3L-43.6 -55.9L-46.1 -52.3L-48.4 -48.7L-50.5 -45.0L-52.2 -41.2L-53.7 -37.4L-55.0 -33.5L-55.9 -29.6L-56.7 -25.7L-57.1 -21.8L-57.3 -18.0ZM-53.3 -27.7L-52.5 -31.0L-51.4 -34.3L-50.2 -37.5L-48.7 -40.8L-47.1 -44.0L-45.2 -47.1L-43.1 -50.2L-40.8 -53.1L-38.4 -56.0L-35.7 -58.8L-32.8 -61.4L-29.7 -63.9L-26.5 -66.3L-23.1 -68.5L-19.5 -70.5L-15.8 -72.3L-15.9 -72.3L-19.9 -70.4L-23.8 -68.2L-27.5 -65.9L-31.0 -63.3L-34.3 -60.6L-37.4 -57.7L-40.3 -54.6L-42.9 -51.4L-45.4 -48.1L-47.5 -44.7L-49.5 -41.2L-51.2 -37.6L-52.6 -34.0L-53.8 -30.3L-54.8 -26.6L-55.5 -22.9ZM-50.7 -32.2L-49.6 -35.4L-48.2 -38.6L-46.7 -41.8L-45.0 -44.9L-43.0 -47.9L-40.9 -50.9L-38.6 -53.7L-36.0 -56.5L-33.3 -59.1L-30.4 -61.7L-27.3 -64.0L-24.1 -66.3L-20.6 -68.3L-17.0 -70.2L-13.3 -71.9L-9.4 -73.4L-9.5 -73.4L-13.7 -71.8L-17.8 -70.0L-21.6 -68.0L-25.4 -65.8L-28.9 -63.3L-32.2 -60.7L-35.4 -57.9L-38.3 -55.0L-41.0 -51.9L-43.5 -48.7L-45.7 -45.4L-47.7 -41.9L-49.5 -38.5L-51.0 -34.9L-52.3 -31.3L-53.3 -27.7ZM-47.7 -36.5L-46.3 -39.6L-44.7 -42.7L-42.9 -45.7L-40.9 -48.6L-38.7 -51.5L-36.3 -54.2L-33.8 -56.9L-31.0 -59.4L-28.0 -61.8L-24.9 -64.1L-21.6 -66.2L-18.2 -68.1L-14.6 -69.9L-10.8 -71.4L-7.0 -72.8L-3.0 -73.9L-3.1 -73.9L-7.4 -72.8L-11.6 -71.3L-15.6 -69.6L-19.5 -67.7L-23.3 -65.6L-26.8 -63.3L-30.2 -60.8L-33.4 -58.1L-36.3 -55.3L-39.1 -52.3L-41.6 -49.2L-43.9 -45.9L-45.9 -42.6L-47.8 -39.2L-49.4 -35.7L-50.7 -32.2ZM-44.3 -40.6L-42.6 -43.5L-40.8 -46.4L-38.7 -49.2L-36.5 -52.0L-34.1 -54.6L-31.5 -57.2L-28.7 -59.6L-25.7 -61.9L-22.5 -64.0L-19.2 -66.0L-15.8 -67.8L-12.2 -69.4L-8.4 -70.9L-4.6 -72.1L-0.6 -73.1L3.5 -73.9L3.4 -73.9L-1.0 -73.1L-5.3 -72.1L-9.5 -70.7L-13.6 -69.2L-17.5 -67.4L-21.2 -65.4L-24.8 -63.2L-28.2 -60.8L-31.4 -58.2L-34.4 -55.5L-37.1 -52.6L-39.7 -49.6L-42.0 -46.5L-44.2 -43.2L-46.1 -39.9L-47.7 -36.5ZM-40.6 -44.3L-38.7 -47.1L-36.6 -49.8L-34.3 -52.4L-31.8 -55.0L-29.2 -57.4L-26.4 -59.7L-23.4 -61.9L-20.2 -63.9L-16.9 -65.8L-13.4 -67.4L-9.8 -68.9L-6.1 -70.2L-2.2 -71.3L1.7 -72.2L5.8 -72.9L9.9 -73.3L9.8 -73.3L5.4 -72.9L1.0 -72.2L-3.3 -71.3L-7.5 -70.1L-11.5 -68.7L-15.4 -67.0L-19.2 -65.1L-22.8 -63.0L-26.2 -60.7L-29.4 -58.3L-32.4 -55.7L-35.2 -52.9L-37.8 -49.9L-40.2 -46.9L-42.4 -43.8L-44.3 -40.5ZM-36.6 -47.6L-34.4 -50.3L-32.1 -52.8L-29.6 -55.2L-26.9 -57.5L-24.1 -59.7L-21.1 -61.8L-17.9 -63.7L-14.6 -65.4L-11.1 -67.0L-7.5 -68.3L-3.8 -69.5L0.1 -70.5L4.0 -71.3L8.0 -71.8L12.1 -72.1L16.3 -72.2L16.2 -72.2L11.7 -72.2L7.3 -71.9L2.9 -71.3L-1.3 -70.5L-5.5 -69.4L-9.5 -68.1L-13.4 -66.5L-17.2 -64.8L-20.8 -62.8L-24.2 -60.6L-27.4 -58.3L-30.5 -55.7L-33.3 -53.1L-36.0 -50.2L-38.4 -47.3L-40.6 -44.2ZM-32.3 -50.6L-29.9 -53.1L-27.4 -55.4L-24.7 -57.6L-21.8 -59.7L-18.8 -61.6L-15.6 -63.4L-12.3 -65.0L-8.8 -66.4L-5.2 -67.7L-1.5 -68.7L2.3 -69.6L6.2 -70.2L10.2 -70.6L14.2 -70.8L18.3 -70.8L22.5 -70.5L22.4 -70.5L17.9 -70.9L13.5 -71.0L9.1 -70.8L4.8 -70.3L0.6 -69.6L-3.6 -68.7L-7.6 -67.5L-11.5 -66.0L-15.2 -64.4L-18.8 -62.5L-22.3 -60.4L-25.5 -58.2L-28.6 -55.8L-31.5 -53.2L-34.2 -50.5L-36.6 -47.6ZM-27.8 -53.3L-25.2 -55.5L-22.5 -57.6L-19.6 -59.5L-16.5 -61.3L-13.3 -63.0L-10.0 -64.5L-6.5 -65.8L-3.0 -66.9L0.7 -67.9L4.5 -68.6L8.4 -69.1L12.3 -69.4L16.3 -69.5L20.4 -69.3L24.4 -68.9L28.6 -68.3L28.5 -68.3L24.0 -69.1L19.6 -69.5L15.3 -69.7L10.9 -69.7L6.6 -69.3L2.4 -68.7L-1.7 -67.9L-5.7 -66.8L-9.6 -65.4L-13.3 -63.9L-16.9 -62.1L-20.3 -60.2L-23.6 -58.0L-26.7 -55.7L-29.6 -53.2L-32.3 -50.6ZM-23.0 -55.5L-20.3 -57.5L-17.4 -59.3L-14.3 -61.0L-11.1 -62.6L-7.8 -63.9L-4.3 -65.1L-0.8 -66.1L2.9 -67.0L6.6 -67.6L10.5 -68.0L14.4 -68.1L18.3 -68.1L22.3 -67.8L26.3 -67.3L30.4 -66.5L34.4 -65.5L34.3 -65.6L30.0 -66.7L25.6 -67.6L21.3 -68.1L17.0 -68.4L12.7 -68.5L8.4 -68.2L4.3 -67.8L0.2 -67.0L-3.8 -66.0L-7.7 -64.8L-11.4 -63.4L-15.0 -61.7L-18.5 -59.9L-21.8 -57.8L-24.9 -55.6L-27.8 -53.2ZM-18.1 -57.3L-15.2 -59.2L-12.2 -61.0L-9.0 -62.6L-5.7 -64.0L-2.2 -65.3L1.3 -66.4L5.1 -67.3L8.9 -68.0L12.8 -68.4L16.8 -68.7L20.8 -68.6L24.9 -68.4L29.1 -67.9L33.3 -67.1L37.5 -66.1L41.6 -64.9L41.5 -64.9L37.1 -66.3L32.6 -67.5L28.1 -68.3L23.6 -68.9L19.2 -69.1L14.8 -69.1L10.4 -68.8L6.2 -68.3L2.0 -67.5L-2.0 -66.4L-5.9 -65.1L-9.7 -63.6L-13.3 -61.8L-16.7 -59.9L-20.0 -57.8L-23.1 -55.5ZM-13.0 -58.6L-10.3 -61.7L-7.3 -64.7L-3.9 -67.4L-0.3 -70.1L3.6 -72.5L7.8 -74.7L12.3 -76.6L17.0 -78.3L22.0 -79.6L27.1 -80.7L32.5 -81.4L38.0 -81.7L43.6 -81.7L49.4 -81.3L55.3 -80.5L61.2 -79.3L61.2 -79.3L54.9 -80.7L48.8 -81.7L42.7 -82.2L36.7 -82.3L30.9 -82.0L25.2 -81.3L19.7 -80.2L14.4 -78.8L9.3 -77.0L4.5 -74.9L-0.0 -72.6L-4.3 -69.9L-8.2 -67.1L-11.9 -64.0L-15.2 -60.7L-18.1 -57.3ZM-7.9 -59.5L-5.1 -64.6L-1.9 -69.5L1.9 -74.2L6.3 -78.7L11.2 -83.0L16.6 -86.9L22.4 -90.4L28.8 -93.6L35.5 -96.3L42.7 -98.5L50.3 -100.2L58.1 -101.4L66.3 -101.9L74.7 -101.9L83.3 -101.2L92.1 -99.8L92.0 -99.9L83.0 -101.5L74.1 -102.3L65.4 -102.5L56.9 -102.1L48.7 -101.0L40.8 -99.3L33.3 -97.1L26.2 -94.3L19.5 -91.1L13.3 -87.4L7.5 -83.4L2.3 -78.9L-2.4 -74.2L-6.5 -69.2L-10.1 -64.0L-13.1 -58.6ZM-2.6 -60.0L0.4 -66.8L4.3 -73.3L8.9 -79.7L14.3 -85.7L20.3 -91.3L27.1 -96.5L34.5 -101.3L42.6 -105.4L51.2 -109.0L60.4 -111.8L70.0 -114.0L80.1 -115.4L90.6 -116.0L101.4 -115.8L112.5 -114.7L123.7 -112.7L123.7 -112.8L112.2 -115.0L100.8 -116.3L89.8 -116.7L79.0 -116.2L68.5 -114.9L58.5 -112.8L49.0 -110.0L40.0 -106.4L31.6 -102.2L23.8 -97.4L16.7 -92.1L10.3 -86.2L4.6 -80.0L-0.4 -73.5L-4.5 -66.6L-7.9 -59.5ZM2.6 -60.0L6.3 -67.3L10.8 -74.2L16.2 -80.9L22.4 -87.2L29.3 -93.0L37.0 -98.3L45.4 -103.0L54.4 -107.0L64.0 -110.3L74.2 -112.8L84.8 -114.5L95.9 -115.3L107.4 -115.2L119.1 -114.2L131.0 -112.2L143.1 -109.1L143.1 -109.2L130.8 -112.5L118.6 -114.7L106.6 -116.0L94.8 -116.2L83.4 -115.5L72.5 -113.9L61.9 -111.4L52.0 -108.2L42.6 -104.1L33.8 -99.4L25.8 -94.0L18.5 -88.1L12.0 -81.7L6.2 -74.8L1.3 -67.5L-2.7 -60.0ZM7.8 -59.5L12.0 -65.7L17.0 -71.5L22.6 -77.0L29.0 -82.0L35.9 -86.6L43.5 -90.5L51.7 -93.9L60.3 -96.6L69.5 -98.7L79.1 -99.9L89.0 -100.4L99.2 -100.0L109.7 -98.8L120.3 -96.7L131.1 -93.7L141.8 -89.8L141.8 -89.8L130.8 -94.0L119.9 -97.3L109.0 -99.6L98.2 -101.0L87.7 -101.5L77.4 -101.2L67.5 -100.0L58.0 -98.0L49.0 -95.3L40.5 -91.9L32.5 -87.9L25.2 -83.3L18.4 -78.1L12.4 -72.5L7.1 -66.4L2.5 -60.0ZM13.0 -58.6L17.3 -62.5L22.0 -66.0L27.3 -69.2L32.9 -72.0L39.0 -74.4L45.4 -76.2L52.2 -77.6L59.3 -78.4L66.6 -78.7L74.2 -78.3L81.9 -77.4L89.7 -75.8L97.7 -73.5L105.6 -70.6L113.5 -67.0L121.4 -62.7L121.3 -62.8L113.3 -67.3L105.2 -71.2L97.0 -74.4L88.8 -76.8L80.7 -78.6L72.7 -79.7L64.8 -80.2L57.1 -80.0L49.7 -79.2L42.5 -77.9L35.7 -76.0L29.2 -73.6L23.2 -70.7L17.6 -67.4L12.4 -63.6L7.8 -59.6ZM18.0 -57.3L21.9 -58.6L26.1 -59.7L30.4 -60.5L34.9 -61.0L39.5 -61.1L44.3 -61.0L49.1 -60.4L54.1 -59.5L59.1 -58.2L64.1 -56.6L69.2 -54.5L74.2 -52.1L79.1 -49.2L84.0 -46.0L88.7 -42.3L93.3 -38.3L93.3 -38.4L88.5 -42.7L83.6 -46.6L78.5 -50.1L73.4 -53.2L68.1 -55.9L62.8 -58.1L57.4 -59.9L52.1 -61.3L46.8 -62.3L41.5 -62.9L36.4 -63.1L31.3 -62.9L26.4 -62.3L21.7 -61.4L17.2 -60.2L12.9 -58.7ZM23.0 -55.5L26.4 -55.1L29.9 -54.6L33.3 -53.8L36.8 -52.8L40.3 -51.5L43.8 -50.1L47.2 -48.4L50.6 -46.5L53.9 -44.3L57.1 -41.9L60.2 -39.3L63.2 -36.5L66.1 -33.4L68.9 -30.1L71.4 -26.7L73.8 -23.0L73.8 -23.1L71.3 -27.1L68.6 -30.8L65.6 -34.4L62.5 -37.7L59.3 -40.7L55.9 -43.6L52.3 -46.1L48.7 -48.4L45.0 -50.5L41.2 -52.2L37.4 -53.7L33.5 -55.0L29.6 -55.9L25.7 -56.7L21.8 -57.1L18.0 -57.3ZM27.7 -53.3L31.0 -52.5L34.3 -51.4L37.5 -50.2L40.8 -48.7L44.0 -47.1L47.1 -45.2L50.2 -43.1L53.1 -40.8L56.0 -38.4L58.8 -35.7L61.4 -32.8L63.9 -29.7L66.3 -26.5L68.5 -23.1L70.5 -19.5L72.3 -15.8L72.3 -15.9L70.4 -19.9L68.2 -23.8L65.9 -27.5L63.3 -31.0L60.6 -34.3L57.7 -37.4L54.6 -40.3L51.4 -42.9L48.1 -45.4L44.7 -47.5L41.2 -49.5L37.6 -51.2L34.0 -52.6L30.3 -53.8L26.6 -54.8L22.9 -55.5ZM32.2 -50.7L35.4 -49.6L38.6 -48.2L41.8 -46.7L44.9 -45.0L47.9 -43.0L50.9 -40.9L53.7 -38.6L56.5 -36.0L59.1 -33.3L61.7 -30.4L64.0 -27.3L66.3 -24.1L68.3 -20.6L70.2 -17.0L71.9 -13.3L73.4 -9.4L73.4 -9.5L71.8 -13.7L70.0 -17.8L68.0 -21.6L65.8 -25.4L63.3 -28.9L60.7 -32.2L57.9 -35.4L55.0 -38.3L51.9 -41.0L48.7 -43.5L45.4 -45.7L41.9 -47.7L38.5 -49.5L34.9 -51.0L31.3 -52.3L27.7 -53.3ZM36.5 -47.7L39.6 -46.3L42.7 -44.7L45.7 -42.9L48.6 -40.9L51.5 -38.7L54.2 -36.3L56.9 -33.8L59.4 -31.0L61.8 -28.0L64.1 -24.9L66.2 -21.6L68.1 -18.2L69.9 -14.6L71.4 -10.8L72.8 -7.0L73.9 -3.0L73.9 -3.1L72.8 -7.4L71.3 -11.6L69.6 -15.6L67.7 -19.5L65.6 -23.3L63.3 -26.8L60.8 -30.2L58.1 -33.4L55.3 -36.3L52.3 -39.1L49.2 -41.6L45.9 -43.9L42.6 -45.9L39.2 -47.8L35.7 -49.4L32.2 -50.7ZM40.6 -44.3L43.5 -42.6L46.4 -40.8L49.2 -38.7L52.0 -36.5L54.6 -34.1L57.2 -31.5L59.6 -28.7L61.9 -25.7L64.0 -22.5L66.0 -19.2L67.8 -15.8L69.4 -12.2L70.9 -8.4L72.1 -4.6L73.1 -0.6L73.9 3.5L73.9 3.4L73.1 -1.0L72.1 -5.3L70.7 -9.5L69.2 -13.6L67.4 -17.5L65.4 -21.2L63.2 -24.8L60.8 -28.2L58.2 -31.4L55.5 -34.4L52.6 -37.1L49.6 -39.7L46.5 -42.0L43.2 -44.2L39.9 -46.1L36.5 -47.7ZM44.3 -40.6L47.1 -38.7L49.8 -36.6L52.4 -34.3L55.0 -31.8L57.4 -29.2L59.7 -26.4L61.9 -23.4L63.9 -20.2L65.8 -16.9L67.4 -13.4L68.9 -9.8L70.2 -6.1L71.3 -2.2L72.2 1.7L72.9 5.8L73.3 9.9L73.3 9.8L72.9 5.4L72.2 1.0L71.3 -3.3L70.1 -7.5L68.7 -11.5L67.0 -15.4L65.1 -19.2L63.0 -22.8L60.7 -26.2L58.3 -29.4L55.7 -32.4L52.9 -35.2L49.9 -37.8L46.9 -40.2L43.8 -42.4L40.5 -44.3ZM47.6 -36.6L50.3 -34.4L52.8 -32.1L55.2 -29.6L57.5 -26.9L59.7 -24.1L61.8 -21.1L63.7 -17.9L65.4 -14.6L67.0 -11.1L68.3 -7.5L69.5 -3.8L70.5 0.1L71.3 4.0L71.8 8.0L72.1 12.1L72.2 16.3L72.2 16.2L72.2 11.7L71.9 7.3L71.3 2.9L70.5 -1.3L69.4 -5.5L68.1 -9.5L66.5 -13.4L64.8 -17.2L62.8 -20.8L60.6 -24.2L58.3 -27.4L55.7 -30.5L53.1 -33.3L50.2 -36.0L47.3 -38.4L44.2 -40.6ZM50.6 -32.3L53.1 -29.9L55.4 -27.4L57.6 -24.7L59.7 -21.8L61.6 -18.8L63.4 -15.6L65.0 -12.3L66.4 -8.8L67.7 -5.2L68.7 -1.5L69.6 2.3L70.2 6.2L70.6 10.2L70.8 14.2L70.8 18.3L70.5 22.5L70.5 22.4L70.9 17.9L71.0 13.5L70.8 9.1L70.3 4.8L69.6 0.6L68.7 -3.6L67.5 -7.6L66.0 -11.5L64.4 -15.2L62.5 -18.8L60.4 -22.3L58.2 -25.5L55.8 -28.6L53.2 -31.5L50.5 -34.2L47.6 -36.6ZM53.3 -27.8L55.5 -25.2L57.6 -22.5L59.5 -19.6L61.3 -16.5L63.0 -13.3L64.5 -10.0L65.8 -6.5L66.9 -3.0L67.9 0.7L68.6 4.5L69.1 8.4L69.4 12.3L69.5 16.3L69.3 20.4L68.9 24.4L68.3 28.6L68.3 28.5L69.1 24.0L69.5 19.6L69.7 15.3L69.7 10.9L69.3 6.6L68.7 2.4L67.9 -1.7L66.8 -5.7L65.4 -9.6L63.9 -13.3L62.1 -16.9L60.2 -20.3L58.0 -23.6L55.7 -26.7L53.2 -29.6L50.6 -32.3ZM55.5 -23.0L57.5 -20.3L59.3 -17.4L61.0 -14.3L62.6 -11.1L63.9 -7.8L65.1 -4.3L66.1 -0.8L67.0 2.9L67.6 6.6L68.0 10.5L68.1 14.4L68.1 18.3L67.8 22.3L67.3 26.3L66.5 30.4L65.5 34.4L65.6 34.3L66.7 30.0L67.6 25.6L68.1 21.3L68.4 17.0L68.5 12.7L68.2 8.4L67.8 4.3L67.0 0.2L66.0 -3.8L64.8 -7.7L63.4 -11.4L61.7 -15.0L59.9 -18.5L57.8 -21.8L55.6 -24.9L53.2 -27.8Z" fill="#F4F4F4"/></g>
</svg>