<svg xmlns="http://www.w3.org/2000/svg" viewBox="-163.9 -163.9 327.8 327.8" role="img" aria-label="Adaptive Intelligence"><path d="M64.3 -22.3L65.9 -19.2L67.5 -16.1L68.8 -12.8L70.0 -9.4L71.1 -5.9L72.0 -2.4L72.7 1.3L73.2 4.9L73.5 8.7L73.6 12.5L73.5 16.3L73.3 20.2L72.8 24.0L72.1 27.9L71.2 31.8L70.1 35.6L68.8 39.4L67.3 43.2L67.4 43.1L68.9 39.3L70.3 35.3L71.4 31.4L72.3 27.4L73.0 23.4L73.5 19.4L73.7 15.4L73.8 11.5L73.6 7.6L73.2 3.7L72.7 -0.1L71.9 -3.9L70.9 -7.5L69.8 -11.1L68.5 -14.6L67.0 -18.0L65.3 -21.2L63.5 -24.4ZM65.0 -20.1L66.8 -17.1L68.5 -13.9L70.1 -10.6L71.5 -7.2L72.7 -3.7L73.8 -0.0L74.6 3.7L75.3 7.6L75.8 11.5L76.1 15.5L76.1 19.5L76.0 23.6L75.6 27.7L75.0 31.9L74.1 36.0L73.1 40.2L71.8 44.3L70.2 48.4L70.3 48.3L71.9 44.1L73.2 39.9L74.3 35.6L75.2 31.4L75.8 27.1L76.2 22.9L76.3 18.6L76.3 14.5L76.0 10.4L75.4 6.3L74.7 2.4L73.8 -1.5L72.6 -5.3L71.3 -8.9L69.8 -12.5L68.1 -15.9L66.3 -19.1L64.3 -22.2ZM65.6 -18.0L67.8 -15.0L69.9 -11.8L71.9 -8.5L73.7 -5.0L75.3 -1.3L76.7 2.5L77.9 6.5L78.9 10.6L79.7 14.8L80.3 19.1L80.7 23.5L80.7 28.0L80.6 32.6L80.1 37.2L79.5 41.9L78.5 46.6L77.3 51.3L75.7 56.0L75.8 55.9L77.4 51.1L78.7 46.3L79.7 41.5L80.4 36.7L80.8 32.0L81.0 27.3L80.9 22.6L80.5 18.1L79.9 13.6L79.1 9.3L78.0 5.1L76.7 1.0L75.2 -2.9L73.5 -6.7L71.6 -10.3L69.6 -13.8L67.3 -17.0L65.0 -20.1ZM66.1 -15.8L68.9 -12.9L71.6 -9.7L74.1 -6.3L76.5 -2.7L78.6 1.2L80.6 5.3L82.4 9.5L83.9 14.0L85.1 18.7L86.1 23.5L86.9 28.4L87.3 33.5L87.5 38.8L87.3 44.1L86.8 49.5L86.0 55.0L84.8 60.5L83.4 66.0L83.4 65.9L85.0 60.3L86.2 54.7L87.0 49.1L87.6 43.6L87.7 38.1L87.6 32.8L87.2 27.6L86.4 22.5L85.4 17.5L84.1 12.8L82.5 8.2L80.7 3.8L78.6 -0.4L76.4 -4.4L73.9 -8.2L71.3 -11.7L68.5 -14.9L65.6 -17.9ZM66.6 -13.6L70.1 -10.7L73.5 -7.5L76.7 -4.0L79.8 -0.2L82.6 3.9L85.2 8.4L87.6 13.0L89.7 18.0L91.6 23.2L93.1 28.7L94.3 34.3L95.1 40.2L95.6 46.2L95.8 52.4L95.5 58.7L94.8 65.1L93.8 71.6L92.3 78.1L92.3 78.1L93.9 71.4L95.0 64.8L95.7 58.3L96.0 51.9L95.9 45.6L95.5 39.4L94.6 33.5L93.4 27.7L91.8 22.1L90.0 16.8L87.8 11.7L85.4 6.9L82.7 2.3L79.7 -1.9L76.6 -5.9L73.3 -9.5L69.8 -12.8L66.2 -15.8ZM67.0 -11.4L71.3 -8.5L75.5 -5.2L79.5 -1.6L83.3 2.5L86.9 7.0L90.2 11.8L93.3 17.0L96.0 22.5L98.4 28.4L100.5 34.6L102.2 41.0L103.5 47.7L104.3 54.7L104.7 61.8L104.7 69.1L104.1 76.6L103.1 84.2L101.5 91.9L101.6 91.8L103.2 84.0L104.3 76.3L104.9 68.8L105.0 61.3L104.6 54.1L103.8 47.0L102.5 40.2L100.8 33.6L98.8 27.3L96.3 21.3L93.5 15.6L90.4 10.3L87.0 5.4L83.3 0.8L79.4 -3.4L75.3 -7.2L71.1 -10.6L66.6 -13.6ZM67.4 -9.2L72.5 -6.3L77.4 -2.8L82.2 1.1L86.7 5.5L91.1 10.3L95.1 15.6L98.8 21.4L102.2 27.5L105.2 34.1L107.7 41.0L109.9 48.3L111.5 55.9L112.7 63.8L113.3 72.0L113.3 80.4L112.8 88.9L111.8 97.6L110.1 106.5L110.1 106.4L111.9 97.5L113.0 88.7L113.6 80.0L113.6 71.5L113.0 63.2L111.9 55.2L110.2 47.5L108.1 40.1L105.5 33.0L102.5 26.3L99.1 20.0L95.3 14.1L91.2 8.7L86.8 3.7L82.2 -0.8L77.3 -4.8L72.3 -8.3L67.1 -11.4ZM67.7 -6.9L73.5 -3.9L79.1 -0.3L84.6 3.9L89.9 8.6L94.8 13.9L99.5 19.7L103.8 26.0L107.6 32.8L111.1 40.1L114.1 47.8L116.5 55.9L118.4 64.4L119.8 73.2L120.5 82.3L120.6 91.6L120.1 101.2L118.9 111.0L117.0 120.9L117.0 120.8L119.0 110.8L120.3 101.0L120.9 91.3L120.8 81.8L120.1 72.6L118.8 63.7L116.9 55.1L114.5 46.8L111.5 39.0L108.0 31.6L104.1 24.7L99.7 18.2L95.0 12.3L90.0 6.9L84.7 2.0L79.1 -2.3L73.3 -6.0L67.4 -9.1ZM67.8 -4.7L74.3 -1.5L80.5 2.3L86.6 6.8L92.3 11.9L97.8 17.6L102.9 23.9L107.6 30.8L111.8 38.2L115.6 46.1L118.8 54.4L121.5 63.3L123.6 72.5L125.0 82.1L125.7 92.0L125.8 102.2L125.1 112.7L123.6 123.3L121.4 134.1L121.5 134.0L123.8 123.2L125.3 112.4L126.0 101.9L126.0 91.6L125.3 81.5L124.0 71.8L121.9 62.5L119.3 53.5L116.0 45.0L112.2 37.0L108.0 29.4L103.2 22.4L98.1 16.0L92.5 10.2L86.7 5.0L80.5 0.4L74.2 -3.6L67.7 -6.9ZM68.0 -2.5L74.8 0.9L81.4 5.0L87.8 9.8L93.9 15.3L99.7 21.4L105.0 28.1L110.0 35.4L114.4 43.3L118.3 51.7L121.6 60.6L124.3 70.0L126.3 79.8L127.7 90.0L128.3 100.6L128.1 111.4L127.2 122.5L125.5 133.7L122.9 145.1L123.0 145.0L125.6 133.6L127.4 122.2L128.4 111.1L128.6 100.1L128.1 89.5L126.7 79.2L124.7 69.2L122.0 59.7L118.7 50.6L114.8 42.1L110.4 34.1L105.4 26.6L100.0 19.8L94.2 13.6L88.0 8.0L81.5 3.1L74.8 -1.1L67.8 -4.7ZM68.0 -0.2L75.0 3.4L81.8 7.8L88.3 12.8L94.5 18.6L100.3 25.0L105.7 32.0L110.6 39.7L115.0 47.9L118.8 56.7L122.0 65.9L124.5 75.7L126.4 85.9L127.5 96.4L127.9 107.3L127.5 118.4L126.2 129.8L124.1 141.4L121.2 153.0L121.3 153.0L124.3 141.2L126.5 129.6L127.8 118.1L128.3 106.8L127.9 95.9L126.8 85.2L125.0 74.9L122.5 65.0L119.3 55.6L115.4 46.7L111.0 38.4L106.1 30.6L100.7 23.4L94.8 16.9L88.5 11.0L81.9 5.8L75.1 1.3L68.0 -2.4ZM68.0 2.0L74.9 5.9L81.5 10.5L87.9 15.8L93.9 21.7L99.5 28.3L104.7 35.5L109.3 43.3L113.5 51.7L117.0 60.6L119.9 70.0L122.2 79.9L123.7 90.1L124.5 100.7L124.5 111.7L123.7 122.8L122.1 134.2L119.6 145.7L116.3 157.3L116.4 157.2L119.8 145.5L122.3 133.9L124.0 122.5L124.9 111.2L124.9 100.2L124.2 89.5L122.7 79.1L120.4 69.1L117.5 59.6L114.0 50.6L109.8 42.1L105.1 34.1L99.9 26.7L94.3 20.0L88.2 13.9L81.7 8.5L75.0 3.8L68.0 -0.2ZM67.9 4.3L74.4 8.4L80.6 13.1L86.6 18.5L92.2 24.6L97.4 31.2L102.1 38.5L106.3 46.3L110.0 54.6L113.1 63.4L115.5 72.7L117.3 82.4L118.4 92.4L118.7 102.8L118.3 113.4L117.1 124.2L115.1 135.2L112.3 146.3L108.6 157.5L108.7 157.4L112.5 146.2L115.4 135.0L117.5 123.9L118.7 113.0L119.2 102.3L118.9 91.8L117.8 81.6L116.1 71.8L113.6 62.4L110.5 53.5L106.9 45.0L102.6 37.1L97.9 29.7L92.6 22.9L87.0 16.7L80.9 11.2L74.6 6.3L68.0 2.1ZM67.7 6.5L73.6 10.7L79.2 15.6L84.5 21.0L89.5 27.1L94.0 33.6L98.1 40.7L101.7 48.4L104.8 56.4L107.2 64.9L109.1 73.8L110.3 83.1L110.9 92.6L110.7 102.4L109.8 112.5L108.2 122.7L105.8 133.0L102.7 143.4L98.7 153.8L98.8 153.7L102.8 143.2L106.1 132.8L108.6 122.4L110.2 112.1L111.2 101.9L111.4 92.0L110.9 82.3L109.7 73.0L107.8 63.9L105.3 55.3L102.3 47.1L98.7 39.4L94.6 32.1L90.0 25.4L85.0 19.2L79.6 13.7L73.9 8.7L67.9 4.3ZM67.4 8.8L72.5 13.1L77.3 17.9L81.8 23.3L86.0 29.2L89.7 35.5L93.0 42.3L95.8 49.5L98.1 57.2L99.9 65.1L101.1 73.4L101.7 82.0L101.7 90.8L101.0 99.9L99.7 109.1L97.6 118.4L94.9 127.7L91.5 137.1L87.3 146.5L87.4 146.4L91.6 137.0L95.2 127.5L98.0 118.1L100.1 108.7L101.5 99.4L102.2 90.2L102.3 81.3L101.7 72.6L100.5 64.2L98.8 56.1L96.4 48.3L93.6 40.9L90.3 34.0L86.5 27.5L82.3 21.5L77.8 16.0L72.9 11.0L67.7 6.6ZM67.1 11.0L71.3 15.3L75.1 20.1L78.7 25.3L81.9 30.9L84.7 36.9L87.1 43.2L89.1 49.9L90.6 56.9L91.6 64.2L92.1 71.7L92.1 79.5L91.5 87.4L90.3 95.4L88.5 103.6L86.1 111.8L83.1 120.0L79.5 128.2L75.3 136.4L75.4 136.3L79.7 128.1L83.4 119.8L86.5 111.5L89.0 103.2L90.8 95.0L92.0 86.8L92.7 78.8L92.8 70.9L92.3 63.3L91.3 55.8L89.8 48.7L87.8 41.9L85.3 35.4L82.5 29.2L79.2 23.5L75.6 18.2L71.7 13.3L67.4 8.8ZM66.7 13.2L69.8 17.4L72.7 22.0L75.3 27.0L77.5 32.2L79.4 37.8L80.9 43.6L82.0 49.6L82.7 55.9L83.0 62.4L82.8 69.0L82.1 75.8L81.0 82.7L79.4 89.7L77.2 96.7L74.5 103.7L71.4 110.7L67.7 117.6L63.4 124.4L63.5 124.4L67.8 117.5L71.6 110.5L74.9 103.4L77.7 96.3L79.9 89.2L81.6 82.2L82.8 75.2L83.5 68.2L83.7 61.5L83.4 54.9L82.7 48.4L81.6 42.2L80.1 36.3L78.2 30.6L75.9 25.2L73.2 20.1L70.3 15.4L67.1 11.0ZM66.2 15.4L68.4 19.5L70.2 23.9L71.8 28.5L73.1 33.3L74.1 38.3L74.8 43.5L75.1 48.9L75.0 54.4L74.6 60.1L73.8 65.8L72.5 71.6L70.9 77.4L68.9 83.3L66.4 89.1L63.6 95.0L60.3 100.7L56.6 106.3L52.4 111.9L52.5 111.8L56.7 106.2L60.6 100.5L63.9 94.7L66.9 88.8L69.4 82.9L71.5 76.9L73.2 71.0L74.4 65.0L75.3 59.2L75.7 53.4L75.8 47.8L75.5 42.2L74.8 36.9L73.8 31.7L72.5 26.7L70.8 22.0L68.9 17.5L66.7 13.2ZM65.7 17.6L66.9 21.5L67.8 25.6L68.5 29.9L69.0 34.3L69.2 38.8L69.0 43.4L68.6 48.1L67.9 52.9L66.9 57.7L65.5 62.5L63.8 67.4L61.8 72.2L59.5 77.0L56.8 81.8L53.8 86.5L50.5 91.0L46.8 95.5L42.8 99.8L42.9 99.8L47.0 95.4L50.8 90.9L54.2 86.2L57.3 81.5L60.0 76.6L62.4 71.7L64.5 66.7L66.2 61.8L67.6 56.8L68.7 51.9L69.4 47.0L69.8 42.1L69.9 37.4L69.7 32.7L69.3 28.2L68.5 23.8L67.5 19.5L66.2 15.4ZM65.1 19.7L65.5 23.5L65.7 27.3L65.6 31.2L65.3 35.2L64.8 39.3L64.1 43.3L63.1 47.4L61.8 51.5L60.3 55.6L58.5 59.7L56.4 63.7L54.1 67.7L51.6 71.6L48.7 75.4L45.7 79.1L42.3 82.7L38.7 86.2L34.9 89.5L35.0 89.4L38.9 86.1L42.6 82.6L46.0 78.9L49.2 75.1L52.1 71.2L54.8 67.2L57.1 63.1L59.2 59.0L61.0 54.8L62.6 50.5L63.9 46.3L64.9 42.1L65.6 37.9L66.1 33.7L66.4 29.6L66.4 25.5L66.2 21.5L65.7 17.6ZM64.4 21.9L64.2 25.5L63.8 29.1L63.1 32.7L62.3 36.3L61.3 40.0L60.0 43.6L58.6 47.2L56.9 50.8L55.0 54.3L52.9 57.7L50.6 61.1L48.1 64.4L45.3 67.6L42.4 70.7L39.3 73.6L36.0 76.5L32.5 79.1L28.8 81.6L28.9 81.6L32.7 79.0L36.3 76.3L39.7 73.4L42.9 70.4L45.9 67.2L48.7 63.9L51.3 60.5L53.7 57.0L55.8 53.5L57.7 49.8L59.4 46.1L60.9 42.4L62.1 38.6L63.2 34.8L64.0 31.0L64.5 27.3L64.9 23.5L65.1 19.8ZM63.6 24.0L63.0 27.4L62.2 30.9L61.2 34.3L60.0 37.7L58.6 41.0L57.0 44.4L55.2 47.6L53.3 50.8L51.1 53.9L48.8 57.0L46.3 59.9L43.6 62.7L40.8 65.5L37.8 68.0L34.6 70.5L31.3 72.8L27.9 74.9L24.3 76.9L24.4 76.9L28.1 74.9L31.6 72.7L35.0 70.3L38.3 67.8L41.4 65.1L44.3 62.3L47.0 59.3L49.6 56.3L52.0 53.1L54.1 49.9L56.1 46.6L57.9 43.2L59.5 39.7L60.9 36.2L62.0 32.7L63.0 29.1L63.8 25.5L64.4 21.9ZM62.8 26.1L61.9 29.4L60.9 32.8L59.6 36.1L58.2 39.3L56.6 42.6L54.9 45.7L52.9 48.8L50.8 51.8L48.5 54.7L46.0 57.5L43.4 60.2L40.6 62.8L37.7 65.2L34.7 67.6L31.4 69.7L28.1 71.7L24.6 73.6L21.1 75.3L21.1 75.3L24.8 73.5L28.4 71.6L31.9 69.5L35.2 67.3L38.3 64.9L41.3 62.3L44.2 59.7L46.8 56.8L49.3 53.9L51.7 50.9L53.8 47.8L55.8 44.5L57.6 41.3L59.2 37.9L60.6 34.5L61.8 31.0L62.8 27.6L63.6 24.0ZM61.9 28.2L60.9 31.5L59.7 34.8L58.4 38.0L56.9 41.2L55.1 44.4L53.3 47.5L51.2 50.5L49.0 53.4L46.6 56.2L44.0 58.9L41.3 61.5L38.5 64.0L35.5 66.3L32.3 68.5L29.1 70.6L25.7 72.5L22.1 74.2L18.5 75.8L18.6 75.7L22.3 74.2L26.0 72.4L29.5 70.4L32.9 68.3L36.1 66.0L39.2 63.6L42.1 61.0L44.9 58.3L47.5 55.5L49.9 52.5L52.2 49.5L54.3 46.3L56.1 43.1L57.9 39.8L59.4 36.5L60.7 33.1L61.8 29.6L62.8 26.1ZM60.9 30.2L59.8 33.5L58.6 36.7L57.1 39.9L55.5 43.1L53.6 46.2L51.7 49.2L49.5 52.1L47.2 55.0L44.7 57.7L42.1 60.3L39.3 62.8L36.3 65.2L33.3 67.5L30.1 69.6L26.7 71.5L23.2 73.3L19.7 74.9L16.0 76.3L16.1 76.3L19.9 74.8L23.6 73.2L27.1 71.3L30.6 69.3L33.9 67.2L37.0 64.8L40.1 62.4L42.9 59.7L45.6 57.0L48.1 54.1L50.5 51.2L52.7 48.1L54.7 44.9L56.5 41.7L58.1 38.4L59.6 35.0L60.8 31.6L61.9 28.2ZM59.9 32.2L58.7 35.4L57.3 38.6L55.7 41.8L54.0 44.9L52.1 47.9L50.0 50.9L47.8 53.7L45.4 56.5L42.8 59.2L40.1 61.7L37.2 64.1L34.2 66.4L31.0 68.5L27.7 70.5L24.3 72.4L20.8 74.0L17.2 75.5L13.5 76.8L13.6 76.8L17.4 75.5L21.1 73.9L24.8 72.2L28.3 70.3L31.6 68.2L34.9 66.0L38.0 63.6L40.9 61.1L43.7 58.5L46.3 55.7L48.8 52.8L51.1 49.8L53.2 46.7L55.1 43.5L56.8 40.3L58.4 37.0L59.7 33.6L60.9 30.2ZM58.8 34.1L57.5 37.4L56.0 40.5L54.3 43.6L52.5 46.7L50.5 49.6L48.3 52.5L46.0 55.3L43.5 58.0L40.8 60.5L38.0 63.0L35.0 65.3L32.0 67.5L28.7 69.5L25.4 71.4L21.9 73.1L18.4 74.7L14.7 76.0L10.9 77.2L11.0 77.2L14.9 76.0L18.7 74.6L22.4 73.0L25.9 71.2L29.4 69.3L32.7 67.1L35.9 64.9L38.9 62.4L41.8 59.9L44.5 57.2L47.0 54.4L49.4 51.5L51.6 48.5L53.6 45.3L55.5 42.2L57.1 38.9L58.6 35.6L59.9 32.2ZM57.7 36.1L56.2 39.2L54.6 42.3L52.9 45.4L50.9 48.4L48.8 51.3L46.5 54.1L44.1 56.8L41.5 59.4L38.8 61.8L35.9 64.2L32.9 66.4L29.7 68.5L26.4 70.4L23.0 72.2L19.5 73.8L15.9 75.2L12.2 76.5L8.4 77.6L8.5 77.5L12.4 76.4L16.2 75.2L19.9 73.7L23.6 72.0L27.1 70.2L30.4 68.2L33.7 66.0L36.8 63.7L39.8 61.2L42.6 58.6L45.2 55.9L47.7 53.1L50.0 50.1L52.1 47.1L54.0 44.0L55.8 40.8L57.4 37.5L58.8 34.2ZM56.4 38.0L54.9 41.1L53.2 44.1L51.3 47.1L49.3 50.0L47.1 52.8L44.7 55.6L42.2 58.2L39.5 60.7L36.7 63.1L33.8 65.4L30.7 67.5L27.4 69.4L24.1 71.3L20.6 72.9L17.0 74.4L13.4 75.7L9.6 76.8L5.8 77.8L5.9 77.8L9.8 76.8L13.7 75.7L17.5 74.3L21.2 72.8L24.7 71.0L28.2 69.1L31.5 67.1L34.7 64.9L37.7 62.5L40.6 60.0L43.3 57.4L45.9 54.6L48.3 51.8L50.5 48.8L52.6 45.7L54.4 42.6L56.1 39.4L57.6 36.1ZM55.1 39.8L53.5 42.9L51.7 45.9L49.7 48.8L47.6 51.6L45.3 54.4L42.9 57.0L40.3 59.6L37.5 62.0L34.6 64.3L31.6 66.4L28.4 68.5L25.1 70.3L21.7 72.0L18.2 73.6L14.6 74.9L10.9 76.1L7.1 77.1L3.2 77.9L3.3 77.9L7.3 77.1L11.2 76.1L15.0 74.8L18.7 73.4L22.4 71.8L25.9 70.0L29.3 68.1L32.5 66.0L35.6 63.7L38.6 61.3L41.4 58.8L44.1 56.1L46.5 53.3L48.9 50.4L51.0 47.4L53.0 44.4L54.8 41.2L56.4 38.0ZM53.8 41.6L52.1 44.6L50.2 47.5L48.1 50.4L45.9 53.2L43.5 55.8L41.0 58.4L38.3 60.9L35.4 63.2L32.5 65.4L29.4 67.4L26.1 69.4L22.8 71.1L19.3 72.7L15.8 74.1L12.1 75.4L8.3 76.4L4.5 77.3L0.6 78.0L0.7 78.0L4.7 77.3L8.7 76.4L12.5 75.3L16.3 74.0L20.0 72.5L23.5 70.9L27.0 69.0L30.3 67.0L33.5 64.9L36.5 62.6L39.4 60.1L42.2 57.5L44.8 54.8L47.2 52.0L49.4 49.1L51.5 46.1L53.4 43.0L55.1 39.8ZM52.4 43.4L50.6 46.3L48.6 49.2L46.4 52.0L44.1 54.7L41.6 57.2L39.0 59.7L36.2 62.1L33.3 64.3L30.3 66.4L27.1 68.4L23.8 70.2L20.4 71.8L16.9 73.3L13.3 74.6L9.6 75.7L5.8 76.7L2.0 77.4L-1.9 78.0L-1.8 78.0L2.2 77.4L6.1 76.6L10.0 75.7L13.9 74.5L17.6 73.1L21.2 71.6L24.7 69.9L28.1 68.0L31.3 65.9L34.4 63.7L37.4 61.4L40.3 58.9L42.9 56.3L45.4 53.6L47.8 50.7L49.9 47.8L51.9 44.7L53.8 41.6ZM50.9 45.1L49.0 48.0L46.9 50.8L44.7 53.5L42.3 56.1L39.7 58.6L37.0 61.0L34.2 63.3L31.2 65.4L28.1 67.4L24.8 69.2L21.5 70.9L18.0 72.5L14.5 73.8L10.8 75.0L7.1 76.0L3.3 76.8L-0.6 77.4L-4.5 77.9L-4.4 77.9L-0.4 77.4L3.6 76.8L7.5 76.0L11.4 74.9L15.1 73.7L18.8 72.3L22.4 70.7L25.8 68.9L29.1 66.9L32.3 64.8L35.4 62.6L38.3 60.2L41.0 57.7L43.6 55.0L46.1 52.3L48.3 49.4L50.4 46.4L52.4 43.4ZM49.4 46.7L47.4 49.5L45.2 52.3L42.9 54.9L40.4 57.5L37.8 59.9L35.0 62.2L32.1 64.4L29.0 66.4L25.8 68.3L22.5 70.0L19.1 71.6L15.6 73.0L12.0 74.3L8.3 75.3L4.6 76.2L0.7 76.9L-3.2 77.4L-7.1 77.7L-7.0 77.7L-2.9 77.4L1.1 76.9L5.0 76.2L8.9 75.3L12.7 74.1L16.4 72.8L20.0 71.4L23.5 69.7L26.9 67.9L30.2 65.9L33.3 63.7L36.3 61.4L39.1 59.0L41.8 56.4L44.3 53.8L46.7 51.0L48.9 48.1L50.9 45.1ZM47.8 48.3L45.7 51.1L43.5 53.7L41.0 56.3L38.5 58.8L35.7 61.1L32.9 63.3L29.9 65.4L26.8 67.3L23.6 69.1L20.2 70.7L16.8 72.2L13.2 73.5L9.6 74.6L5.8 75.6L2.0 76.3L-1.8 76.9L-5.7 77.2L-9.7 77.4L-9.6 77.4L-5.5 77.2L-1.5 76.9L2.5 76.3L6.4 75.5L10.2 74.5L14.0 73.3L17.6 72.0L21.2 70.4L24.6 68.7L28.0 66.8L31.2 64.8L34.2 62.6L37.1 60.3L39.9 57.8L42.5 55.2L45.0 52.5L47.3 49.7L49.4 46.8ZM46.2 49.9L44.0 52.6L41.7 55.2L39.2 57.6L36.5 60.0L33.7 62.2L30.8 64.4L27.7 66.3L24.6 68.2L21.3 69.8L17.9 71.4L14.4 72.7L10.8 73.9L7.1 74.9L3.3 75.7L-0.5 76.3L-4.3 76.8L-8.3 77.0L-12.2 77.0L-12.1 77.1L-8.0 77.0L-4.0 76.8L-0.0 76.3L3.9 75.7L7.8 74.8L11.6 73.8L15.3 72.5L18.9 71.1L22.4 69.5L25.7 67.7L29.0 65.8L32.1 63.7L35.1 61.5L38.0 59.1L40.7 56.6L43.2 53.9L45.6 51.2L47.8 48.4ZM44.5 51.4L42.3 54.0L39.8 56.5L37.2 58.9L34.5 61.2L31.6 63.3L28.6 65.3L25.5 67.2L22.3 68.9L18.9 70.5L15.5 71.9L11.9 73.1L8.3 74.2L4.6 75.1L0.8 75.8L-3.0 76.3L-6.9 76.6L-10.8 76.7L-14.8 76.6L-14.7 76.6L-10.6 76.7L-6.6 76.6L-2.6 76.3L1.4 75.8L5.3 75.0L9.1 74.1L12.8 73.0L16.5 71.7L20.0 70.2L23.5 68.5L26.8 66.7L30.0 64.7L33.1 62.6L36.0 60.3L38.8 57.9L41.4 55.3L43.9 52.7L46.2 49.9ZM42.8 52.8L40.4 55.4L37.9 57.8L35.3 60.1L32.5 62.3L29.5 64.3L26.5 66.2L23.3 68.0L20.0 69.6L16.6 71.1L13.1 72.4L9.5 73.5L5.9 74.4L2.1 75.2L-1.7 75.8L-5.5 76.1L-9.4 76.3L-13.3 76.3L-17.3 76.1L-17.2 76.1L-13.1 76.3L-9.1 76.4L-5.1 76.2L-1.1 75.8L2.8 75.2L6.7 74.4L10.4 73.4L14.1 72.2L17.7 70.8L21.2 69.3L24.6 67.6L27.9 65.7L31.0 63.6L34.0 61.5L36.8 59.1L39.6 56.7L42.1 54.1L44.5 51.4ZM41.0 54.2L38.6 56.7L36.0 59.0L33.3 61.2L30.4 63.3L27.4 65.3L24.3 67.1L21.0 68.7L17.7 70.3L14.2 71.6L10.7 72.8L7.1 73.8L3.4 74.6L-0.4 75.2L-4.2 75.7L-8.0 75.9L-11.9 76.0L-15.9 75.8L-19.8 75.4L-19.7 75.5L-15.6 75.8L-11.6 76.0L-7.6 76.0L-3.6 75.7L0.3 75.2L4.2 74.5L8.0 73.7L11.7 72.6L15.4 71.4L18.9 69.9L22.3 68.3L25.7 66.6L28.9 64.6L31.9 62.5L34.9 60.3L37.7 58.0L40.3 55.5L42.8 52.9ZM39.2 55.6L36.7 57.9L34.0 60.2L31.2 62.3L28.3 64.3L25.2 66.1L22.0 67.9L18.7 69.4L15.3 70.8L11.9 72.0L8.3 73.1L4.6 74.0L0.9 74.7L-2.9 75.2L-6.7 75.5L-10.5 75.6L-14.4 75.5L-18.3 75.2L-22.3 74.8L-22.2 74.8L-18.1 75.3L-14.1 75.6L-10.1 75.7L-6.1 75.5L-2.2 75.2L1.7 74.6L5.6 73.9L9.3 73.0L13.0 71.8L16.6 70.5L20.1 69.0L23.4 67.4L26.7 65.5L29.8 63.6L32.9 61.4L35.7 59.2L38.4 56.8L41.0 54.3ZM37.4 56.8L34.8 59.1L32.0 61.3L29.1 63.3L26.1 65.2L23.0 66.9L19.8 68.5L16.4 70.0L13.0 71.3L9.5 72.4L5.9 73.3L2.2 74.1L-1.5 74.7L-5.3 75.0L-9.2 75.2L-13.0 75.2L-16.9 75.0L-20.8 74.6L-24.7 74.0L-24.6 74.0L-20.6 74.6L-16.6 75.1L-12.6 75.3L-8.6 75.3L-4.7 75.1L-0.7 74.7L3.1 74.0L6.9 73.2L10.6 72.2L14.2 71.0L17.8 69.7L21.2 68.1L24.5 66.4L27.7 64.5L30.8 62.5L33.7 60.3L36.5 58.0L39.2 55.6ZM35.5 58.0L32.8 60.2L30.0 62.3L27.0 64.2L24.0 66.0L20.8 67.7L17.5 69.2L14.1 70.5L10.6 71.7L7.1 72.7L3.4 73.5L-0.3 74.1L-4.0 74.6L-7.8 74.8L-11.6 74.9L-15.5 74.7L-19.4 74.4L-23.3 73.9L-27.2 73.1L-27.1 73.2L-23.1 73.9L-19.1 74.5L-15.1 74.8L-11.1 75.0L-7.1 74.9L-3.2 74.6L0.7 74.1L4.5 73.4L8.2 72.5L11.9 71.5L15.5 70.2L18.9 68.8L22.3 67.2L25.6 65.4L28.7 63.5L31.7 61.4L34.6 59.2L37.3 56.8ZM33.5 59.2L30.8 61.3L27.9 63.2L24.9 65.1L21.8 66.8L18.5 68.3L15.2 69.7L11.8 70.9L8.3 72.0L4.7 72.9L1.0 73.6L-2.7 74.1L-6.5 74.4L-10.3 74.5L-14.1 74.5L-18.0 74.2L-21.8 73.7L-25.7 73.1L-29.6 72.2L-29.5 72.2L-25.5 73.1L-21.5 73.8L-17.5 74.3L-13.6 74.6L-9.6 74.6L-5.7 74.5L-1.8 74.1L2.0 73.5L5.8 72.8L9.5 71.8L13.1 70.7L16.7 69.4L20.1 67.9L23.4 66.2L26.6 64.4L29.7 62.4L32.6 60.3L35.4 58.0ZM31.6 60.2L28.7 62.2L25.8 64.1L22.7 65.9L19.5 67.5L16.3 68.9L12.9 70.2L9.4 71.3L5.9 72.2L2.3 73.0L-1.4 73.5L-5.2 73.9L-8.9 74.1L-12.7 74.1L-16.6 73.9L-20.4 73.6L-24.3 73.0L-28.1 72.2L-31.9 71.2L-31.8 71.2L-27.9 72.2L-24.0 73.1L-20.0 73.7L-16.0 74.1L-12.1 74.2L-8.1 74.2L-4.2 74.0L-0.4 73.6L3.4 72.9L7.1 72.1L10.8 71.1L14.4 69.9L17.8 68.5L21.2 67.0L24.5 65.2L27.6 63.4L30.6 61.3L33.5 59.2ZM29.6 61.3L26.7 63.2L23.7 64.9L20.5 66.6L17.3 68.1L14.0 69.4L10.6 70.6L7.1 71.5L3.5 72.4L-0.2 73.0L-3.9 73.5L-7.6 73.7L-11.4 73.8L-15.2 73.7L-19.0 73.4L-22.8 72.8L-26.7 72.1L-30.5 71.2L-34.3 70.1L-34.2 70.1L-30.3 71.3L-26.4 72.2L-22.4 73.0L-18.5 73.5L-14.5 73.8L-10.6 73.9L-6.7 73.8L-2.8 73.5L1.0 73.0L4.7 72.3L8.4 71.4L12.0 70.3L15.6 69.1L19.0 67.6L22.3 66.0L25.5 64.2L28.6 62.3L31.5 60.3ZM27.5 62.2L24.6 64.0L21.5 65.7L18.3 67.2L15.0 68.6L11.7 69.8L8.2 70.9L4.7 71.7L1.1 72.4L-2.6 73.0L-6.3 73.3L-10.0 73.4L-13.8 73.4L-17.6 73.1L-21.4 72.7L-25.2 72.0L-29.0 71.2L-32.8 70.1L-36.6 68.9L-36.5 68.9L-32.6 70.2L-28.7 71.3L-24.8 72.2L-20.9 72.8L-16.9 73.3L-13.0 73.5L-9.1 73.5L-5.2 73.4L-1.4 73.0L2.4 72.4L6.1 71.6L9.7 70.7L13.3 69.5L16.7 68.2L20.1 66.7L23.4 65.1L26.5 63.2L29.5 61.3ZM25.4 63.1L22.4 64.8L19.3 66.4L16.1 67.8L12.8 69.1L9.4 70.2L5.9 71.1L2.3 71.9L-1.3 72.4L-5.0 72.8L-8.7 73.0L-12.5 73.1L-16.2 72.9L-20.0 72.5L-23.8 71.9L-27.6 71.2L-31.4 70.2L-35.1 69.0L-38.8 67.6L-38.7 67.7L-34.9 69.1L-31.1 70.3L-27.2 71.3L-23.3 72.1L-19.4 72.7L-15.4 73.1L-11.5 73.2L-7.7 73.2L-3.8 72.9L-0.0 72.4L3.7 71.8L7.4 71.0L11.0 69.9L14.5 68.7L17.9 67.3L21.2 65.8L24.4 64.1L27.5 62.2ZM23.3 63.9L20.3 65.5L17.1 67.0L13.9 68.4L10.5 69.6L7.1 70.6L3.5 71.5L-0.1 72.1L-3.7 72.6L-7.4 73.0L-11.2 73.1L-14.9 73.0L-18.7 72.7L-22.5 72.3L-26.4 71.6L-30.2 70.7L-33.9 69.6L-37.7 68.4L-41.4 66.9L-41.3 66.9L-37.5 68.5L-33.6 69.8L-29.7 70.9L-25.8 71.8L-21.9 72.5L-18.0 72.9L-14.0 73.2L-10.1 73.2L-6.3 73.1L-2.4 72.7L1.3 72.1L5.0 71.4L8.7 70.4L12.2 69.3L15.7 68.0L19.0 66.5L22.3 64.9L25.4 63.1ZM21.2 64.6L18.2 66.4L15.0 68.0L11.7 69.4L8.3 70.7L4.8 71.8L1.2 72.7L-2.5 73.5L-6.2 74.1L-10.0 74.4L-13.9 74.6L-17.8 74.6L-21.8 74.3L-25.8 73.9L-29.7 73.2L-33.7 72.4L-37.7 71.3L-41.6 70.0L-45.5 68.4L-45.5 68.5L-41.4 70.1L-37.4 71.4L-33.3 72.6L-29.2 73.5L-25.1 74.1L-21.0 74.6L-16.9 74.8L-12.9 74.8L-8.9 74.6L-5.0 74.2L-1.1 73.5L2.7 72.7L6.4 71.7L10.0 70.5L13.5 69.1L16.9 67.5L20.2 65.8L23.3 63.9ZM19.1 65.3L16.1 67.3L12.9 69.2L9.6 70.9L6.1 72.5L2.5 73.9L-1.2 75.1L-5.1 76.1L-9.0 77.0L-13.1 77.6L-17.2 78.0L-21.4 78.1L-25.7 78.1L-30.0 77.8L-34.4 77.3L-38.8 76.5L-43.2 75.5L-47.5 74.2L-51.9 72.7L-51.8 72.7L-47.4 74.3L-42.9 75.7L-38.4 76.7L-33.9 77.5L-29.4 78.1L-24.9 78.3L-20.5 78.4L-16.2 78.2L-11.9 77.8L-7.8 77.1L-3.7 76.2L0.3 75.1L4.1 73.8L7.8 72.3L11.4 70.6L14.8 68.8L18.1 66.8L21.2 64.6ZM16.9 65.9L14.0 68.4L10.8 70.7L7.4 72.9L3.9 75.0L0.1 76.9L-3.8 78.5L-8.0 80.0L-12.2 81.3L-16.6 82.3L-21.2 83.1L-25.9 83.6L-30.6 83.8L-35.5 83.8L-40.5 83.5L-45.5 82.9L-50.5 82.0L-55.6 80.8L-60.7 79.3L-60.6 79.4L-55.4 81.0L-50.3 82.2L-45.1 83.1L-40.0 83.8L-34.9 84.1L-29.9 84.1L-25.0 83.8L-20.2 83.3L-15.5 82.5L-11.0 81.4L-6.6 80.1L-2.3 78.6L1.7 76.8L5.6 74.9L9.3 72.7L12.7 70.4L16.0 67.9L19.0 65.3ZM14.7 66.4L11.8 69.5L8.6 72.5L5.2 75.4L1.5 78.1L-2.5 80.6L-6.8 82.8L-11.2 84.9L-15.9 86.7L-20.9 88.3L-26.0 89.5L-31.3 90.5L-36.7 91.1L-42.3 91.4L-48.1 91.4L-53.9 91.0L-59.8 90.3L-65.8 89.2L-71.8 87.7L-71.7 87.8L-65.6 89.3L-59.5 90.5L-53.5 91.3L-47.6 91.7L-41.7 91.7L-36.0 91.4L-30.4 90.8L-25.0 89.8L-19.7 88.5L-14.7 86.9L-9.9 85.1L-5.3 83.0L-0.9 80.6L3.2 78.0L7.0 75.2L10.6 72.3L13.9 69.2L16.9 65.9ZM12.5 66.8L9.6 70.7L6.4 74.5L2.8 78.1L-1.1 81.5L-5.4 84.7L-10.0 87.7L-15.0 90.4L-20.2 92.9L-25.7 95.0L-31.5 96.8L-37.6 98.2L-43.8 99.3L-50.3 100.0L-57.0 100.2L-63.8 100.1L-70.7 99.5L-77.8 98.4L-84.9 96.9L-84.8 97.0L-77.6 98.6L-70.4 99.7L-63.4 100.3L-56.5 100.5L-49.7 100.3L-43.1 99.6L-36.7 98.5L-30.6 97.1L-24.6 95.3L-19.0 93.1L-13.6 90.6L-8.5 87.9L-3.8 84.8L0.6 81.5L4.7 78.0L8.4 74.3L11.7 70.4L14.7 66.4ZM10.3 67.2L7.4 71.9L4.1 76.5L0.3 80.9L-4.0 85.0L-8.6 89.0L-13.7 92.7L-19.2 96.1L-25.0 99.2L-31.2 101.9L-37.8 104.2L-44.6 106.1L-51.8 107.6L-59.2 108.6L-66.8 109.1L-74.7 109.1L-82.7 108.6L-90.9 107.6L-99.1 105.9L-99.1 106.0L-90.7 107.7L-82.4 108.8L-74.3 109.4L-66.4 109.4L-58.6 108.9L-51.1 107.9L-43.8 106.5L-36.8 104.5L-30.1 102.2L-23.8 99.5L-17.8 96.4L-12.2 92.9L-7.0 89.1L-2.2 85.1L2.1 80.8L6.0 76.3L9.5 71.7L12.5 66.9ZM8.1 67.5L5.1 73.0L1.6 78.3L-2.5 83.4L-7.0 88.4L-12.1 93.0L-17.6 97.4L-23.7 101.4L-30.2 105.0L-37.1 108.3L-44.4 111.1L-52.1 113.4L-60.2 115.2L-68.5 116.4L-77.2 117.1L-86.0 117.2L-95.1 116.7L-104.4 115.6L-113.7 113.8L-113.7 113.8L-104.2 115.7L-94.9 116.9L-85.7 117.5L-76.7 117.4L-67.9 116.8L-59.4 115.5L-51.3 113.7L-43.4 111.4L-36.0 108.6L-28.9 105.4L-22.3 101.7L-16.2 97.6L-10.5 93.2L-5.3 88.5L-0.6 83.5L3.6 78.2L7.2 72.8L10.2 67.2ZM5.8 67.8L2.7 73.9L-1.0 79.9L-5.3 85.7L-10.2 91.2L-15.7 96.4L-21.8 101.3L-28.4 105.8L-35.5 109.9L-43.1 113.6L-51.2 116.7L-59.6 119.3L-68.5 121.3L-77.7 122.7L-87.3 123.4L-97.1 123.5L-107.1 122.9L-117.3 121.6L-127.7 119.5L-127.6 119.6L-117.2 121.7L-106.9 123.1L-96.7 123.8L-86.8 123.7L-77.1 123.0L-67.8 121.7L-58.8 119.7L-50.2 117.1L-42.0 114.0L-34.3 110.3L-27.1 106.2L-20.3 101.6L-14.1 96.7L-8.5 91.4L-3.5 85.8L1.0 79.9L4.8 73.8L8.0 67.5ZM3.6 67.9L0.3 74.6L-3.7 81.0L-8.3 87.3L-13.6 93.2L-19.5 98.9L-26.0 104.1L-33.1 109.0L-40.8 113.3L-48.9 117.2L-57.6 120.5L-66.8 123.2L-76.3 125.3L-86.2 126.7L-96.5 127.4L-107.0 127.3L-117.8 126.5L-128.8 124.9L-139.9 122.6L-139.8 122.6L-128.7 125.1L-117.6 126.8L-106.7 127.6L-96.0 127.7L-85.7 127.0L-75.6 125.7L-65.9 123.6L-56.7 120.9L-47.9 117.6L-39.6 113.8L-31.8 109.4L-24.6 104.5L-17.9 99.2L-11.9 93.5L-6.5 87.4L-1.7 81.1L2.4 74.5L5.8 67.8ZM1.3 68.0L-2.2 74.9L-6.4 81.7L-11.3 88.2L-16.9 94.3L-23.2 100.1L-30.1 105.5L-37.6 110.5L-45.7 114.9L-54.3 118.8L-63.4 122.1L-73.0 124.7L-83.0 126.7L-93.4 128.0L-104.2 128.5L-115.2 128.2L-126.5 127.1L-137.9 125.2L-149.5 122.5L-149.4 122.5L-137.8 125.4L-126.2 127.4L-114.9 128.5L-103.7 128.8L-92.9 128.4L-82.4 127.1L-72.2 125.2L-62.5 122.6L-53.2 119.3L-44.5 115.4L-36.3 110.9L-28.6 105.9L-21.6 100.5L-15.2 94.6L-9.5 88.4L-4.5 81.8L-0.1 75.0L3.5 67.9ZM-0.9 68.0L-4.7 75.0L-9.1 81.7L-14.3 88.2L-20.2 94.3L-26.7 100.1L-33.8 105.4L-41.6 110.2L-49.9 114.5L-58.8 118.2L-68.2 121.3L-78.0 123.7L-88.2 125.4L-98.8 126.4L-109.8 126.6L-121.0 126.0L-132.4 124.5L-144.0 122.3L-155.6 119.1L-155.6 119.2L-143.8 122.4L-132.2 124.8L-120.7 126.3L-109.3 126.9L-98.3 126.8L-87.6 125.9L-77.2 124.2L-67.3 121.8L-57.8 118.7L-48.8 115.0L-40.3 110.7L-32.4 105.8L-25.1 100.5L-18.5 94.7L-12.5 88.5L-7.2 81.9L-2.6 75.1L1.3 68.0ZM-3.2 67.9L-7.1 74.7L-11.8 81.2L-17.2 87.3L-23.2 93.2L-29.8 98.6L-37.1 103.6L-44.9 108.0L-53.3 112.0L-62.2 115.3L-71.6 118.0L-81.4 120.0L-91.5 121.4L-102.1 121.9L-112.9 121.7L-123.9 120.8L-135.1 118.9L-146.5 116.3L-157.9 112.8L-157.8 112.9L-146.3 116.5L-134.9 119.2L-123.6 121.1L-112.4 122.1L-101.5 122.4L-90.9 121.8L-80.6 120.5L-70.7 118.5L-61.2 115.8L-52.2 112.5L-43.6 108.6L-35.7 104.1L-28.3 99.1L-21.5 93.6L-15.3 87.7L-9.9 81.4L-5.1 74.8L-1.0 68.0ZM-5.4 67.8L-9.6 74.0L-14.4 80.0L-19.8 85.7L-25.9 91.0L-32.5 95.8L-39.7 100.3L-47.4 104.2L-55.7 107.6L-64.3 110.4L-73.5 112.5L-83.0 114.1L-92.8 114.9L-102.9 115.0L-113.3 114.3L-123.8 112.9L-134.5 110.7L-145.3 107.7L-156.1 103.9L-156.0 104.0L-145.2 107.9L-134.3 111.0L-123.5 113.3L-112.9 114.7L-102.4 115.4L-92.2 115.4L-82.2 114.6L-72.6 113.1L-63.4 110.9L-54.5 108.1L-46.2 104.8L-38.3 100.8L-31.0 96.3L-24.2 91.4L-18.0 86.1L-12.4 80.3L-7.5 74.3L-3.2 67.9ZM-7.6 67.6L-11.9 73.1L-16.8 78.3L-22.2 83.3L-28.2 87.8L-34.6 92.0L-41.6 95.7L-49.1 98.9L-56.9 101.6L-65.2 103.7L-73.8 105.3L-82.8 106.2L-92.0 106.4L-101.4 106.0L-111.1 104.9L-120.8 103.1L-130.7 100.5L-140.6 97.2L-150.5 93.1L-150.5 93.2L-140.5 97.4L-130.5 100.8L-120.5 103.4L-110.7 105.3L-100.9 106.5L-91.4 107.0L-82.0 106.7L-73.0 105.8L-64.2 104.3L-55.8 102.2L-47.8 99.5L-40.2 96.3L-33.1 92.5L-26.5 88.3L-20.4 83.7L-14.8 78.7L-9.9 73.4L-5.5 67.8ZM-9.9 67.3L-14.2 71.9L-19.0 76.3L-24.3 80.3L-30.1 84.0L-36.2 87.3L-42.8 90.1L-49.8 92.5L-57.1 94.5L-64.8 95.8L-72.7 96.7L-80.9 97.0L-89.3 96.7L-97.9 95.7L-106.5 94.2L-115.3 91.9L-124.1 89.1L-132.9 85.5L-141.7 81.3L-141.7 81.4L-132.8 85.7L-123.9 89.3L-115.0 92.3L-106.2 94.6L-97.4 96.2L-88.7 97.2L-80.2 97.6L-71.9 97.3L-63.8 96.5L-56.1 95.1L-48.6 93.2L-41.5 90.8L-34.7 87.9L-28.4 84.6L-22.5 80.8L-17.1 76.7L-12.1 72.3L-7.7 67.6ZM-12.1 66.9L-16.4 70.6L-21.1 73.9L-26.1 77.0L-31.6 79.7L-37.4 82.1L-43.4 84.0L-49.8 85.6L-56.5 86.7L-63.4 87.3L-70.5 87.5L-77.8 87.1L-85.2 86.2L-92.7 84.8L-100.3 82.8L-107.9 80.3L-115.5 77.2L-123.1 73.5L-130.6 69.3L-130.5 69.4L-123.0 73.7L-115.3 77.5L-107.6 80.7L-99.9 83.3L-92.2 85.3L-84.6 86.8L-77.1 87.7L-69.7 88.1L-62.5 88.0L-55.4 87.4L-48.6 86.3L-42.1 84.7L-35.9 82.7L-30.0 80.3L-24.4 77.6L-19.2 74.4L-14.3 71.0L-9.9 67.3ZM-14.3 66.5L-18.5 69.1L-23.0 71.5L-27.7 73.5L-32.8 75.3L-38.1 76.7L-43.6 77.8L-49.3 78.5L-55.2 78.8L-61.3 78.7L-67.5 78.2L-73.8 77.3L-80.1 75.9L-86.5 74.0L-93.0 71.7L-99.4 68.9L-105.7 65.7L-112.0 62.0L-118.2 57.8L-118.1 57.9L-111.9 62.2L-105.5 66.0L-99.1 69.3L-92.6 72.2L-86.1 74.5L-79.6 76.5L-73.1 77.9L-66.7 78.9L-60.4 79.4L-54.2 79.5L-48.1 79.2L-42.3 78.5L-36.6 77.4L-31.2 76.0L-26.0 74.2L-21.1 72.0L-16.5 69.6L-12.1 66.9ZM-16.5 66.0L-20.5 67.6L-24.8 69.0L-29.2 70.2L-33.8 71.0L-38.6 71.6L-43.5 71.8L-48.5 71.7L-53.6 71.3L-58.9 70.6L-64.1 69.5L-69.5 68.0L-74.8 66.2L-80.1 64.0L-85.4 61.5L-90.6 58.5L-95.8 55.2L-100.8 51.5L-105.7 47.4L-105.7 47.5L-100.7 51.7L-95.6 55.5L-90.4 58.9L-85.1 61.9L-79.7 64.6L-74.3 66.8L-68.8 68.7L-63.4 70.2L-58.0 71.3L-52.6 72.1L-47.4 72.5L-42.2 72.6L-37.1 72.3L-32.2 71.7L-27.5 70.8L-22.9 69.7L-18.5 68.2L-14.3 66.5ZM-18.7 65.4L-22.5 66.2L-26.5 66.7L-30.6 67.0L-34.7 67.1L-39.0 66.9L-43.3 66.4L-47.7 65.7L-52.1 64.7L-56.6 63.4L-61.0 61.8L-65.4 60.0L-69.8 57.8L-74.2 55.3L-78.4 52.6L-82.6 49.5L-86.7 46.2L-90.6 42.5L-94.4 38.6L-94.3 38.7L-90.5 42.7L-86.5 46.5L-82.4 49.9L-78.1 53.0L-73.8 55.9L-69.3 58.4L-64.8 60.6L-60.3 62.6L-55.7 64.2L-51.1 65.5L-46.6 66.5L-42.1 67.3L-37.6 67.7L-33.2 67.9L-28.9 67.8L-24.6 67.4L-20.5 66.8L-16.5 66.0ZM-20.8 64.7L-24.5 64.8L-28.2 64.7L-32.0 64.3L-35.8 63.7L-39.6 62.9L-43.4 61.9L-47.2 60.7L-51.1 59.2L-54.8 57.5L-58.6 55.5L-62.3 53.3L-65.9 50.9L-69.4 48.2L-72.8 45.4L-76.1 42.2L-79.3 38.9L-82.3 35.4L-85.2 31.6L-85.1 31.7L-82.2 35.6L-79.1 39.2L-75.9 42.6L-72.5 45.8L-69.0 48.8L-65.4 51.5L-61.7 54.0L-57.9 56.3L-54.0 58.2L-50.1 60.0L-46.1 61.5L-42.2 62.8L-38.2 63.8L-34.2 64.6L-30.3 65.1L-26.4 65.4L-22.5 65.5L-18.7 65.4ZM-22.9 64.0L-26.4 63.6L-30.0 62.9L-33.5 62.1L-37.0 61.0L-40.5 59.8L-43.9 58.4L-47.3 56.8L-50.7 54.9L-54.0 52.9L-57.2 50.7L-60.3 48.3L-63.4 45.7L-66.3 42.9L-69.1 39.9L-71.8 36.8L-74.3 33.4L-76.7 30.0L-78.9 26.3L-78.8 26.4L-76.6 30.2L-74.1 33.7L-71.6 37.2L-68.8 40.4L-65.9 43.4L-62.9 46.3L-59.8 49.0L-56.5 51.4L-53.2 53.7L-49.7 55.8L-46.3 57.6L-42.7 59.3L-39.1 60.7L-35.5 61.9L-31.8 62.9L-28.2 63.7L-24.5 64.3L-20.9 64.7ZM-25.0 63.2L-28.4 62.5L-31.8 61.5L-35.2 60.3L-38.5 59.0L-41.7 57.5L-45.0 55.8L-48.1 53.9L-51.2 51.9L-54.2 49.7L-57.1 47.3L-59.9 44.7L-62.6 42.0L-65.1 39.1L-67.5 36.1L-69.8 32.9L-72.0 29.6L-73.9 26.1L-75.7 22.5L-75.7 22.6L-73.9 26.3L-71.8 29.9L-69.6 33.3L-67.3 36.6L-64.8 39.7L-62.1 42.7L-59.3 45.4L-56.4 48.1L-53.4 50.5L-50.3 52.8L-47.1 54.9L-43.8 56.7L-40.4 58.4L-37.0 59.9L-33.6 61.3L-30.1 62.4L-26.5 63.3L-23.0 64.0ZM-27.1 62.4L-30.5 61.4L-33.8 60.3L-37.0 59.0L-40.3 57.5L-43.5 55.9L-46.6 54.0L-49.6 52.0L-52.6 49.9L-55.4 47.5L-58.2 45.0L-60.8 42.4L-63.3 39.5L-65.7 36.6L-68.0 33.5L-70.1 30.2L-72.0 26.9L-73.8 23.4L-75.5 19.8L-75.4 19.9L-73.8 23.6L-71.9 27.2L-69.9 30.6L-67.7 34.0L-65.4 37.2L-62.9 40.2L-60.3 43.1L-57.5 45.8L-54.7 48.4L-51.7 50.8L-48.6 53.0L-45.4 55.0L-42.2 56.9L-38.8 58.5L-35.5 60.0L-32.0 61.2L-28.6 62.3L-25.1 63.2ZM-29.2 61.4L-32.5 60.4L-35.7 59.2L-39.0 57.7L-42.2 56.2L-45.3 54.4L-48.3 52.5L-51.3 50.4L-54.2 48.1L-57.0 45.7L-59.6 43.1L-62.2 40.3L-64.6 37.4L-66.9 34.4L-69.1 31.2L-71.1 27.9L-72.9 24.5L-74.6 20.9L-76.1 17.3L-76.0 17.3L-74.5 21.1L-72.8 24.8L-70.9 28.3L-68.8 31.7L-66.6 35.0L-64.2 38.1L-61.7 41.1L-59.0 43.9L-56.2 46.6L-53.3 49.0L-50.3 51.3L-47.2 53.5L-44.0 55.4L-40.8 57.2L-37.4 58.8L-34.1 60.1L-30.6 61.3L-27.2 62.3ZM-31.2 60.4L-34.5 59.3L-37.7 57.9L-40.9 56.4L-44.0 54.7L-47.1 52.9L-50.0 50.8L-52.9 48.6L-55.7 46.3L-58.4 43.8L-61.0 41.1L-63.5 38.2L-65.8 35.3L-68.0 32.1L-70.1 28.9L-71.9 25.5L-73.7 22.0L-75.2 18.4L-76.6 14.7L-76.6 14.8L-75.2 18.6L-73.6 22.4L-71.8 26.0L-69.8 29.4L-67.7 32.8L-65.4 36.0L-63.0 39.0L-60.4 41.9L-57.7 44.7L-54.9 47.2L-52.0 49.7L-49.0 51.9L-45.8 53.9L-42.6 55.8L-39.4 57.5L-36.0 59.0L-32.6 60.3L-29.2 61.4ZM-33.2 59.4L-36.4 58.1L-39.6 56.7L-42.7 55.0L-45.8 53.3L-48.8 51.3L-51.7 49.2L-54.5 46.9L-57.2 44.4L-59.9 41.8L-62.3 39.0L-64.7 36.1L-66.9 33.1L-69.0 29.9L-71.0 26.6L-72.7 23.1L-74.4 19.6L-75.8 15.9L-77.0 12.2L-77.0 12.3L-75.7 16.1L-74.3 19.9L-72.6 23.6L-70.8 27.1L-68.8 30.5L-66.6 33.8L-64.3 36.9L-61.8 39.9L-59.2 42.7L-56.5 45.4L-53.6 47.9L-50.6 50.2L-47.6 52.4L-44.5 54.4L-41.2 56.2L-38.0 57.8L-34.6 59.2L-31.2 60.4ZM-35.1 58.2L-38.3 56.9L-41.4 55.3L-44.5 53.6L-47.5 51.7L-50.4 49.7L-53.3 47.4L-56.0 45.0L-58.7 42.5L-61.2 39.8L-63.6 37.0L-65.9 34.0L-68.0 30.8L-70.0 27.6L-71.8 24.2L-73.5 20.7L-75.0 17.1L-76.3 13.4L-77.4 9.6L-77.4 9.7L-76.2 13.6L-74.9 17.4L-73.3 21.1L-71.6 24.7L-69.7 28.2L-67.7 31.6L-65.4 34.8L-63.1 37.8L-60.6 40.8L-57.9 43.5L-55.2 46.1L-52.3 48.5L-49.3 50.8L-46.2 52.9L-43.1 54.8L-39.8 56.5L-36.6 58.0L-33.2 59.3ZM-37.0 57.1L-40.2 55.6L-43.2 53.9L-46.3 52.1L-49.2 50.1L-52.1 48.0L-54.8 45.6L-57.5 43.2L-60.0 40.5L-62.5 37.8L-64.8 34.8L-67.0 31.8L-69.0 28.6L-70.9 25.3L-72.6 21.8L-74.1 18.3L-75.5 14.6L-76.7 10.9L-77.7 7.1L-77.7 7.2L-76.6 11.1L-75.4 15.0L-74.0 18.7L-72.4 22.4L-70.6 25.9L-68.7 29.3L-66.6 32.6L-64.3 35.7L-61.9 38.7L-59.3 41.6L-56.7 44.3L-53.9 46.8L-51.0 49.1L-47.9 51.3L-44.9 53.3L-41.7 55.1L-38.4 56.8L-35.2 58.2ZM-38.9 55.8L-42.0 54.2L-45.0 52.5L-48.0 50.5L-50.8 48.5L-53.6 46.2L-56.3 43.8L-58.9 41.2L-61.4 38.5L-63.7 35.7L-65.9 32.7L-68.0 29.5L-69.9 26.3L-71.7 22.9L-73.3 19.4L-74.7 15.8L-75.9 12.1L-77.0 8.4L-77.9 4.5L-77.9 4.6L-77.0 8.6L-75.9 12.5L-74.6 16.3L-73.1 20.0L-71.4 23.5L-69.6 27.0L-67.6 30.4L-65.4 33.6L-63.1 36.7L-60.7 39.6L-58.1 42.4L-55.4 45.0L-52.5 47.4L-49.6 49.7L-46.6 51.8L-43.5 53.7L-40.3 55.5L-37.1 57.0ZM-40.7 54.5L-43.7 52.8L-46.7 50.9L-49.6 48.9L-52.4 46.8L-55.1 44.4L-57.7 41.9L-60.2 39.3L-62.6 36.5L-64.8 33.5L-66.9 30.5L-68.9 27.3L-70.7 24.0L-72.4 20.5L-73.9 17.0L-75.2 13.3L-76.3 9.6L-77.2 5.8L-78.0 1.9L-78.0 2.0L-77.2 6.0L-76.2 9.9L-75.1 13.8L-73.7 17.5L-72.2 21.2L-70.5 24.7L-68.6 28.1L-66.5 31.4L-64.3 34.6L-61.9 37.6L-59.5 40.4L-56.8 43.1L-54.1 45.7L-51.2 48.0L-48.3 50.2L-45.2 52.3L-42.1 54.1L-38.9 55.8ZM-42.5 53.1L-45.5 51.3L-48.4 49.4L-51.2 47.3L-53.9 45.0L-56.6 42.6L-59.1 40.0L-61.5 37.3L-63.8 34.4L-65.9 31.4L-67.9 28.2L-69.8 25.0L-71.5 21.6L-73.0 18.1L-74.4 14.5L-75.6 10.8L-76.6 7.1L-77.4 3.2L-78.0 -0.7L-78.0 -0.6L-77.4 3.5L-76.5 7.4L-75.5 11.3L-74.3 15.1L-72.8 18.8L-71.2 22.4L-69.5 25.8L-67.5 29.2L-65.4 32.4L-63.2 35.5L-60.8 38.4L-58.2 41.2L-55.6 43.8L-52.8 46.3L-49.9 48.6L-46.9 50.7L-43.9 52.7L-40.7 54.5ZM-44.2 51.7L-47.1 49.8L-50.0 47.8L-52.7 45.5L-55.4 43.2L-57.9 40.7L-60.4 38.0L-62.7 35.2L-64.9 32.3L-66.9 29.2L-68.8 26.0L-70.6 22.7L-72.2 19.2L-73.6 15.7L-74.8 12.1L-75.9 8.3L-76.8 4.5L-77.4 0.7L-77.9 -3.2L-77.9 -3.1L-77.4 0.9L-76.7 4.9L-75.8 8.8L-74.7 12.6L-73.4 16.4L-71.9 20.0L-70.3 23.5L-68.4 26.9L-66.4 30.2L-64.3 33.4L-62.0 36.4L-59.6 39.3L-57.0 42.0L-54.3 44.5L-51.5 46.9L-48.6 49.2L-45.6 51.2L-42.5 53.1ZM-45.9 50.2L-48.8 48.2L-51.5 46.1L-54.2 43.8L-56.8 41.3L-59.2 38.7L-61.6 36.0L-63.8 33.1L-65.9 30.1L-67.8 27.0L-69.6 23.7L-71.3 20.3L-72.7 16.8L-74.0 13.2L-75.2 9.6L-76.1 5.8L-76.9 2.0L-77.4 -1.9L-77.8 -5.8L-77.8 -5.7L-77.4 -1.7L-76.9 2.3L-76.1 6.3L-75.1 10.1L-73.9 13.9L-72.6 17.6L-71.0 21.2L-69.3 24.7L-67.4 28.0L-65.4 31.2L-63.2 34.3L-60.8 37.3L-58.3 40.1L-55.7 42.7L-53.0 45.2L-50.2 47.5L-47.3 49.7L-44.3 51.6ZM-47.5 48.6L-50.3 46.6L-53.0 44.3L-55.6 42.0L-58.1 39.4L-60.5 36.8L-62.7 33.9L-64.9 31.0L-66.9 27.9L-68.7 24.7L-70.4 21.4L-71.9 17.9L-73.3 14.4L-74.4 10.8L-75.4 7.1L-76.3 3.3L-76.9 -0.5L-77.3 -4.4L-77.5 -8.4L-77.6 -8.3L-77.3 -4.2L-76.9 -0.2L-76.2 3.8L-75.4 7.7L-74.3 11.5L-73.1 15.2L-71.7 18.8L-70.1 22.4L-68.3 25.8L-66.4 29.1L-64.3 32.2L-62.0 35.2L-59.6 38.1L-57.1 40.9L-54.5 43.4L-51.7 45.8L-48.9 48.1L-45.9 50.1ZM-49.1 47.0L-51.8 44.9L-54.5 42.6L-57.0 40.1L-59.4 37.5L-61.7 34.7L-63.8 31.8L-65.9 28.8L-67.7 25.7L-69.5 22.4L-71.1 19.0L-72.5 15.6L-73.7 12.0L-74.8 8.3L-75.6 4.6L-76.3 0.8L-76.8 -3.1L-77.1 -7.0L-77.2 -10.9L-77.2 -10.8L-77.1 -6.8L-76.8 -2.7L-76.3 1.2L-75.6 5.2L-74.7 9.0L-73.6 12.8L-72.3 16.5L-70.8 20.0L-69.1 23.5L-67.3 26.9L-65.3 30.1L-63.2 33.2L-60.9 36.1L-58.4 38.9L-55.9 41.6L-53.2 44.1L-50.4 46.4L-47.6 48.6ZM-50.6 45.4L-53.3 43.1L-55.8 40.7L-58.3 38.2L-60.6 35.5L-62.8 32.7L-64.9 29.7L-66.8 26.6L-68.6 23.4L-70.2 20.1L-71.6 16.7L-72.9 13.2L-74.1 9.5L-75.0 5.8L-75.7 2.1L-76.3 -1.7L-76.7 -5.6L-76.9 -9.5L-76.8 -13.5L-76.8 -13.4L-76.9 -9.3L-76.7 -5.3L-76.3 -1.3L-75.7 2.7L-74.9 6.5L-73.9 10.3L-72.8 14.1L-71.4 17.7L-69.9 21.2L-68.1 24.6L-66.3 27.9L-64.2 31.1L-62.0 34.1L-59.7 37.0L-57.2 39.7L-54.7 42.3L-52.0 44.7L-49.2 47.0ZM-52.1 43.7L-54.7 41.4L-57.2 38.9L-59.5 36.2L-61.7 33.5L-63.8 30.6L-65.8 27.6L-67.6 24.4L-69.3 21.1L-70.8 17.8L-72.2 14.3L-73.3 10.7L-74.3 7.1L-75.1 3.4L-75.8 -0.4L-76.2 -4.3L-76.5 -8.1L-76.5 -12.1L-76.3 -16.0L-76.4 -15.9L-76.5 -11.9L-76.5 -7.8L-76.2 -3.8L-75.8 0.1L-75.1 4.0L-74.3 7.9L-73.2 11.6L-71.9 15.3L-70.5 18.9L-68.9 22.4L-67.1 25.7L-65.2 28.9L-63.1 32.0L-60.9 35.0L-58.5 37.8L-56.0 40.5L-53.4 43.0L-50.7 45.3ZM-53.5 41.9L-56.0 39.5L-58.4 37.0L-60.7 34.3L-62.8 31.4L-64.8 28.5L-66.7 25.4L-68.4 22.2L-70.0 18.8L-71.4 15.4L-72.6 11.9L-73.6 8.3L-74.5 4.6L-75.2 0.9L-75.7 -2.9L-76.0 -6.8L-76.1 -10.7L-76.1 -14.6L-75.8 -18.5L-75.8 -18.4L-76.1 -14.4L-76.2 -10.3L-76.1 -6.3L-75.7 -2.4L-75.2 1.6L-74.5 5.4L-73.5 9.2L-72.4 12.9L-71.1 16.5L-69.6 20.1L-68.0 23.5L-66.1 26.8L-64.1 29.9L-62.0 33.0L-59.7 35.9L-57.3 38.6L-54.8 41.2L-52.2 43.6ZM-54.9 40.1L-57.3 37.7L-59.6 35.0L-61.8 32.2L-63.8 29.3L-65.7 26.3L-67.5 23.1L-69.1 19.9L-70.5 16.5L-71.8 13.1L-72.9 9.5L-73.9 5.9L-74.6 2.2L-75.2 -1.6L-75.6 -5.4L-75.8 -9.3L-75.8 -13.2L-75.5 -17.1L-75.1 -21.0L-75.1 -20.9L-75.6 -16.9L-75.8 -12.9L-75.8 -8.8L-75.6 -4.9L-75.2 -0.9L-74.6 3.0L-73.8 6.8L-72.8 10.5L-71.6 14.2L-70.2 17.7L-68.7 21.2L-67.0 24.6L-65.1 27.8L-63.1 30.9L-60.9 33.9L-58.6 36.7L-56.1 39.4L-53.6 41.9ZM-56.2 38.3L-58.5 35.7L-60.7 33.0L-62.8 30.2L-64.7 27.2L-66.5 24.1L-68.2 20.9L-69.7 17.6L-71.0 14.2L-72.2 10.7L-73.2 7.1L-74.0 3.4L-74.7 -0.3L-75.1 -4.1L-75.4 -7.9L-75.4 -11.8L-75.3 -15.7L-74.9 -19.6L-74.4 -23.5L-74.4 -23.4L-75.0 -19.4L-75.3 -15.4L-75.5 -11.3L-75.4 -7.4L-75.1 -3.4L-74.7 0.5L-74.0 4.3L-73.1 8.1L-72.0 11.8L-70.8 15.4L-69.4 18.9L-67.8 22.3L-66.0 25.6L-64.1 28.8L-62.0 31.8L-59.8 34.7L-57.4 37.5L-54.9 40.1ZM-57.4 36.4L-59.7 33.8L-61.8 31.0L-63.8 28.1L-65.6 25.0L-67.3 21.9L-68.9 18.6L-70.3 15.3L-71.5 11.8L-72.5 8.3L-73.4 4.7L-74.1 1.0L-74.6 -2.8L-74.9 -6.6L-75.1 -10.4L-75.0 -14.3L-74.7 -18.2L-74.2 -22.1L-73.6 -25.9L-73.6 -25.9L-74.3 -21.8L-74.8 -17.8L-75.1 -13.8L-75.1 -9.8L-75.0 -5.9L-74.6 -2.0L-74.1 1.9L-73.3 5.7L-72.4 9.4L-71.3 13.1L-69.9 16.6L-68.5 20.1L-66.8 23.4L-65.0 26.7L-63.0 29.8L-60.9 32.7L-58.6 35.6L-56.2 38.3ZM-58.6 34.5L-60.7 31.8L-62.8 28.9L-64.7 26.0L-66.4 22.9L-68.0 19.7L-69.4 16.3L-70.7 12.9L-71.8 9.4L-72.8 5.9L-73.5 2.2L-74.1 -1.5L-74.5 -5.2L-74.7 -9.0L-74.7 -12.9L-74.5 -16.7L-74.1 -20.6L-73.5 -24.5L-72.7 -28.4L-72.7 -28.3L-73.5 -24.3L-74.2 -20.3L-74.6 -16.3L-74.8 -12.3L-74.8 -8.4L-74.5 -4.4L-74.1 -0.6L-73.5 3.3L-72.7 7.0L-71.7 10.7L-70.5 14.3L-69.1 17.8L-67.5 21.2L-65.8 24.5L-63.9 27.7L-61.9 30.7L-59.8 33.6L-57.5 36.4ZM-59.7 32.6L-61.8 29.8L-63.7 26.8L-65.5 23.8L-67.1 20.7L-68.6 17.4L-69.9 14.0L-71.1 10.6L-72.1 7.1L-72.9 3.5L-73.6 -0.2L-74.0 -3.9L-74.3 -7.7L-74.3 -11.5L-74.2 -15.3L-73.9 -19.2L-73.3 -23.1L-72.6 -26.9L-71.7 -30.8L-71.7 -30.7L-72.7 -26.7L-73.4 -22.7L-74.0 -18.8L-74.3 -14.8L-74.4 -10.8L-74.3 -6.9L-74.1 -3.0L-73.6 0.8L-72.9 4.6L-72.0 8.3L-70.9 12.0L-69.6 15.5L-68.2 19.0L-66.6 22.3L-64.8 25.5L-62.9 28.6L-60.8 31.6L-58.6 34.5ZM-60.8 30.6L-62.7 27.7L-64.5 24.7L-66.2 21.6L-67.8 18.4L-69.1 15.1L-70.4 11.7L-71.4 8.2L-72.3 4.7L-73.0 1.1L-73.5 -2.6L-73.8 -6.4L-74.0 -10.2L-73.9 -14.0L-73.7 -17.8L-73.2 -21.6L-72.5 -25.5L-71.7 -29.3L-70.6 -33.1L-70.7 -33.0L-71.8 -29.1L-72.7 -25.2L-73.3 -21.2L-73.8 -17.2L-74.0 -13.3L-74.1 -9.4L-73.9 -5.5L-73.5 -1.6L-73.0 2.2L-72.2 5.9L-71.2 9.6L-70.1 13.2L-68.8 16.7L-67.3 20.1L-65.6 23.4L-63.8 26.6L-61.8 29.6L-59.7 32.5ZM-61.7 28.5L-63.6 25.6L-65.3 22.6L-66.9 19.4L-68.3 16.2L-69.6 12.8L-70.7 9.4L-71.7 5.9L-72.4 2.3L-73.0 -1.4L-73.4 -5.1L-73.6 -8.8L-73.6 -12.6L-73.4 -16.4L-73.0 -20.2L-72.4 -24.0L-71.7 -27.9L-70.7 -31.7L-69.5 -35.4L-69.5 -35.3L-70.8 -31.5L-71.8 -27.5L-72.6 -23.6L-73.2 -19.7L-73.6 -15.7L-73.7 -11.8L-73.7 -7.9L-73.4 -4.0L-73.0 -0.2L-72.4 3.6L-71.5 7.3L-70.5 10.9L-69.3 14.4L-67.9 17.9L-66.4 21.2L-64.7 24.4L-62.8 27.5L-60.8 30.5ZM-62.6 26.5L-64.4 23.5L-66.0 20.4L-67.5 17.2L-68.8 13.9L-70.0 10.5L-71.0 7.0L-71.8 3.5L-72.4 -0.1L-72.9 -3.8L-73.2 -7.5L-73.3 -11.2L-73.1 -15.0L-72.8 -18.8L-72.3 -22.6L-71.6 -26.4L-70.7 -30.2L-69.6 -34.0L-68.3 -37.7L-68.3 -37.6L-69.7 -33.8L-70.8 -29.9L-71.8 -26.0L-72.5 -22.1L-73.0 -18.2L-73.3 -14.2L-73.4 -10.3L-73.3 -6.5L-73.0 -2.6L-72.4 1.2L-71.7 4.9L-70.8 8.5L-69.7 12.1L-68.5 15.6L-67.0 19.0L-65.4 22.3L-63.7 25.4L-61.8 28.5ZM-63.5 24.4L-65.2 21.4L-66.7 18.2L-68.1 15.0L-69.3 11.6L-70.3 8.2L-71.2 4.7L-71.9 1.1L-72.4 -2.5L-72.8 -6.2L-72.9 -9.9L-72.9 -13.7L-72.6 -17.4L-72.2 -21.2L-71.6 -25.0L-70.8 -28.8L-69.7 -32.6L-68.5 -36.3L-67.1 -40.0L-67.1 -39.9L-68.6 -36.1L-69.9 -32.3L-70.9 -28.4L-71.8 -24.5L-72.4 -20.6L-72.8 -16.7L-73.0 -12.8L-73.1 -8.9L-72.9 -5.0L-72.5 -1.2L-71.9 2.5L-71.1 6.2L-70.1 9.8L-69.0 13.3L-67.6 16.8L-66.1 20.1L-64.5 23.3L-62.7 26.4ZM-64.3 22.3L-65.9 19.2L-67.5 16.1L-68.8 12.8L-70.0 9.4L-71.1 5.9L-72.0 2.4L-72.7 -1.3L-73.2 -4.9L-73.5 -8.7L-73.6 -12.5L-73.5 -16.3L-73.3 -20.2L-72.8 -24.0L-72.1 -27.9L-71.2 -31.8L-70.1 -35.6L-68.8 -39.4L-67.3 -43.2L-67.4 -43.1L-68.9 -39.3L-70.3 -35.3L-71.4 -31.4L-72.3 -27.4L-73.0 -23.4L-73.5 -19.4L-73.7 -15.4L-73.8 -11.5L-73.6 -7.6L-73.2 -3.7L-72.7 0.1L-71.9 3.9L-70.9 7.5L-69.8 11.1L-68.5 14.6L-67.0 18.0L-65.3 21.2L-63.5 24.4ZM-65.0 20.1L-66.8 17.1L-68.5 13.9L-70.1 10.6L-71.5 7.2L-72.7 3.7L-73.8 0.0L-74.6 -3.7L-75.3 -7.6L-75.8 -11.5L-76.1 -15.5L-76.1 -19.5L-76.0 -23.6L-75.6 -27.7L-75.0 -31.9L-74.1 -36.0L-73.1 -40.2L-71.8 -44.3L-70.2 -48.4L-70.3 -48.3L-71.9 -44.1L-73.2 -39.9L-74.3 -35.6L-75.2 -31.4L-75.8 -27.1L-76.2 -22.9L-76.3 -18.6L-76.3 -14.5L-76.0 -10.4L-75.4 -6.3L-74.7 -2.4L-73.8 1.5L-72.6 5.3L-71.3 8.9L-69.8 12.5L-68.1 15.9L-66.3 19.1L-64.3 22.2ZM-65.6 18.0L-67.8 15.0L-69.9 11.8L-71.9 8.5L-73.7 5.0L-75.3 1.3L-76.7 -2.5L-77.9 -6.5L-78.9 -10.6L-79.7 -14.8L-80.3 -19.1L-80.7 -23.5L-80.7 -28.0L-80.6 -32.6L-80.1 -37.2L-79.5 -41.9L-78.5 -46.6L-77.3 -51.3L-75.7 -56.0L-75.8 -55.9L-77.4 -51.1L-78.7 -46.3L-79.7 -41.5L-80.4 -36.7L-80.8 -32.0L-81.0 -27.3L-80.9 -22.6L-80.5 -18.1L-79.9 -13.6L-79.1 -9.3L-78.0 -5.1L-76.7 -1.0L-75.2 2.9L-73.5 6.7L-71.6 10.3L-69.6 13.8L-67.3 17.0L-65.0 20.1ZM-66.1 15.8L-68.9 12.9L-71.6 9.7L-74.1 6.3L-76.5 2.7L-78.6 -1.2L-80.6 -5.3L-82.4 -9.5L-83.9 -14.0L-85.1 -18.7L-86.1 -23.5L-86.9 -28.4L-87.3 -33.5L-87.5 -38.8L-87.3 -44.1L-86.8 -49.5L-86.0 -55.0L-84.8 -60.5L-83.4 -66.0L-83.4 -65.9L-85.0 -60.3L-86.2 -54.7L-87.0 -49.1L-87.6 -43.6L-87.7 -38.1L-87.6 -32.8L-87.2 -27.6L-86.4 -22.5L-85.4 -17.5L-84.1 -12.8L-82.5 -8.2L-80.7 -3.8L-78.6 0.4L-76.4 4.4L-73.9 8.2L-71.3 11.7L-68.5 14.9L-65.6 17.9ZM-66.6 13.6L-70.1 10.7L-73.5 7.5L-76.7 4.0L-79.8 0.2L-82.6 -3.9L-85.2 -8.4L-87.6 -13.0L-89.7 -18.0L-91.6 -23.2L-93.1 -28.7L-94.3 -34.3L-95.1 -40.2L-95.6 -46.2L-95.8 -52.4L-95.5 -58.7L-94.8 -65.1L-93.8 -71.6L-92.3 -78.1L-92.3 -78.1L-93.9 -71.4L-95.0 -64.8L-95.7 -58.3L-96.0 -51.9L-95.9 -45.6L-95.5 -39.4L-94.6 -33.5L-93.4 -27.7L-91.8 -22.1L-90.0 -16.8L-87.8 -11.7L-85.4 -6.9L-82.7 -2.3L-79.7 1.9L-76.6 5.9L-73.3 9.5L-69.8 12.8L-66.2 15.8ZM-67.0 11.4L-71.3 8.5L-75.5 5.2L-79.5 1.6L-83.3 -2.5L-86.9 -7.0L-90.2 -11.8L-93.3 -17.0L-96.0 -22.5L-98.4 -28.4L-100.5 -34.6L-102.2 -41.0L-103.5 -47.7L-104.3 -54.7L-104.7 -61.8L-104.7 -69.1L-104.1 -76.6L-103.1 -84.2L-101.5 -91.9L-101.6 -91.8L-103.2 -84.0L-104.3 -76.3L-104.9 -68.8L-105.0 -61.3L-104.6 -54.1L-103.8 -47.0L-102.5 -40.2L-100.8 -33.6L-98.8 -27.3L-96.3 -21.3L-93.5 -15.6L-90.4 -10.3L-87.0 -5.4L-83.3 -0.8L-79.4 3.4L-75.3 7.2L-71.1 10.6L-66.6 13.6ZM-67.4 9.2L-72.5 6.3L-77.4 2.8L-82.2 -1.1L-86.7 -5.5L-91.1 -10.3L-95.1 -15.6L-98.8 -21.4L-102.2 -27.5L-105.2 -34.1L-107.7 -41.0L-109.9 -48.3L-111.5 -55.9L-112.7 -63.8L-113.3 -72.0L-113.3 -80.4L-112.8 -88.9L-111.8 -97.6L-110.1 -106.5L-110.1 -106.4L-111.9 -97.5L-113.0 -88.7L-113.6 -80.0L-113.6 -71.5L-113.0 -63.2L-111.9 -55.2L-110.2 -47.5L-108.1 -40.1L-105.5 -33.0L-102.5 -26.3L-99.1 -20.0L-95.3 -14.1L-91.2 -8.7L-86.8 -3.7L-82.2 0.8L-77.3 4.8L-72.3 8.3L-67.1 11.4ZM-67.7 6.9L-73.5 3.9L-79.1 0.3L-84.6 -3.9L-89.9 -8.6L-94.8 -13.9L-99.5 -19.7L-103.8 -26.0L-107.6 -32.8L-111.1 -40.1L-114.1 -47.8L-116.5 -55.9L-118.4 -64.4L-119.8 -73.2L-120.5 -82.3L-120.6 -91.6L-120.1 -101.2L-118.9 -111.0L-117.0 -120.9L-117.0 -120.8L-119.0 -110.8L-120.3 -101.0L-120.9 -91.3L-120.8 -81.8L-120.1 -72.6L-118.8 -63.7L-116.9 -55.1L-114.5 -46.8L-111.5 -39.0L-108.0 -31.6L-104.1 -24.7L-99.7 -18.2L-95.0 -12.3L-90.0 -6.9L-84.7 -2.0L-79.1 2.3L-73.3 6.0L-67.4 9.1ZM-67.8 4.7L-74.3 1.5L-80.5 -2.3L-86.6 -6.8L-92.3 -11.9L-97.8 -17.6L-102.9 -23.9L-107.6 -30.8L-111.8 -38.2L-115.6 -46.1L-118.8 -54.4L-121.5 -63.3L-123.6 -72.5L-125.0 -82.1L-125.7 -92.0L-125.8 -102.2L-125.1 -112.7L-123.6 -123.3L-121.4 -134.1L-121.5 -134.0L-123.8 -123.2L-125.3 -112.4L-126.0 -101.9L-126.0 -91.6L-125.3 -81.5L-124.0 -71.8L-121.9 -62.5L-119.3 -53.5L-116.0 -45.0L-112.2 -37.0L-108.0 -29.4L-103.2 -22.4L-98.1 -16.0L-92.5 -10.2L-86.7 -5.0L-80.5 -0.4L-74.2 3.6L-67.7 6.9ZM-68.0 2.5L-74.8 -0.9L-81.4 -5.0L-87.8 -9.8L-93.9 -15.3L-99.7 -21.4L-105.0 -28.1L-110.0 -35.4L-114.4 -43.3L-118.3 -51.7L-121.6 -60.6L-124.3 -70.0L-126.3 -79.8L-127.7 -90.0L-128.3 -100.6L-128.1 -111.4L-127.2 -122.5L-125.5 -133.7L-122.9 -145.1L-123.0 -145.0L-125.6 -133.6L-127.4 -122.2L-128.4 -111.1L-128.6 -100.1L-128.1 -89.5L-126.7 -79.2L-124.7 -69.2L-122.0 -59.7L-118.7 -50.6L-114.8 -42.1L-110.4 -34.1L-105.4 -26.6L-100.0 -19.8L-94.2 -13.6L-88.0 -8.0L-81.5 -3.1L-74.8 1.1L-67.8 4.7ZM-68.0 0.2L-75.0 -3.4L-81.8 -7.8L-88.3 -12.8L-94.5 -18.6L-100.3 -25.0L-105.7 -32.0L-110.6 -39.7L-115.0 -47.9L-118.8 -56.7L-122.0 -65.9L-124.5 -75.7L-126.4 -85.9L-127.5 -96.4L-127.9 -107.3L-127.5 -118.4L-126.2 -129.8L-124.1 -141.4L-121.2 -153.0L-121.3 -153.0L-124.3 -141.2L-126.5 -129.6L-127.8 -118.1L-128.3 -106.8L-127.9 -95.9L-126.8 -85.2L-125.0 -74.9L-122.5 -65.0L-119.3 -55.6L-115.4 -46.7L-111.0 -38.4L-106.1 -30.6L-100.7 -23.4L-94.8 -16.9L-88.5 -11.0L-81.9 -5.8L-75.1 -1.3L-68.0 2.4ZM-68.0 -2.0L-74.9 -5.9L-81.5 -10.5L-87.9 -15.8L-93.9 -21.7L-99.5 -28.3L-104.7 -35.5L-109.3 -43.3L-113.5 -51.7L-117.0 -60.6L-119.9 -70.0L-122.2 -79.9L-123.7 -90.1L-124.5 -100.7L-124.5 -111.7L-123.7 -122.8L-122.1 -134.2L-119.6 -145.7L-116.3 -157.3L-116.4 -157.2L-119.8 -145.5L-122.3 -133.9L-124.0 -122.5L-124.9 -111.2L-124.9 -100.2L-124.2 -89.5L-122.7 -79.1L-120.4 -69.1L-117.5 -59.6L-114.0 -50.6L-109.8 -42.1L-105.1 -34.1L-99.9 -26.7L-94.3 -20.0L-88.2 -13.9L-81.7 -8.5L-75.0 -3.8L-68.0 0.2ZM-67.9 -4.3L-74.4 -8.4L-80.6 -13.1L-86.6 -18.5L-92.2 -24.6L-97.4 -31.2L-102.1 -38.5L-106.3 -46.3L-110.0 -54.6L-113.1 -63.4L-115.5 -72.7L-117.3 -82.4L-118.4 -92.4L-118.7 -102.8L-118.3 -113.4L-117.1 -124.2L-115.1 -135.2L-112.3 -146.3L-108.6 -157.5L-108.7 -157.4L-112.5 -146.2L-115.4 -135.0L-117.5 -123.9L-118.7 -113.0L-119.2 -102.3L-118.9 -91.8L-117.8 -81.6L-116.1 -71.8L-113.6 -62.4L-110.5 -53.5L-106.9 -45.0L-102.6 -37.1L-97.9 -29.7L-92.6 -22.9L-87.0 -16.7L-80.9 -11.2L-74.6 -6.3L-68.0 -2.1ZM-67.7 -6.5L-73.6 -10.7L-79.2 -15.6L-84.5 -21.0L-89.5 -27.1L-94.0 -33.6L-98.1 -40.7L-101.7 -48.4L-104.8 -56.4L-107.2 -64.9L-109.1 -73.8L-110.3 -83.1L-110.9 -92.6L-110.7 -102.4L-109.8 -112.5L-108.2 -122.7L-105.8 -133.0L-102.7 -143.4L-98.7 -153.8L-98.8 -153.7L-102.8 -143.2L-106.1 -132.8L-108.6 -122.4L-110.2 -112.1L-111.2 -101.9L-111.4 -92.0L-110.9 -82.3L-109.7 -73.0L-107.8 -63.9L-105.3 -55.3L-102.3 -47.1L-98.7 -39.4L-94.6 -32.1L-90.0 -25.4L-85.0 -19.2L-79.6 -13.7L-73.9 -8.7L-67.9 -4.3ZM-67.4 -8.8L-72.5 -13.1L-77.3 -17.9L-81.8 -23.3L-86.0 -29.2L-89.7 -35.5L-93.0 -42.3L-95.8 -49.5L-98.1 -57.2L-99.9 -65.1L-101.1 -73.4L-101.7 -82.0L-101.7 -90.8L-101.0 -99.9L-99.7 -109.1L-97.6 -118.4L-94.9 -127.7L-91.5 -137.1L-87.3 -146.5L-87.4 -146.4L-91.6 -137.0L-95.2 -127.5L-98.0 -118.1L-100.1 -108.7L-101.5 -99.4L-102.2 -90.2L-102.3 -81.3L-101.7 -72.6L-100.5 -64.2L-98.8 -56.1L-96.4 -48.3L-93.6 -40.9L-90.3 -34.0L-86.5 -27.5L-82.3 -21.5L-77.8 -16.0L-72.9 -11.0L-67.7 -6.6ZM-67.1 -11.0L-71.3 -15.3L-75.1 -20.1L-78.7 -25.3L-81.9 -30.9L-84.7 -36.9L-87.1 -43.2L-89.1 -49.9L-90.6 -56.9L-91.6 -64.2L-92.1 -71.7L-92.1 -79.5L-91.5 -87.4L-90.3 -95.4L-88.5 -103.6L-86.1 -111.8L-83.1 -120.0L-79.5 -128.2L-75.3 -136.4L-75.4 -136.3L-79.7 -128.1L-83.4 -119.8L-86.5 -111.5L-89.0 -103.2L-90.8 -95.0L-92.0 -86.8L-92.7 -78.8L-92.8 -70.9L-92.3 -63.3L-91.3 -55.8L-89.8 -48.7L-87.8 -41.9L-85.3 -35.4L-82.5 -29.2L-79.2 -23.5L-75.6 -18.2L-71.7 -13.3L-67.4 -8.8ZM-66.7 -13.2L-69.8 -17.4L-72.7 -22.0L-75.3 -27.0L-77.5 -32.2L-79.4 -37.8L-80.9 -43.6L-82.0 -49.6L-82.7 -55.9L-83.0 -62.4L-82.8 -69.0L-82.1 -75.8L-81.0 -82.7L-79.4 -89.7L-77.2 -96.7L-74.5 -103.7L-71.4 -110.7L-67.7 -117.6L-63.4 -124.4L-63.5 -124.4L-67.8 -117.5L-71.6 -110.5L-74.9 -103.4L-77.7 -96.3L-79.9 -89.2L-81.6 -82.2L-82.8 -75.2L-83.5 -68.2L-83.7 -61.5L-83.4 -54.9L-82.7 -48.4L-81.6 -42.2L-80.1 -36.3L-78.2 -30.6L-75.9 -25.2L-73.2 -20.1L-70.3 -15.4L-67.1 -11.0ZM-66.2 -15.4L-68.4 -19.5L-70.2 -23.9L-71.8 -28.5L-73.1 -33.3L-74.1 -38.3L-74.8 -43.5L-75.1 -48.9L-75.0 -54.4L-74.6 -60.1L-73.8 -65.8L-72.5 -71.6L-70.9 -77.4L-68.9 -83.3L-66.4 -89.1L-63.6 -95.0L-60.3 -100.7L-56.6 -106.3L-52.4 -111.9L-52.5 -111.8L-56.7 -106.2L-60.6 -100.5L-63.9 -94.7L-66.9 -88.8L-69.4 -82.9L-71.5 -76.9L-73.2 -71.0L-74.4 -65.0L-75.3 -59.2L-75.7 -53.4L-75.8 -47.8L-75.5 -42.2L-74.8 -36.9L-73.8 -31.7L-72.5 -26.7L-70.8 -22.0L-68.9 -17.5L-66.7 -13.2ZM-65.7 -17.6L-66.9 -21.5L-67.8 -25.6L-68.5 -29.9L-69.0 -34.3L-69.2 -38.8L-69.0 -43.4L-68.6 -48.1L-67.9 -52.9L-66.9 -57.7L-65.5 -62.5L-63.8 -67.4L-61.8 -72.2L-59.5 -77.0L-56.8 -81.8L-53.8 -86.5L-50.5 -91.0L-46.8 -95.5L-42.8 -99.8L-42.9 -99.8L-47.0 -95.4L-50.8 -90.9L-54.2 -86.2L-57.3 -81.5L-60.0 -76.6L-62.4 -71.7L-64.5 -66.7L-66.2 -61.8L-67.6 -56.8L-68.7 -51.9L-69.4 -47.0L-69.8 -42.1L-69.9 -37.4L-69.7 -32.7L-69.3 -28.2L-68.5 -23.8L-67.5 -19.5L-66.2 -15.4ZM-65.1 -19.7L-65.5 -23.5L-65.7 -27.3L-65.6 -31.2L-65.3 -35.2L-64.8 -39.3L-64.1 -43.3L-63.1 -47.4L-61.8 -51.5L-60.3 -55.6L-58.5 -59.7L-56.4 -63.7L-54.1 -67.7L-51.6 -71.6L-48.7 -75.4L-45.7 -79.1L-42.3 -82.7L-38.7 -86.2L-34.9 -89.5L-35.0 -89.4L-38.9 -86.1L-42.6 -82.6L-46.0 -78.9L-49.2 -75.1L-52.1 -71.2L-54.8 -67.2L-57.1 -63.1L-59.2 -59.0L-61.0 -54.8L-62.6 -50.5L-63.9 -46.3L-64.9 -42.1L-65.6 -37.9L-66.1 -33.7L-66.4 -29.6L-66.4 -25.5L-66.2 -21.5L-65.7 -17.6ZM-64.4 -21.9L-64.2 -25.5L-63.8 -29.1L-63.1 -32.7L-62.3 -36.3L-61.3 -40.0L-60.0 -43.6L-58.6 -47.2L-56.9 -50.8L-55.0 -54.3L-52.9 -57.7L-50.6 -61.1L-48.1 -64.4L-45.3 -67.6L-42.4 -70.7L-39.3 -73.6L-36.0 -76.5L-32.5 -79.1L-28.8 -81.6L-28.9 -81.6L-32.7 -79.0L-36.3 -76.3L-39.7 -73.4L-42.9 -70.4L-45.9 -67.2L-48.7 -63.9L-51.3 -60.5L-53.7 -57.0L-55.8 -53.5L-57.7 -49.8L-59.4 -46.1L-60.9 -42.4L-62.1 -38.6L-63.2 -34.8L-64.0 -31.0L-64.5 -27.3L-64.9 -23.5L-65.1 -19.8ZM-63.6 -24.0L-63.0 -27.4L-62.2 -30.9L-61.2 -34.3L-60.0 -37.7L-58.6 -41.0L-57.0 -44.4L-55.2 -47.6L-53.3 -50.8L-51.1 -53.9L-48.8 -57.0L-46.3 -59.9L-43.6 -62.7L-40.8 -65.5L-37.8 -68.0L-34.6 -70.5L-31.3 -72.8L-27.9 -74.9L-24.3 -76.9L-24.4 -76.9L-28.1 -74.9L-31.6 -72.7L-35.0 -70.3L-38.3 -67.8L-41.4 -65.1L-44.3 -62.3L-47.0 -59.3L-49.6 -56.3L-52.0 -53.1L-54.1 -49.9L-56.1 -46.6L-57.9 -43.2L-59.5 -39.7L-60.9 -36.2L-62.0 -32.7L-63.0 -29.1L-63.8 -25.5L-64.4 -21.9ZM-62.8 -26.1L-61.9 -29.4L-60.9 -32.8L-59.6 -36.1L-58.2 -39.3L-56.6 -42.6L-54.9 -45.7L-52.9 -48.8L-50.8 -51.8L-48.5 -54.7L-46.0 -57.5L-43.4 -60.2L-40.6 -62.8L-37.7 -65.2L-34.7 -67.6L-31.4 -69.7L-28.1 -71.7L-24.6 -73.6L-21.1 -75.3L-21.1 -75.3L-24.8 -73.5L-28.4 -71.6L-31.9 -69.5L-35.2 -67.3L-38.3 -64.9L-41.3 -62.3L-44.2 -59.7L-46.8 -56.8L-49.3 -53.9L-51.7 -50.9L-53.8 -47.8L-55.8 -44.5L-57.6 -41.3L-59.2 -37.9L-60.6 -34.5L-61.8 -31.0L-62.8 -27.6L-63.6 -24.0ZM-61.9 -28.2L-60.9 -31.5L-59.7 -34.8L-58.4 -38.0L-56.9 -41.2L-55.1 -44.4L-53.3 -47.5L-51.2 -50.5L-49.0 -53.4L-46.6 -56.2L-44.0 -58.9L-41.3 -61.5L-38.5 -64.0L-35.5 -66.3L-32.3 -68.5L-29.1 -70.6L-25.7 -72.5L-22.1 -74.2L-18.5 -75.8L-18.6 -75.7L-22.3 -74.2L-26.0 -72.4L-29.5 -70.4L-32.9 -68.3L-36.1 -66.0L-39.2 -63.6L-42.1 -61.0L-44.9 -58.3L-47.5 -55.5L-49.9 -52.5L-52.2 -49.5L-54.3 -46.3L-56.1 -43.1L-57.9 -39.8L-59.4 -36.5L-60.7 -33.1L-61.8 -29.6L-62.8 -26.1ZM-60.9 -30.2L-59.8 -33.5L-58.6 -36.7L-57.1 -39.9L-55.5 -43.1L-53.6 -46.2L-51.7 -49.2L-49.5 -52.1L-47.2 -55.0L-44.7 -57.7L-42.1 -60.3L-39.3 -62.8L-36.3 -65.2L-33.3 -67.5L-30.1 -69.6L-26.7 -71.5L-23.2 -73.3L-19.7 -74.9L-16.0 -76.3L-16.1 -76.3L-19.9 -74.8L-23.6 -73.2L-27.1 -71.3L-30.6 -69.3L-33.9 -67.2L-37.0 -64.8L-40.1 -62.4L-42.9 -59.7L-45.6 -57.0L-48.1 -54.1L-50.5 -51.2L-52.7 -48.1L-54.7 -44.9L-56.5 -41.7L-58.1 -38.4L-59.6 -35.0L-60.8 -31.6L-61.9 -28.2ZM-59.9 -32.2L-58.7 -35.4L-57.3 -38.6L-55.7 -41.8L-54.0 -44.9L-52.1 -47.9L-50.0 -50.9L-47.8 -53.7L-45.4 -56.5L-42.8 -59.2L-40.1 -61.7L-37.2 -64.1L-34.2 -66.4L-31.0 -68.5L-27.7 -70.5L-24.3 -72.4L-20.8 -74.0L-17.2 -75.5L-13.5 -76.8L-13.6 -76.8L-17.4 -75.5L-21.1 -73.9L-24.8 -72.2L-28.3 -70.3L-31.6 -68.2L-34.9 -66.0L-38.0 -63.6L-40.9 -61.1L-43.7 -58.5L-46.3 -55.7L-48.8 -52.8L-51.1 -49.8L-53.2 -46.7L-55.1 -43.5L-56.8 -40.3L-58.4 -37.0L-59.7 -33.6L-60.9 -30.2ZM-58.8 -34.1L-57.5 -37.4L-56.0 -40.5L-54.3 -43.6L-52.5 -46.7L-50.5 -49.6L-48.3 -52.5L-46.0 -55.3L-43.5 -58.0L-40.8 -60.5L-38.0 -63.0L-35.0 -65.3L-32.0 -67.5L-28.7 -69.5L-25.4 -71.4L-21.9 -73.1L-18.4 -74.7L-14.7 -76.0L-10.9 -77.2L-11.0 -77.2L-14.9 -76.0L-18.7 -74.6L-22.4 -73.0L-25.9 -71.2L-29.4 -69.3L-32.7 -67.1L-35.9 -64.9L-38.9 -62.4L-41.8 -59.9L-44.5 -57.2L-47.0 -54.4L-49.4 -51.5L-51.6 -48.5L-53.6 -45.3L-55.5 -42.2L-57.1 -38.9L-58.6 -35.6L-59.9 -32.2ZM-57.7 -36.1L-56.2 -39.2L-54.6 -42.3L-52.9 -45.4L-50.9 -48.4L-48.8 -51.3L-46.5 -54.1L-44.1 -56.8L-41.5 -59.4L-38.8 -61.8L-35.9 -64.2L-32.9 -66.4L-29.7 -68.5L-26.4 -70.4L-23.0 -72.2L-19.5 -73.8L-15.9 -75.2L-12.2 -76.5L-8.4 -77.6L-8.5 -77.5L-12.4 -76.4L-16.2 -75.2L-19.9 -73.7L-23.6 -72.0L-27.1 -70.2L-30.4 -68.2L-33.7 -66.0L-36.8 -63.7L-39.8 -61.2L-42.6 -58.6L-45.2 -55.9L-47.7 -53.1L-50.0 -50.1L-52.1 -47.1L-54.0 -44.0L-55.8 -40.8L-57.4 -37.5L-58.8 -34.2ZM-56.4 -38.0L-54.9 -41.1L-53.2 -44.1L-51.3 -47.1L-49.3 -50.0L-47.1 -52.8L-44.7 -55.6L-42.2 -58.2L-39.5 -60.7L-36.7 -63.1L-33.8 -65.4L-30.7 -67.5L-27.4 -69.4L-24.1 -71.3L-20.6 -72.9L-17.0 -74.4L-13.4 -75.7L-9.6 -76.8L-5.8 -77.8L-5.9 -77.8L-9.8 -76.8L-13.7 -75.7L-17.5 -74.3L-21.2 -72.8L-24.7 -71.0L-28.2 -69.1L-31.5 -67.1L-34.7 -64.9L-37.7 -62.5L-40.6 -60.0L-43.3 -57.4L-45.9 -54.6L-48.3 -51.8L-50.5 -48.8L-52.6 -45.7L-54.4 -42.6L-56.1 -39.4L-57.6 -36.1ZM-55.1 -39.8L-53.5 -42.9L-51.7 -45.9L-49.7 -48.8L-47.6 -51.6L-45.3 -54.4L-42.9 -57.0L-40.3 -59.6L-37.5 -62.0L-34.6 -64.3L-31.6 -66.4L-28.4 -68.5L-25.1 -70.3L-21.7 -72.0L-18.2 -73.6L-14.6 -74.9L-10.9 -76.1L-7.1 -77.1L-3.2 -77.9L-3.3 -77.9L-7.3 -77.1L-11.2 -76.1L-15.0 -74.8L-18.7 -73.4L-22.4 -71.8L-25.9 -70.0L-29.3 -68.1L-32.5 -66.0L-35.6 -63.7L-38.6 -61.3L-41.4 -58.8L-44.1 -56.1L-46.5 -53.3L-48.9 -50.4L-51.0 -47.4L-53.0 -44.4L-54.8 -41.2L-56.4 -38.0ZM-53.8 -41.6L-52.1 -44.6L-50.2 -47.5L-48.1 -50.4L-45.9 -53.2L-43.5 -55.8L-41.0 -58.4L-38.3 -60.9L-35.4 -63.2L-32.5 -65.4L-29.4 -67.4L-26.1 -69.4L-22.8 -71.1L-19.3 -72.7L-15.8 -74.1L-12.1 -75.4L-8.3 -76.4L-4.5 -77.3L-0.6 -78.0L-0.7 -78.0L-4.7 -77.3L-8.7 -76.4L-12.5 -75.3L-16.3 -74.0L-20.0 -72.5L-23.5 -70.9L-27.0 -69.0L-30.3 -67.0L-33.5 -64.9L-36.5 -62.6L-39.4 -60.1L-42.2 -57.5L-44.8 -54.8L-47.2 -52.0L-49.4 -49.1L-51.5 -46.1L-53.4 -43.0L-55.1 -39.8ZM-52.4 -43.4L-50.6 -46.3L-48.6 -49.2L-46.4 -52.0L-44.1 -54.7L-41.6 -57.2L-39.0 -59.7L-36.2 -62.1L-33.3 -64.3L-30.3 -66.4L-27.1 -68.4L-23.8 -70.2L-20.4 -71.8L-16.9 -73.3L-13.3 -74.6L-9.6 -75.7L-5.8 -76.7L-2.0 -77.4L1.9 -78.0L1.8 -78.0L-2.2 -77.4L-6.1 -76.6L-10.0 -75.7L-13.9 -74.5L-17.6 -73.1L-21.2 -71.6L-24.7 -69.9L-28.1 -68.0L-31.3 -65.9L-34.4 -63.7L-37.4 -61.4L-40.3 -58.9L-42.9 -56.3L-45.4 -53.6L-47.8 -50.7L-49.9 -47.8L-51.9 -44.7L-53.8 -41.6ZM-50.9 -45.1L-49.0 -48.0L-46.9 -50.8L-44.7 -53.5L-42.3 -56.1L-39.7 -58.6L-37.0 -61.0L-34.2 -63.3L-31.2 -65.4L-28.1 -67.4L-24.8 -69.2L-21.5 -70.9L-18.0 -72.5L-14.5 -73.8L-10.8 -75.0L-7.1 -76.0L-3.3 -76.8L0.6 -77.4L4.5 -77.9L4.4 -77.9L0.4 -77.4L-3.6 -76.8L-7.5 -76.0L-11.4 -74.9L-15.1 -73.7L-18.8 -72.3L-22.4 -70.7L-25.8 -68.9L-29.1 -66.9L-32.3 -64.8L-35.4 -62.6L-38.3 -60.2L-41.0 -57.7L-43.6 -55.0L-46.1 -52.3L-48.3 -49.4L-50.4 -46.4L-52.4 -43.4ZM-49.4 -46.7L-47.4 -49.5L-45.2 -52.3L-42.9 -54.9L-40.4 -57.5L-37.8 -59.9L-35.0 -62.2L-32.1 -64.4L-29.0 -66.4L-25.8 -68.3L-22.5 -70.0L-19.1 -71.6L-15.6 -73.0L-12.0 -74.3L-8.3 -75.3L-4.6 -76.2L-0.7 -76.9L3.2 -77.4L7.1 -77.7L7.0 -77.7L2.9 -77.4L-1.1 -76.9L-5.0 -76.2L-8.9 -75.3L-12.7 -74.1L-16.4 -72.8L-20.0 -71.4L-23.5 -69.7L-26.9 -67.9L-30.2 -65.9L-33.3 -63.7L-36.3 -61.4L-39.1 -59.0L-41.8 -56.4L-44.3 -53.8L-46.7 -51.0L-48.9 -48.1L-50.9 -45.1ZM-47.8 -48.3L-45.7 -51.1L-43.5 -53.7L-41.0 -56.3L-38.5 -58.8L-35.7 -61.1L-32.9 -63.3L-29.9 -65.4L-26.8 -67.3L-23.6 -69.1L-20.2 -70.7L-16.8 -72.2L-13.2 -73.5L-9.6 -74.6L-5.8 -75.6L-2.0 -76.3L1.8 -76.9L5.7 -77.2L9.7 -77.4L9.6 -77.4L5.5 -77.2L1.5 -76.9L-2.5 -76.3L-6.4 -75.5L-10.2 -74.5L-14.0 -73.3L-17.6 -72.0L-21.2 -70.4L-24.6 -68.7L-28.0 -66.8L-31.2 -64.8L-34.2 -62.6L-37.1 -60.3L-39.9 -57.8L-42.5 -55.2L-45.0 -52.5L-47.3 -49.7L-49.4 -46.8ZM-46.2 -49.9L-44.0 -52.6L-41.7 -55.2L-39.2 -57.6L-36.5 -60.0L-33.7 -62.2L-30.8 -64.4L-27.7 -66.3L-24.6 -68.2L-21.3 -69.8L-17.9 -71.4L-14.4 -72.7L-10.8 -73.9L-7.1 -74.9L-3.3 -75.7L0.5 -76.3L4.3 -76.8L8.3 -77.0L12.2 -77.0L12.1 -77.1L8.0 -77.0L4.0 -76.8L0.0 -76.3L-3.9 -75.7L-7.8 -74.8L-11.6 -73.8L-15.3 -72.5L-18.9 -71.1L-22.4 -69.5L-25.7 -67.7L-29.0 -65.8L-32.1 -63.7L-35.1 -61.5L-38.0 -59.1L-40.7 -56.6L-43.2 -53.9L-45.6 -51.2L-47.8 -48.4ZM-44.5 -51.4L-42.3 -54.0L-39.8 -56.5L-37.2 -58.9L-34.5 -61.2L-31.6 -63.3L-28.6 -65.3L-25.5 -67.2L-22.3 -68.9L-18.9 -70.5L-15.5 -71.9L-11.9 -73.1L-8.3 -74.2L-4.6 -75.1L-0.8 -75.8L3.0 -76.3L6.9 -76.6L10.8 -76.7L14.8 -76.6L14.7 -76.6L10.6 -76.7L6.6 -76.6L2.6 -76.3L-1.4 -75.8L-5.3 -75.0L-9.1 -74.1L-12.8 -73.0L-16.5 -71.7L-20.0 -70.2L-23.5 -68.5L-26.8 -66.7L-30.0 -64.7L-33.1 -62.6L-36.0 -60.3L-38.8 -57.9L-41.4 -55.3L-43.9 -52.7L-46.2 -49.9ZM-42.8 -52.8L-40.4 -55.4L-37.9 -57.8L-35.3 -60.1L-32.5 -62.3L-29.5 -64.3L-26.5 -66.2L-23.3 -68.0L-20.0 -69.6L-16.6 -71.1L-13.1 -72.4L-9.5 -73.5L-5.9 -74.4L-2.1 -75.2L1.7 -75.8L5.5 -76.1L9.4 -76.3L13.3 -76.3L17.3 -76.1L17.2 -76.1L13.1 -76.3L9.1 -76.4L5.1 -76.2L1.1 -75.8L-2.8 -75.2L-6.7 -74.4L-10.4 -73.4L-14.1 -72.2L-17.7 -70.8L-21.2 -69.3L-24.6 -67.6L-27.9 -65.7L-31.0 -63.6L-34.0 -61.5L-36.8 -59.1L-39.6 -56.7L-42.1 -54.1L-44.5 -51.4ZM-41.0 -54.2L-38.6 -56.7L-36.0 -59.0L-33.3 -61.2L-30.4 -63.3L-27.4 -65.3L-24.3 -67.1L-21.0 -68.7L-17.7 -70.3L-14.2 -71.6L-10.7 -72.8L-7.1 -73.8L-3.4 -74.6L0.4 -75.2L4.2 -75.7L8.0 -75.9L11.9 -76.0L15.9 -75.8L19.8 -75.4L19.7 -75.5L15.6 -75.8L11.6 -76.0L7.6 -76.0L3.6 -75.7L-0.3 -75.2L-4.2 -74.5L-8.0 -73.7L-11.7 -72.6L-15.4 -71.4L-18.9 -69.9L-22.3 -68.3L-25.7 -66.6L-28.9 -64.6L-31.9 -62.5L-34.9 -60.3L-37.7 -58.0L-40.3 -55.5L-42.8 -52.9ZM-39.2 -55.6L-36.7 -57.9L-34.0 -60.2L-31.2 -62.3L-28.3 -64.3L-25.2 -66.1L-22.0 -67.9L-18.7 -69.4L-15.3 -70.8L-11.9 -72.0L-8.3 -73.1L-4.6 -74.0L-0.9 -74.7L2.9 -75.2L6.7 -75.5L10.5 -75.6L14.4 -75.5L18.3 -75.2L22.3 -74.8L22.2 -74.8L18.1 -75.3L14.1 -75.6L10.1 -75.7L6.1 -75.5L2.2 -75.2L-1.7 -74.6L-5.6 -73.9L-9.3 -73.0L-13.0 -71.8L-16.6 -70.5L-20.1 -69.0L-23.4 -67.4L-26.7 -65.5L-29.8 -63.6L-32.9 -61.4L-35.7 -59.2L-38.4 -56.8L-41.0 -54.3ZM-37.4 -56.8L-34.8 -59.1L-32.0 -61.3L-29.1 -63.3L-26.1 -65.2L-23.0 -66.9L-19.8 -68.5L-16.4 -70.0L-13.0 -71.3L-9.5 -72.4L-5.9 -73.3L-2.2 -74.1L1.5 -74.7L5.3 -75.0L9.2 -75.2L13.0 -75.2L16.9 -75.0L20.8 -74.6L24.7 -74.0L24.6 -74.0L20.6 -74.6L16.6 -75.1L12.6 -75.3L8.6 -75.3L4.7 -75.1L0.7 -74.7L-3.1 -74.0L-6.9 -73.2L-10.6 -72.2L-14.2 -71.0L-17.8 -69.7L-21.2 -68.1L-24.5 -66.4L-27.7 -64.5L-30.8 -62.5L-33.7 -60.3L-36.5 -58.0L-39.2 -55.6ZM-35.5 -58.0L-32.8 -60.2L-30.0 -62.3L-27.0 -64.2L-24.0 -66.0L-20.8 -67.7L-17.5 -69.2L-14.1 -70.5L-10.6 -71.7L-7.1 -72.7L-3.4 -73.5L0.3 -74.1L4.0 -74.6L7.8 -74.8L11.6 -74.9L15.5 -74.7L19.4 -74.4L23.3 -73.9L27.2 -73.1L27.1 -73.2L23.1 -73.9L19.1 -74.5L15.1 -74.8L11.1 -75.0L7.1 -74.9L3.2 -74.6L-0.7 -74.1L-4.5 -73.4L-8.2 -72.5L-11.9 -71.5L-15.5 -70.2L-18.9 -68.8L-22.3 -67.2L-25.6 -65.4L-28.7 -63.5L-31.7 -61.4L-34.6 -59.2L-37.3 -56.8ZM-33.5 -59.2L-30.8 -61.3L-27.9 -63.2L-24.9 -65.1L-21.8 -66.8L-18.5 -68.3L-15.2 -69.7L-11.8 -70.9L-8.3 -72.0L-4.7 -72.9L-1.0 -73.6L2.7 -74.1L6.5 -74.4L10.3 -74.5L14.1 -74.5L18.0 -74.2L21.8 -73.7L25.7 -73.1L29.6 -72.2L29.5 -72.2L25.5 -73.1L21.5 -73.8L17.5 -74.3L13.6 -74.6L9.6 -74.6L5.7 -74.5L1.8 -74.1L-2.0 -73.5L-5.8 -72.8L-9.5 -71.8L-13.1 -70.7L-16.7 -69.4L-20.1 -67.9L-23.4 -66.2L-26.6 -64.4L-29.7 -62.4L-32.6 -60.3L-35.4 -58.0ZM-31.6 -60.2L-28.7 -62.2L-25.8 -64.1L-22.7 -65.9L-19.5 -67.5L-16.3 -68.9L-12.9 -70.2L-9.4 -71.3L-5.9 -72.2L-2.3 -73.0L1.4 -73.5L5.2 -73.9L8.9 -74.1L12.7 -74.1L16.6 -73.9L20.4 -73.6L24.3 -73.0L28.1 -72.2L31.9 -71.2L31.8 -71.2L27.9 -72.2L24.0 -73.1L20.0 -73.7L16.0 -74.1L12.1 -74.2L8.1 -74.2L4.2 -74.0L0.4 -73.6L-3.4 -72.9L-7.1 -72.1L-10.8 -71.1L-14.4 -69.9L-17.8 -68.5L-21.2 -67.0L-24.5 -65.2L-27.6 -63.4L-30.6 -61.3L-33.5 -59.2ZM-29.6 -61.3L-26.7 -63.2L-23.7 -64.9L-20.5 -66.6L-17.3 -68.1L-14.0 -69.4L-10.6 -70.6L-7.1 -71.5L-3.5 -72.4L0.2 -73.0L3.9 -73.5L7.6 -73.7L11.4 -73.8L15.2 -73.7L19.0 -73.4L22.8 -72.8L26.7 -72.1L30.5 -71.2L34.3 -70.1L34.2 -70.1L30.3 -71.3L26.4 -72.2L22.4 -73.0L18.5 -73.5L14.5 -73.8L10.6 -73.9L6.7 -73.8L2.8 -73.5L-1.0 -73.0L-4.7 -72.3L-8.4 -71.4L-12.0 -70.3L-15.6 -69.1L-19.0 -67.6L-22.3 -66.0L-25.5 -64.2L-28.6 -62.3L-31.5 -60.3ZM-27.5 -62.2L-24.6 -64.0L-21.5 -65.7L-18.3 -67.2L-15.0 -68.6L-11.7 -69.8L-8.2 -70.9L-4.7 -71.7L-1.1 -72.4L2.6 -73.0L6.3 -73.3L10.0 -73.4L13.8 -73.4L17.6 -73.1L21.4 -72.7L25.2 -72.0L29.0 -71.2L32.8 -70.1L36.6 -68.9L36.5 -68.9L32.6 -70.2L28.7 -71.3L24.8 -72.2L20.9 -72.8L16.9 -73.3L13.0 -73.5L9.1 -73.5L5.2 -73.4L1.4 -73.0L-2.4 -72.4L-6.1 -71.6L-9.7 -70.7L-13.3 -69.5L-16.7 -68.2L-20.1 -66.7L-23.4 -65.1L-26.5 -63.2L-29.5 -61.3ZM-25.4 -63.1L-22.4 -64.8L-19.3 -66.4L-16.1 -67.8L-12.8 -69.1L-9.4 -70.2L-5.9 -71.1L-2.3 -71.9L1.3 -72.4L5.0 -72.8L8.7 -73.0L12.5 -73.1L16.2 -72.9L20.0 -72.5L23.8 -71.9L27.6 -71.2L31.4 -70.2L35.1 -69.0L38.8 -67.6L38.7 -67.7L34.9 -69.1L31.1 -70.3L27.2 -71.3L23.3 -72.1L19.4 -72.7L15.4 -73.1L11.5 -73.2L7.7 -73.2L3.8 -72.9L0.0 -72.4L-3.7 -71.8L-7.4 -71.0L-11.0 -69.9L-14.5 -68.7L-17.9 -67.3L-21.2 -65.8L-24.4 -64.1L-27.5 -62.2ZM-23.3 -63.9L-20.3 -65.5L-17.1 -67.0L-13.9 -68.4L-10.5 -69.6L-7.1 -70.6L-3.5 -71.5L0.1 -72.1L3.7 -72.6L7.4 -73.0L11.2 -73.1L14.9 -73.0L18.7 -72.7L22.5 -72.3L26.4 -71.6L30.2 -70.7L33.9 -69.6L37.7 -68.4L41.4 -66.9L41.3 -66.9L37.5 -68.5L33.6 -69.8L29.7 -70.9L25.8 -71.8L21.9 -72.5L18.0 -72.9L14.0 -73.2L10.1 -73.2L6.3 -73.1L2.4 -72.7L-1.3 -72.1L-5.0 -71.4L-8.7 -70.4L-12.2 -69.3L-15.7 -68.0L-19.0 -66.5L-22.3 -64.9L-25.4 -63.1ZM-21.2 -64.6L-18.2 -66.4L-15.0 -68.0L-11.7 -69.4L-8.3 -70.7L-4.8 -71.8L-1.2 -72.7L2.5 -73.5L6.2 -74.1L10.0 -74.4L13.9 -74.6L17.8 -74.6L21.8 -74.3L25.8 -73.9L29.7 -73.2L33.7 -72.4L37.7 -71.3L41.6 -70.0L45.5 -68.4L45.5 -68.5L41.4 -70.1L37.4 -71.4L33.3 -72.6L29.2 -73.5L25.1 -74.1L21.0 -74.6L16.9 -74.8L12.9 -74.8L8.9 -74.6L5.0 -74.2L1.1 -73.5L-2.7 -72.7L-6.4 -71.7L-10.0 -70.5L-13.5 -69.1L-16.9 -67.5L-20.2 -65.8L-23.3 -63.9ZM-19.1 -65.3L-16.1 -67.3L-12.9 -69.2L-9.6 -70.9L-6.1 -72.5L-2.5 -73.9L1.2 -75.1L5.1 -76.1L9.0 -77.0L13.1 -77.6L17.2 -78.0L21.4 -78.1L25.7 -78.1L30.0 -77.8L34.4 -77.3L38.8 -76.5L43.2 -75.5L47.5 -74.2L51.9 -72.7L51.8 -72.7L47.4 -74.3L42.9 -75.7L38.4 -76.7L33.9 -77.5L29.4 -78.1L24.9 -78.3L20.5 -78.4L16.2 -78.2L11.9 -77.8L7.8 -77.1L3.7 -76.2L-0.3 -75.1L-4.1 -73.8L-7.8 -72.3L-11.4 -70.6L-14.8 -68.8L-18.1 -66.8L-21.2 -64.6ZM-16.9 -65.9L-14.0 -68.4L-10.8 -70.7L-7.4 -72.9L-3.9 -75.0L-0.1 -76.9L3.8 -78.5L8.0 -80.0L12.2 -81.3L16.6 -82.3L21.2 -83.1L25.9 -83.6L30.6 -83.8L35.5 -83.8L40.5 -83.5L45.5 -82.9L50.5 -82.0L55.6 -80.8L60.7 -79.3L60.6 -79.4L55.4 -81.0L50.3 -82.2L45.1 -83.1L40.0 -83.8L34.9 -84.1L29.9 -84.1L25.0 -83.8L20.2 -83.3L15.5 -82.5L11.0 -81.4L6.6 -80.1L2.3 -78.6L-1.7 -76.8L-5.6 -74.9L-9.3 -72.7L-12.7 -70.4L-16.0 -67.9L-19.0 -65.3ZM-14.7 -66.4L-11.8 -69.5L-8.6 -72.5L-5.2 -75.4L-1.5 -78.1L2.5 -80.6L6.8 -82.8L11.2 -84.9L15.9 -86.7L20.9 -88.3L26.0 -89.5L31.3 -90.5L36.7 -91.1L42.3 -91.4L48.1 -91.4L53.9 -91.0L59.8 -90.3L65.8 -89.2L71.8 -87.7L71.7 -87.8L65.6 -89.3L59.5 -90.5L53.5 -91.3L47.6 -91.7L41.7 -91.7L36.0 -91.4L30.4 -90.8L25.0 -89.8L19.7 -88.5L14.7 -86.9L9.9 -85.1L5.3 -83.0L0.9 -80.6L-3.2 -78.0L-7.0 -75.2L-10.6 -72.3L-13.9 -69.2L-16.9 -65.9ZM-12.5 -66.8L-9.6 -70.7L-6.4 -74.5L-2.8 -78.1L1.1 -81.5L5.4 -84.7L10.0 -87.7L15.0 -90.4L20.2 -92.9L25.7 -95.0L31.5 -96.8L37.6 -98.2L43.8 -99.3L50.3 -100.0L57.0 -100.2L63.8 -100.1L70.7 -99.5L77.8 -98.4L84.9 -96.9L84.8 -97.0L77.6 -98.6L70.4 -99.7L63.4 -100.3L56.5 -100.5L49.7 -100.3L43.1 -99.6L36.7 -98.5L30.6 -97.1L24.6 -95.3L19.0 -93.1L13.6 -90.6L8.5 -87.9L3.8 -84.8L-0.6 -81.5L-4.7 -78.0L-8.4 -74.3L-11.7 -70.4L-14.7 -66.4ZM-10.3 -67.2L-7.4 -71.9L-4.1 -76.5L-0.3 -80.9L4.0 -85.0L8.6 -89.0L13.7 -92.7L19.2 -96.1L25.0 -99.2L31.2 -101.9L37.8 -104.2L44.6 -106.1L51.8 -107.6L59.2 -108.6L66.8 -109.1L74.7 -109.1L82.7 -108.6L90.9 -107.6L99.1 -105.9L99.1 -106.0L90.7 -107.7L82.4 -108.8L74.3 -109.4L66.4 -109.4L58.6 -108.9L51.1 -107.9L43.8 -106.5L36.8 -104.5L30.1 -102.2L23.8 -99.5L17.8 -96.4L12.2 -92.9L7.0 -89.1L2.2 -85.1L-2.1 -80.8L-6.0 -76.3L-9.5 -71.7L-12.5 -66.9ZM-8.1 -67.5L-5.1 -73.0L-1.6 -78.3L2.5 -83.4L7.0 -88.4L12.1 -93.0L17.6 -97.4L23.7 -101.4L30.2 -105.0L37.1 -108.3L44.4 -111.1L52.1 -113.4L60.2 -115.2L68.5 -116.4L77.2 -117.1L86.0 -117.2L95.1 -116.7L104.4 -115.6L113.7 -113.8L113.7 -113.8L104.2 -115.7L94.9 -116.9L85.7 -117.5L76.7 -117.4L67.9 -116.8L59.4 -115.5L51.3 -113.7L43.4 -111.4L36.0 -108.6L28.9 -105.4L22.3 -101.7L16.2 -97.6L10.5 -93.2L5.3 -88.5L0.6 -83.5L-3.6 -78.2L-7.2 -72.8L-10.2 -67.2ZM-5.8 -67.8L-2.7 -73.9L1.0 -79.9L5.3 -85.7L10.2 -91.2L15.7 -96.4L21.8 -101.3L28.4 -105.8L35.5 -109.9L43.1 -113.6L51.2 -116.7L59.6 -119.3L68.5 -121.3L77.7 -122.7L87.3 -123.4L97.1 -123.5L107.1 -122.9L117.3 -121.6L127.7 -119.5L127.6 -119.6L117.2 -121.7L106.9 -123.1L96.7 -123.8L86.8 -123.7L77.1 -123.0L67.8 -121.7L58.8 -119.7L50.2 -117.1L42.0 -114.0L34.3 -110.3L27.1 -106.2L20.3 -101.6L14.1 -96.7L8.5 -91.4L3.5 -85.8L-1.0 -79.9L-4.8 -73.8L-8.0 -67.5ZM-3.6 -67.9L-0.3 -74.6L3.7 -81.0L8.3 -87.3L13.6 -93.2L19.5 -98.9L26.0 -104.1L33.1 -109.0L40.8 -113.3L48.9 -117.2L57.6 -120.5L66.8 -123.2L76.3 -125.3L86.2 -126.7L96.5 -127.4L107.0 -127.3L117.8 -126.5L128.8 -124.9L139.9 -122.6L139.8 -122.6L128.7 -125.1L117.6 -126.8L106.7 -127.6L96.0 -127.7L85.7 -127.0L75.6 -125.7L65.9 -123.6L56.7 -120.9L47.9 -117.6L39.6 -113.8L31.8 -109.4L24.6 -104.5L17.9 -99.2L11.9 -93.5L6.5 -87.4L1.7 -81.1L-2.4 -74.5L-5.8 -67.8ZM-1.3 -68.0L2.2 -74.9L6.4 -81.7L11.3 -88.2L16.9 -94.3L23.2 -100.1L30.1 -105.5L37.6 -110.5L45.7 -114.9L54.3 -118.8L63.4 -122.1L73.0 -124.7L83.0 -126.7L93.4 -128.0L104.2 -128.5L115.2 -128.2L126.5 -127.1L137.9 -125.2L149.5 -122.5L149.4 -122.5L137.8 -125.4L126.2 -127.4L114.9 -128.5L103.7 -128.8L92.9 -128.4L82.4 -127.1L72.2 -125.2L62.5 -122.6L53.2 -119.3L44.5 -115.4L36.3 -110.9L28.6 -105.9L21.6 -100.5L15.2 -94.6L9.5 -88.4L4.5 -81.8L0.1 -75.0L-3.5 -67.9ZM0.9 -68.0L4.7 -75.0L9.1 -81.7L14.3 -88.2L20.2 -94.3L26.7 -100.1L33.8 -105.4L41.6 -110.2L49.9 -114.5L58.8 -118.2L68.2 -121.3L78.0 -123.7L88.2 -125.4L98.8 -126.4L109.8 -126.6L121.0 -126.0L132.4 -124.5L144.0 -122.3L155.6 -119.1L155.6 -119.2L143.8 -122.4L132.2 -124.8L120.7 -126.3L109.3 -126.9L98.3 -126.8L87.6 -125.9L77.2 -124.2L67.3 -121.8L57.8 -118.7L48.8 -115.0L40.3 -110.7L32.4 -105.8L25.1 -100.5L18.5 -94.7L12.5 -88.5L7.2 -81.9L2.6 -75.1L-1.3 -68.0ZM3.2 -67.9L7.1 -74.7L11.8 -81.2L17.2 -87.3L23.2 -93.2L29.8 -98.6L37.1 -103.6L44.9 -108.0L53.3 -112.0L62.2 -115.3L71.6 -118.0L81.4 -120.0L91.5 -121.4L102.1 -121.9L112.9 -121.7L123.9 -120.8L135.1 -118.9L146.5 -116.3L157.9 -112.8L157.8 -112.9L146.3 -116.5L134.9 -119.2L123.6 -121.1L112.4 -122.1L101.5 -122.4L90.9 -121.8L80.6 -120.5L70.7 -118.5L61.2 -115.8L52.2 -112.5L43.6 -108.6L35.7 -104.1L28.3 -99.1L21.5 -93.6L15.3 -87.7L9.9 -81.4L5.1 -74.8L1.0 -68.0ZM5.4 -67.8L9.6 -74.0L14.4 -80.0L19.8 -85.7L25.9 -91.0L32.5 -95.8L39.7 -100.3L47.4 -104.2L55.7 -107.6L64.3 -110.4L73.5 -112.5L83.0 -114.1L92.8 -114.9L102.9 -115.0L113.3 -114.3L123.8 -112.9L134.5 -110.7L145.3 -107.7L156.1 -103.9L156.0 -104.0L145.2 -107.9L134.3 -111.0L123.5 -113.3L112.9 -114.7L102.4 -115.4L92.2 -115.4L82.2 -114.6L72.6 -113.1L63.4 -110.9L54.5 -108.1L46.2 -104.8L38.3 -100.8L31.0 -96.3L24.2 -91.4L18.0 -86.1L12.4 -80.3L7.5 -74.3L3.2 -67.9ZM7.6 -67.6L11.9 -73.1L16.8 -78.3L22.2 -83.3L28.2 -87.8L34.6 -92.0L41.6 -95.7L49.1 -98.9L56.9 -101.6L65.2 -103.7L73.8 -105.3L82.8 -106.2L92.0 -106.4L101.4 -106.0L111.1 -104.9L120.8 -103.1L130.7 -100.5L140.6 -97.2L150.5 -93.1L150.5 -93.2L140.5 -97.4L130.5 -100.8L120.5 -103.4L110.7 -105.3L100.9 -106.5L91.4 -107.0L82.0 -106.7L73.0 -105.8L64.2 -104.3L55.8 -102.2L47.8 -99.5L40.2 -96.3L33.1 -92.5L26.5 -88.3L20.4 -83.7L14.8 -78.7L9.9 -73.4L5.5 -67.8ZM9.9 -67.3L14.2 -71.9L19.0 -76.3L24.3 -80.3L30.1 -84.0L36.2 -87.3L42.8 -90.1L49.8 -92.5L57.1 -94.5L64.8 -95.8L72.7 -96.7L80.9 -97.0L89.3 -96.7L97.9 -95.7L106.5 -94.2L115.3 -91.9L124.1 -89.1L132.9 -85.5L141.7 -81.3L141.7 -81.4L132.8 -85.7L123.9 -89.3L115.0 -92.3L106.2 -94.6L97.4 -96.2L88.7 -97.2L80.2 -97.6L71.9 -97.3L63.8 -96.5L56.1 -95.1L48.6 -93.2L41.5 -90.8L34.7 -87.9L28.4 -84.6L22.5 -80.8L17.1 -76.7L12.1 -72.3L7.7 -67.6ZM12.1 -66.9L16.4 -70.6L21.1 -73.9L26.1 -77.0L31.6 -79.7L37.4 -82.1L43.4 -84.0L49.8 -85.6L56.5 -86.7L63.4 -87.3L70.5 -87.5L77.8 -87.1L85.2 -86.2L92.7 -84.8L100.3 -82.8L107.9 -80.3L115.5 -77.2L123.1 -73.5L130.6 -69.3L130.5 -69.4L123.0 -73.7L115.3 -77.5L107.6 -80.7L99.9 -83.3L92.2 -85.3L84.6 -86.8L77.1 -87.7L69.7 -88.1L62.5 -88.0L55.4 -87.4L48.6 -86.3L42.1 -84.7L35.9 -82.7L30.0 -80.3L24.4 -77.6L19.2 -74.4L14.3 -71.0L9.9 -67.3ZM14.3 -66.5L18.5 -69.1L23.0 -71.5L27.7 -73.5L32.8 -75.3L38.1 -76.7L43.6 -77.8L49.3 -78.5L55.2 -78.8L61.3 -78.7L67.5 -78.2L73.8 -77.3L80.1 -75.9L86.5 -74.0L93.0 -71.7L99.4 -68.9L105.7 -65.7L112.0 -62.0L118.2 -57.8L118.1 -57.9L111.9 -62.2L105.5 -66.0L99.1 -69.3L92.6 -72.2L86.1 -74.5L79.6 -76.5L73.1 -77.9L66.7 -78.9L60.4 -79.4L54.2 -79.5L48.1 -79.2L42.3 -78.5L36.6 -77.4L31.2 -76.0L26.0 -74.2L21.1 -72.0L16.5 -69.6L12.1 -66.9ZM16.5 -66.0L20.5 -67.6L24.8 -69.0L29.2 -70.2L33.8 -71.0L38.6 -71.6L43.5 -71.8L48.5 -71.7L53.6 -71.3L58.9 -70.6L64.1 -69.5L69.5 -68.0L74.8 -66.2L80.1 -64.0L85.4 -61.5L90.6 -58.5L95.8 -55.2L100.8 -51.5L105.7 -47.4L105.7 -47.5L100.7 -51.7L95.6 -55.5L90.4 -58.9L85.1 -61.9L79.7 -64.6L74.3 -66.8L68.8 -68.7L63.4 -70.2L58.0 -71.3L52.6 -72.1L47.4 -72.5L42.2 -72.6L37.1 -72.3L32.2 -71.7L27.5 -70.8L22.9 -69.7L18.5 -68.2L14.3 -66.5ZM18.7 -65.4L22.5 -66.2L26.5 -66.7L30.6 -67.0L34.7 -67.1L39.0 -66.9L43.3 -66.4L47.7 -65.7L52.1 -64.7L56.6 -63.4L61.0 -61.8L65.4 -60.0L69.8 -57.8L74.2 -55.3L78.4 -52.6L82.6 -49.5L86.7 -46.2L90.6 -42.5L94.4 -38.6L94.3 -38.7L90.5 -42.7L86.5 -46.5L82.4 -49.9L78.1 -53.0L73.8 -55.9L69.3 -58.4L64.8 -60.6L60.3 -62.6L55.7 -64.2L51.1 -65.5L46.6 -66.5L42.1 -67.3L37.6 -67.7L33.2 -67.9L28.9 -67.8L24.6 -67.4L20.5 -66.8L16.5 -66.0ZM20.8 -64.7L24.5 -64.8L28.2 -64.7L32.0 -64.3L35.8 -63.7L39.6 -62.9L43.4 -61.9L47.2 -60.7L51.1 -59.2L54.8 -57.5L58.6 -55.5L62.3 -53.3L65.9 -50.9L69.4 -48.2L72.8 -45.4L76.1 -42.2L79.3 -38.9L82.3 -35.4L85.2 -31.6L85.1 -31.7L82.2 -35.6L79.1 -39.2L75.9 -42.6L72.5 -45.8L69.0 -48.8L65.4 -51.5L61.7 -54.0L57.9 -56.3L54.0 -58.2L50.1 -60.0L46.1 -61.5L42.2 -62.8L38.2 -63.8L34.2 -64.6L30.3 -65.1L26.4 -65.4L22.5 -65.5L18.7 -65.4ZM22.9 -64.0L26.4 -63.6L30.0 -62.9L33.5 -62.1L37.0 -61.0L40.5 -59.8L43.9 -58.4L47.3 -56.8L50.7 -54.9L54.0 -52.9L57.2 -50.7L60.3 -48.3L63.4 -45.7L66.3 -42.9L69.1 -39.9L71.8 -36.8L74.3 -33.4L76.7 -30.0L78.9 -26.3L78.8 -26.4L76.6 -30.2L74.1 -33.7L71.6 -37.2L68.8 -40.4L65.9 -43.4L62.9 -46.3L59.8 -49.0L56.5 -51.4L53.2 -53.7L49.7 -55.8L46.3 -57.6L42.7 -59.3L39.1 -60.7L35.5 -61.9L31.8 -62.9L28.2 -63.7L24.5 -64.3L20.9 -64.7ZM25.0 -63.2L28.4 -62.5L31.8 -61.5L35.2 -60.3L38.5 -59.0L41.7 -57.5L45.0 -55.8L48.1 -53.9L51.2 -51.9L54.2 -49.7L57.1 -47.3L59.9 -44.7L62.6 -42.0L65.1 -39.1L67.5 -36.1L69.8 -32.9L72.0 -29.6L73.9 -26.1L75.7 -22.5L75.7 -22.6L73.9 -26.3L71.8 -29.9L69.6 -33.3L67.3 -36.6L64.8 -39.7L62.1 -42.7L59.3 -45.4L56.4 -48.1L53.4 -50.5L50.3 -52.8L47.1 -54.9L43.8 -56.7L40.4 -58.4L37.0 -59.9L33.6 -61.3L30.1 -62.4L26.5 -63.3L23.0 -64.0ZM27.1 -62.4L30.5 -61.4L33.8 -60.3L37.0 -59.0L40.3 -57.5L43.5 -55.9L46.6 -54.0L49.6 -52.0L52.6 -49.9L55.4 -47.5L58.2 -45.0L60.8 -42.4L63.3 -39.5L65.7 -36.6L68.0 -33.5L70.1 -30.2L72.0 -26.9L73.8 -23.4L75.5 -19.8L75.4 -19.9L73.8 -23.6L71.9 -27.2L69.9 -30.6L67.7 -34.0L65.4 -37.2L62.9 -40.2L60.3 -43.1L57.5 -45.8L54.7 -48.4L51.7 -50.8L48.6 -53.0L45.4 -55.0L42.2 -56.9L38.8 -58.5L35.5 -60.0L32.0 -61.2L28.6 -62.3L25.1 -63.2ZM29.2 -61.4L32.5 -60.4L35.7 -59.2L39.0 -57.7L42.2 -56.2L45.3 -54.4L48.3 -52.5L51.3 -50.4L54.2 -48.1L57.0 -45.7L59.6 -43.1L62.2 -40.3L64.6 -37.4L66.9 -34.4L69.1 -31.2L71.1 -27.9L72.9 -24.5L74.6 -20.9L76.1 -17.3L76.0 -17.3L74.5 -21.1L72.8 -24.8L70.9 -28.3L68.8 -31.7L66.6 -35.0L64.2 -38.1L61.7 -41.1L59.0 -43.9L56.2 -46.6L53.3 -49.0L50.3 -51.3L47.2 -53.5L44.0 -55.4L40.8 -57.2L37.4 -58.8L34.1 -60.1L30.6 -61.3L27.2 -62.3ZM31.2 -60.4L34.5 -59.3L37.7 -57.9L40.9 -56.4L44.0 -54.7L47.1 -52.9L50.0 -50.8L52.9 -48.6L55.7 -46.3L58.4 -43.8L61.0 -41.1L63.5 -38.2L65.8 -35.3L68.0 -32.1L70.1 -28.9L71.9 -25.5L73.7 -22.0L75.2 -18.4L76.6 -14.7L76.6 -14.8L75.2 -18.6L73.6 -22.4L71.8 -26.0L69.8 -29.4L67.7 -32.8L65.4 -36.0L63.0 -39.0L60.4 -41.9L57.7 -44.7L54.9 -47.2L52.0 -49.7L49.0 -51.9L45.8 -53.9L42.6 -55.8L39.4 -57.5L36.0 -59.0L32.6 -60.3L29.2 -61.4ZM33.2 -59.4L36.4 -58.1L39.6 -56.7L42.7 -55.0L45.8 -53.3L48.8 -51.3L51.7 -49.2L54.5 -46.9L57.2 -44.4L59.9 -41.8L62.3 -39.0L64.7 -36.1L66.9 -33.1L69.0 -29.9L71.0 -26.6L72.7 -23.1L74.4 -19.6L75.8 -15.9L77.0 -12.2L77.0 -12.3L75.7 -16.1L74.3 -19.9L72.6 -23.6L70.8 -27.1L68.8 -30.5L66.6 -33.8L64.3 -36.9L61.8 -39.9L59.2 -42.7L56.5 -45.4L53.6 -47.9L50.6 -50.2L47.6 -52.4L44.5 -54.4L41.2 -56.2L38.0 -57.8L34.6 -59.2L31.2 -60.4ZM35.1 -58.2L38.3 -56.9L41.4 -55.3L44.5 -53.6L47.5 -51.7L50.4 -49.7L53.3 -47.4L56.0 -45.0L58.7 -42.5L61.2 -39.8L63.6 -37.0L65.9 -34.0L68.0 -30.8L70.0 -27.6L71.8 -24.2L73.5 -20.7L75.0 -17.1L76.3 -13.4L77.4 -9.6L77.4 -9.7L76.2 -13.6L74.9 -17.4L73.3 -21.1L71.6 -24.7L69.7 -28.2L67.7 -31.6L65.4 -34.8L63.1 -37.8L60.6 -40.8L57.9 -43.5L55.2 -46.1L52.3 -48.5L49.3 -50.8L46.2 -52.9L43.1 -54.8L39.8 -56.5L36.6 -58.0L33.2 -59.3ZM37.0 -57.1L40.2 -55.6L43.2 -53.9L46.3 -52.1L49.2 -50.1L52.1 -48.0L54.8 -45.6L57.5 -43.2L60.0 -40.5L62.5 -37.8L64.8 -34.8L67.0 -31.8L69.0 -28.6L70.9 -25.3L72.6 -21.8L74.1 -18.3L75.5 -14.6L76.7 -10.9L77.7 -7.1L77.7 -7.2L76.6 -11.1L75.4 -15.0L74.0 -18.7L72.4 -22.4L70.6 -25.9L68.7 -29.3L66.6 -32.6L64.3 -35.7L61.9 -38.7L59.3 -41.6L56.7 -44.3L53.9 -46.8L51.0 -49.1L47.9 -51.3L44.9 -53.3L41.7 -55.1L38.4 -56.8L35.2 -58.2ZM38.9 -55.8L42.0 -54.2L45.0 -52.5L48.0 -50.5L50.8 -48.5L53.6 -46.2L56.3 -43.8L58.9 -41.2L61.4 -38.5L63.7 -35.7L65.9 -32.7L68.0 -29.5L69.9 -26.3L71.7 -22.9L73.3 -19.4L74.7 -15.8L75.9 -12.1L77.0 -8.4L77.9 -4.5L77.9 -4.6L77.0 -8.6L75.9 -12.5L74.6 -16.3L73.1 -20.0L71.4 -23.5L69.6 -27.0L67.6 -30.4L65.4 -33.6L63.1 -36.7L60.7 -39.6L58.1 -42.4L55.4 -45.0L52.5 -47.4L49.6 -49.7L46.6 -51.8L43.5 -53.7L40.3 -55.5L37.1 -57.0ZM40.7 -54.5L43.7 -52.8L46.7 -50.9L49.6 -48.9L52.4 -46.8L55.1 -44.4L57.7 -41.9L60.2 -39.3L62.6 -36.5L64.8 -33.5L66.9 -30.5L68.9 -27.3L70.7 -24.0L72.4 -20.5L73.9 -17.0L75.2 -13.3L76.3 -9.6L77.2 -5.8L78.0 -1.9L78.0 -2.0L77.2 -6.0L76.2 -9.9L75.1 -13.8L73.7 -17.5L72.2 -21.2L70.5 -24.7L68.6 -28.1L66.5 -31.4L64.3 -34.6L61.9 -37.6L59.5 -40.4L56.8 -43.1L54.1 -45.7L51.2 -48.0L48.3 -50.2L45.2 -52.3L42.1 -54.1L38.9 -55.8ZM42.5 -53.1L45.5 -51.3L48.4 -49.4L51.2 -47.3L53.9 -45.0L56.6 -42.6L59.1 -40.0L61.5 -37.3L63.8 -34.4L65.9 -31.4L67.9 -28.2L69.8 -25.0L71.5 -21.6L73.0 -18.1L74.4 -14.5L75.6 -10.8L76.6 -7.1L77.4 -3.2L78.0 0.7L78.0 0.6L77.4 -3.5L76.5 -7.4L75.5 -11.3L74.3 -15.1L72.8 -18.8L71.2 -22.4L69.5 -25.8L67.5 -29.2L65.4 -32.4L63.2 -35.5L60.8 -38.4L58.2 -41.2L55.6 -43.8L52.8 -46.3L49.9 -48.6L46.9 -50.7L43.9 -52.7L40.7 -54.5ZM44.2 -51.7L47.1 -49.8L50.0 -47.8L52.7 -45.5L55.4 -43.2L57.9 -40.7L60.4 -38.0L62.7 -35.2L64.9 -32.3L66.9 -29.2L68.8 -26.0L70.6 -22.7L72.2 -19.2L73.6 -15.7L74.8 -12.1L75.9 -8.3L76.8 -4.5L77.4 -0.7L77.9 3.2L77.9 3.1L77.4 -0.9L76.7 -4.9L75.8 -8.8L74.7 -12.6L73.4 -16.4L71.9 -20.0L70.3 -23.5L68.4 -26.9L66.4 -30.2L64.3 -33.4L62.0 -36.4L59.6 -39.3L57.0 -42.0L54.3 -44.5L51.5 -46.9L48.6 -49.2L45.6 -51.2L42.5 -53.1ZM45.9 -50.2L48.8 -48.2L51.5 -46.1L54.2 -43.8L56.8 -41.3L59.2 -38.7L61.6 -36.0L63.8 -33.1L65.9 -30.1L67.8 -27.0L69.6 -23.7L71.3 -20.3L72.7 -16.8L74.0 -13.2L75.2 -9.6L76.1 -5.8L76.9 -2.0L77.4 1.9L77.8 5.8L77.8 5.7L77.4 1.7L76.9 -2.3L76.1 -6.3L75.1 -10.1L73.9 -13.9L72.6 -17.6L71.0 -21.2L69.3 -24.7L67.4 -28.0L65.4 -31.2L63.2 -34.3L60.8 -37.3L58.3 -40.1L55.7 -42.7L53.0 -45.2L50.2 -47.5L47.3 -49.7L44.3 -51.6ZM47.5 -48.6L50.3 -46.6L53.0 -44.3L55.6 -42.0L58.1 -39.4L60.5 -36.8L62.7 -33.9L64.9 -31.0L66.9 -27.9L68.7 -24.7L70.4 -21.4L71.9 -17.9L73.3 -14.4L74.4 -10.8L75.4 -7.1L76.3 -3.3L76.9 0.5L77.3 4.4L77.5 8.4L77.6 8.3L77.3 4.2L76.9 0.2L76.2 -3.8L75.4 -7.7L74.3 -11.5L73.1 -15.2L71.7 -18.8L70.1 -22.4L68.3 -25.8L66.4 -29.1L64.3 -32.2L62.0 -35.2L59.6 -38.1L57.1 -40.9L54.5 -43.4L51.7 -45.8L48.9 -48.1L45.9 -50.1ZM49.1 -47.0L51.8 -44.9L54.5 -42.6L57.0 -40.1L59.4 -37.5L61.7 -34.7L63.8 -31.8L65.9 -28.8L67.7 -25.7L69.5 -22.4L71.1 -19.0L72.5 -15.6L73.7 -12.0L74.8 -8.3L75.6 -4.6L76.3 -0.8L76.8 3.1L77.1 7.0L77.2 10.9L77.2 10.8L77.1 6.8L76.8 2.7L76.3 -1.2L75.6 -5.2L74.7 -9.0L73.6 -12.8L72.3 -16.5L70.8 -20.0L69.1 -23.5L67.3 -26.9L65.3 -30.1L63.2 -33.2L60.9 -36.1L58.4 -38.9L55.9 -41.6L53.2 -44.1L50.4 -46.4L47.6 -48.6ZM50.6 -45.4L53.3 -43.1L55.8 -40.7L58.3 -38.2L60.6 -35.5L62.8 -32.7L64.9 -29.7L66.8 -26.6L68.6 -23.4L70.2 -20.1L71.6 -16.7L72.9 -13.2L74.1 -9.5L75.0 -5.8L75.7 -2.1L76.3 1.7L76.7 5.6L76.9 9.5L76.8 13.5L76.8 13.4L76.9 9.3L76.7 5.3L76.3 1.3L75.7 -2.7L74.9 -6.5L73.9 -10.3L72.8 -14.1L71.4 -17.7L69.9 -21.2L68.1 -24.6L66.3 -27.9L64.2 -31.1L62.0 -34.1L59.7 -37.0L57.2 -39.7L54.7 -42.3L52.0 -44.7L49.2 -47.0ZM52.1 -43.7L54.7 -41.4L57.2 -38.9L59.5 -36.2L61.7 -33.5L63.8 -30.6L65.8 -27.6L67.6 -24.4L69.3 -21.1L70.8 -17.8L72.2 -14.3L73.3 -10.7L74.3 -7.1L75.1 -3.4L75.8 0.4L76.2 4.3L76.5 8.1L76.5 12.1L76.3 16.0L76.4 15.9L76.5 11.9L76.5 7.8L76.2 3.8L75.8 -0.1L75.1 -4.0L74.3 -7.9L73.2 -11.6L71.9 -15.3L70.5 -18.9L68.9 -22.4L67.1 -25.7L65.2 -28.9L63.1 -32.0L60.9 -35.0L58.5 -37.8L56.0 -40.5L53.4 -43.0L50.7 -45.3ZM53.5 -41.9L56.0 -39.5L58.4 -37.0L60.7 -34.3L62.8 -31.4L64.8 -28.5L66.7 -25.4L68.4 -22.2L70.0 -18.8L71.4 -15.4L72.6 -11.9L73.6 -8.3L74.5 -4.6L75.2 -0.9L75.7 2.9L76.0 6.8L76.1 10.7L76.1 14.6L75.8 18.5L75.8 18.4L76.1 14.4L76.2 10.3L76.1 6.3L75.7 2.4L75.2 -1.6L74.5 -5.4L73.5 -9.2L72.4 -12.9L71.1 -16.5L69.6 -20.1L68.0 -23.5L66.1 -26.8L64.1 -29.9L62.0 -33.0L59.7 -35.9L57.3 -38.6L54.8 -41.2L52.2 -43.6ZM54.9 -40.1L57.3 -37.7L59.6 -35.0L61.8 -32.2L63.8 -29.3L65.7 -26.3L67.5 -23.1L69.1 -19.9L70.5 -16.5L71.8 -13.1L72.9 -9.5L73.9 -5.9L74.6 -2.2L75.2 1.6L75.6 5.4L75.8 9.3L75.8 13.2L75.5 17.1L75.1 21.0L75.1 20.9L75.6 16.9L75.8 12.9L75.8 8.8L75.6 4.9L75.2 0.9L74.6 -3.0L73.8 -6.8L72.8 -10.5L71.6 -14.2L70.2 -17.7L68.7 -21.2L67.0 -24.6L65.1 -27.8L63.1 -30.9L60.9 -33.9L58.6 -36.7L56.1 -39.4L53.6 -41.9ZM56.2 -38.3L58.5 -35.7L60.7 -33.0L62.8 -30.2L64.7 -27.2L66.5 -24.1L68.2 -20.9L69.7 -17.6L71.0 -14.2L72.2 -10.7L73.2 -7.1L74.0 -3.4L74.7 0.3L75.1 4.1L75.4 7.9L75.4 11.8L75.3 15.7L74.9 19.6L74.4 23.5L74.4 23.4L75.0 19.4L75.3 15.4L75.5 11.3L75.4 7.4L75.1 3.4L74.7 -0.5L74.0 -4.3L73.1 -8.1L72.0 -11.8L70.8 -15.4L69.4 -18.9L67.8 -22.3L66.0 -25.6L64.1 -28.8L62.0 -31.8L59.8 -34.7L57.4 -37.5L54.9 -40.1ZM57.4 -36.4L59.7 -33.8L61.8 -31.0L63.8 -28.1L65.6 -25.0L67.3 -21.9L68.9 -18.6L70.3 -15.3L71.5 -11.8L72.5 -8.3L73.4 -4.7L74.1 -1.0L74.6 2.8L74.9 6.6L75.1 10.4L75.0 14.3L74.7 18.2L74.2 22.1L73.6 25.9L73.6 25.9L74.3 21.8L74.8 17.8L75.1 13.8L75.1 9.8L75.0 5.9L74.6 2.0L74.1 -1.9L73.3 -5.7L72.4 -9.4L71.3 -13.1L69.9 -16.6L68.5 -20.1L66.8 -23.4L65.0 -26.7L63.0 -29.8L60.9 -32.7L58.6 -35.6L56.2 -38.3ZM58.6 -34.5L60.7 -31.8L62.8 -28.9L64.7 -26.0L66.4 -22.9L68.0 -19.7L69.4 -16.3L70.7 -12.9L71.8 -9.4L72.8 -5.9L73.5 -2.2L74.1 1.5L74.5 5.2L74.7 9.0L74.7 12.9L74.5 16.7L74.1 20.6L73.5 24.5L72.7 28.4L72.7 28.3L73.5 24.3L74.2 20.3L74.6 16.3L74.8 12.3L74.8 8.4L74.5 4.4L74.1 0.6L73.5 -3.3L72.7 -7.0L71.7 -10.7L70.5 -14.3L69.1 -17.8L67.5 -21.2L65.8 -24.5L63.9 -27.7L61.9 -30.7L59.8 -33.6L57.5 -36.4ZM59.7 -32.6L61.8 -29.8L63.7 -26.8L65.5 -23.8L67.1 -20.7L68.6 -17.4L69.9 -14.0L71.1 -10.6L72.1 -7.1L72.9 -3.5L73.6 0.2L74.0 3.9L74.3 7.7L74.3 11.5L74.2 15.3L73.9 19.2L73.3 23.1L72.6 26.9L71.7 30.8L71.7 30.7L72.7 26.7L73.4 22.7L74.0 18.8L74.3 14.8L74.4 10.8L74.3 6.9L74.1 3.0L73.6 -0.8L72.9 -4.6L72.0 -8.3L70.9 -12.0L69.6 -15.5L68.2 -19.0L66.6 -22.3L64.8 -25.5L62.9 -28.6L60.8 -31.6L58.6 -34.5ZM60.8 -30.6L62.7 -27.7L64.5 -24.7L66.2 -21.6L67.8 -18.4L69.1 -15.1L70.4 -11.7L71.4 -8.2L72.3 -4.7L73.0 -1.1L73.5 2.6L73.8 6.4L74.0 10.2L73.9 14.0L73.7 17.8L73.2 21.6L72.5 25.5L71.7 29.3L70.6 33.1L70.7 33.0L71.8 29.1L72.7 25.2L73.3 21.2L73.8 17.2L74.0 13.3L74.1 9.4L73.9 5.5L73.5 1.6L73.0 -2.2L72.2 -5.9L71.2 -9.6L70.1 -13.2L68.8 -16.7L67.3 -20.1L65.6 -23.4L63.8 -26.6L61.8 -29.6L59.7 -32.5ZM61.7 -28.5L63.6 -25.6L65.3 -22.6L66.9 -19.4L68.3 -16.2L69.6 -12.8L70.7 -9.4L71.7 -5.9L72.4 -2.3L73.0 1.4L73.4 5.1L73.6 8.8L73.6 12.6L73.4 16.4L73.0 20.2L72.4 24.0L71.7 27.9L70.7 31.7L69.5 35.4L69.5 35.3L70.8 31.5L71.8 27.5L72.6 23.6L73.2 19.7L73.6 15.7L73.7 11.8L73.7 7.9L73.4 4.0L73.0 0.2L72.4 -3.6L71.5 -7.3L70.5 -10.9L69.3 -14.4L67.9 -17.9L66.4 -21.2L64.7 -24.4L62.8 -27.5L60.8 -30.5ZM62.6 -26.5L64.4 -23.5L66.0 -20.4L67.5 -17.2L68.8 -13.9L70.0 -10.5L71.0 -7.0L71.8 -3.5L72.4 0.1L72.9 3.8L73.2 7.5L73.3 11.2L73.1 15.0L72.8 18.8L72.3 22.6L71.6 26.4L70.7 30.2L69.6 34.0L68.3 37.7L68.3 37.6L69.7 33.8L70.8 29.9L71.8 26.0L72.5 22.1L73.0 18.2L73.3 14.2L73.4 10.3L73.3 6.5L73.0 2.6L72.4 -1.2L71.7 -4.9L70.8 -8.5L69.7 -12.1L68.5 -15.6L67.0 -19.0L65.4 -22.3L63.7 -25.4L61.8 -28.5ZM63.5 -24.4L65.2 -21.4L66.7 -18.2L68.1 -15.0L69.3 -11.6L70.3 -8.2L71.2 -4.7L71.9 -1.1L72.4 2.5L72.8 6.2L72.9 9.9L72.9 13.7L72.6 17.4L72.2 21.2L71.6 25.0L70.8 28.8L69.7 32.6L68.5 36.3L67.1 40.0L67.1 39.9L68.6 36.1L69.9 32.3L70.9 28.4L71.8 24.5L72.4 20.6L72.8 16.7L73.0 12.8L73.1 8.9L72.9 5.0L72.5 1.2L71.9 -2.5L71.1 -6.2L70.1 -9.8L69.0 -13.3L67.6 -16.8L66.1 -20.1L64.5 -23.3L62.7 -26.4Z" fill="#F4F4F4"/></svg>