<svg xmlns="http://www.w3.org/2000/svg" viewBox="0 0 32 32" width="32" height="32">
<title>RMH Deeplink</title>
<g>
<path d="M16.000 16.000 L2.719 8.403 A15.3 15.3 0 0 1 3.599 7.038 Z" fill="#4285f4"/>
<path d="M16.000 16.000 L3.528 7.138 A15.3 15.3 0 0 1 4.537 5.866 Z" fill="#3e8bf1"/>
<path d="M16.000 16.000 L4.457 5.958 A15.3 15.3 0 0 1 5.586 4.791 Z" fill="#3a90ee"/>
<path d="M16.000 16.000 L5.496 4.875 A15.3 15.3 0 0 1 6.735 3.825 Z" fill="#3696eb"/>
<path d="M16.000 16.000 L6.637 3.899 A15.3 15.3 0 0 1 7.973 2.975 Z" fill="#329ce8"/>
<path d="M16.000 16.000 L7.869 3.040 A15.3 15.3 0 0 1 9.288 2.251 Z" fill="#2da2e5"/>
<path d="M16.000 16.000 L9.178 2.305 A15.3 15.3 0 0 1 10.668 1.659 Z" fill="#29a7e3"/>
<path d="M16.000 16.000 L10.553 1.702 A15.3 15.3 0 0 1 12.099 1.206 Z" fill="#25ade0"/>
<path d="M16.000 16.000 L11.981 1.237 A15.3 15.3 0 0 1 13.568 0.895 Z" fill="#21b3dd"/>
<path d="M16.000 16.000 L13.447 0.914 A15.3 15.3 0 0 1 15.060 0.729 Z" fill="#1db8da"/>
<path d="M16.000 16.000 L14.938 0.737 A15.3 15.3 0 0 1 16.562 0.710 Z" fill="#19bed7"/>
<path d="M16.000 16.000 L16.439 0.706 A15.3 15.3 0 0 1 18.058 0.839 Z" fill="#17c1d1"/>
<path d="M16.000 16.000 L17.936 0.823 A15.3 15.3 0 0 1 19.534 1.114 Z" fill="#1abfc5"/>
<path d="M16.000 16.000 L19.415 1.086 A15.3 15.3 0 0 1 20.976 1.532 Z" fill="#1dbcb9"/>
<path d="M16.000 16.000 L20.860 1.492 A15.3 15.3 0 0 1 22.370 2.089 Z" fill="#1fbaac"/>
<path d="M16.000 16.000 L22.259 2.039 A15.3 15.3 0 0 1 23.703 2.781 Z" fill="#22b7a0"/>
<path d="M16.000 16.000 L23.597 2.719 A15.3 15.3 0 0 1 24.962 3.599 Z" fill="#25b594"/>
<path d="M16.000 16.000 L24.862 3.528 A15.3 15.3 0 0 1 26.134 4.537 Z" fill="#28b388"/>
<path d="M16.000 16.000 L26.042 4.457 A15.3 15.3 0 0 1 27.209 5.586 Z" fill="#2bb07c"/>
<path d="M16.000 16.000 L27.125 5.496 A15.3 15.3 0 0 1 28.175 6.735 Z" fill="#2dae6f"/>
<path d="M16.000 16.000 L28.101 6.637 A15.3 15.3 0 0 1 29.025 7.973 Z" fill="#30ab63"/>
<path d="M16.000 16.000 L28.960 7.869 A15.3 15.3 0 0 1 29.749 9.288 Z" fill="#33a957"/>
<path d="M16.000 16.000 L29.695 9.178 A15.3 15.3 0 0 1 30.341 10.668 Z" fill="#40a94e"/>
<path d="M16.000 16.000 L30.298 10.553 A15.3 15.3 0 0 1 30.794 12.099 Z" fill="#53ab47"/>
<path d="M16.000 16.000 L30.763 11.981 A15.3 15.3 0 0 1 31.105 13.568 Z" fill="#66ad3f"/>
<path d="M16.000 16.000 L31.086 13.447 A15.3 15.3 0 0 1 31.271 15.060 Z" fill="#78af38"/>
<path d="M16.000 16.000 L31.263 14.938 A15.3 15.3 0 0 1 31.290 16.562 Z" fill="#8bb130"/>
<path d="M16.000 16.000 L31.294 16.439 A15.3 15.3 0 0 1 31.161 18.058 Z" fill="#9eb329"/>
<path d="M16.000 16.000 L31.177 17.936 A15.3 15.3 0 0 1 30.886 19.534 Z" fill="#b0b422"/>
<path d="M16.000 16.000 L30.914 19.415 A15.3 15.3 0 0 1 30.468 20.976 Z" fill="#c3b61a"/>
<path d="M16.000 16.000 L30.508 20.860 A15.3 15.3 0 0 1 29.911 22.370 Z" fill="#d6b813"/>
<path d="M16.000 16.000 L29.961 22.259 A15.3 15.3 0 0 1 29.219 23.703 Z" fill="#e8ba0b"/>
<path d="M16.000 16.000 L29.281 23.597 A15.3 15.3 0 0 1 28.401 24.962 Z" fill="#fbbc04"/>
<path d="M16.000 16.000 L28.472 24.862 A15.3 15.3 0 0 1 27.463 26.134 Z" fill="#fbb511"/>
<path d="M16.000 16.000 L27.543 26.042 A15.3 15.3 0 0 1 26.414 27.209 Z" fill="#fcae1e"/>
<path d="M16.000 16.000 L26.504 27.125 A15.3 15.3 0 0 1 25.265 28.175 Z" fill="#fca62c"/>
<path d="M16.000 16.000 L25.363 28.101 A15.3 15.3 0 0 1 24.027 29.025 Z" fill="#fc9f39"/>
<path d="M16.000 16.000 L24.131 28.960 A15.3 15.3 0 0 1 22.712 29.749 Z" fill="#fd9846"/>
<path d="M16.000 16.000 L22.822 29.695 A15.3 15.3 0 0 1 21.332 30.341 Z" fill="#fd9153"/>
<path d="M16.000 16.000 L21.447 30.298 A15.3 15.3 0 0 1 19.901 30.794 Z" fill="#fe8961"/>
<path d="M16.000 16.000 L20.019 30.763 A15.3 15.3 0 0 1 18.432 31.105 Z" fill="#fe826e"/>
<path d="M16.000 16.000 L18.553 31.086 A15.3 15.3 0 0 1 16.940 31.271 Z" fill="#fe7b7b"/>
<path d="M16.000 16.000 L17.062 31.263 A15.3 15.3 0 0 1 15.438 31.290 Z" fill="#ff7488"/>
<path d="M16.000 16.000 L15.561 31.294 A15.3 15.3 0 0 1 13.942 31.161 Z" fill="#fc6f94"/>
<path d="M16.000 16.000 L14.064 31.177 A15.3 15.3 0 0 1 12.466 30.886 Z" fill="#f26e9f"/>
<path d="M16.000 16.000 L12.585 30.914 A15.3 15.3 0 0 1 11.024 30.468 Z" fill="#e96ea9"/>
<path d="M16.000 16.000 L11.140 30.508 A15.3 15.3 0 0 1 9.630 29.911 Z" fill="#e06eb3"/>
<path d="M16.000 16.000 L9.741 29.961 A15.3 15.3 0 0 1 8.297 29.219 Z" fill="#d66dbe"/>
<path d="M16.000 16.000 L8.403 29.281 A15.3 15.3 0 0 1 7.038 28.401 Z" fill="#cd6dc8"/>
<path d="M16.000 16.000 L7.138 28.472 A15.3 15.3 0 0 1 5.866 27.463 Z" fill="#c46dd2"/>
<path d="M16.000 16.000 L5.958 27.543 A15.3 15.3 0 0 1 4.791 26.414 Z" fill="#ba6cdd"/>
<path d="M16.000 16.000 L4.875 26.504 A15.3 15.3 0 0 1 3.825 25.265 Z" fill="#b16ce7"/>
<path d="M16.000 16.000 L3.899 25.363 A15.3 15.3 0 0 1 2.975 24.027 Z" fill="#a86cf1"/>
<path d="M16.000 16.000 L3.040 24.131 A15.3 15.3 0 0 1 2.251 22.712 Z" fill="#9e6bfc"/>
<path d="M16.000 16.000 L2.305 22.822 A15.3 15.3 0 0 1 1.659 21.332 Z" fill="#956dfe"/>
<path d="M16.000 16.000 L1.702 21.447 A15.3 15.3 0 0 1 1.206 19.901 Z" fill="#8d6ffd"/>
<path d="M16.000 16.000 L1.237 20.019 A15.3 15.3 0 0 1 0.895 18.432 Z" fill="#8572fc"/>
<path d="M16.000 16.000 L0.914 18.553 A15.3 15.3 0 0 1 0.729 16.940 Z" fill="#7c74fb"/>
<path d="M16.000 16.000 L0.737 17.062 A15.3 15.3 0 0 1 0.710 15.438 Z" fill="#7476fa"/>
<path d="M16.000 16.000 L0.706 15.561 A15.3 15.3 0 0 1 0.839 13.942 Z" fill="#6c79f9"/>
<path d="M16.000 16.000 L0.823 14.064 A15.3 15.3 0 0 1 1.114 12.466 Z" fill="#637bf8"/>
<path d="M16.000 16.000 L1.086 12.585 A15.3 15.3 0 0 1 1.532 11.024 Z" fill="#5b7ef7"/>
<path d="M16.000 16.000 L1.492 11.140 A15.3 15.3 0 0 1 2.089 9.630 Z" fill="#5380f6"/>
<path d="M16.000 16.000 L2.039 9.741 A15.3 15.3 0 0 1 2.781 8.297 Z" fill="#4a83f5"/>
</g>
<circle cx="16" cy="16" r="6.4" fill="#ffffff"/>
</svg>
