<svg id="svg" version="1.1" xmlns="http://www.w3.org/2000/svg" xmlns:xlink="http://www.w3.org/1999/xlink" width="400" height="400" viewBox="0, 0, 400,400"><g id="svgg"><path id="path0" d="M0.000 200.000 L 0.000 400.000 200.000 400.000 L 400.000 400.000 400.000 200.000 L 400.000 0.000 200.000 0.000 L 0.000 0.000 0.000 200.000 M360.042 30.178 C 364.587 30.971,368.604 34.710,369.621 39.094 C 370.108 41.196,370.137 196.527,369.651 198.060 C 369.328 199.074,369.326 199.247,369.614 200.640 C 370.009 202.555,370.103 357.641,369.710 360.186 C 368.921 365.300,365.816 368.609,360.840 369.638 C 359.005 370.018,46.331 370.304,41.422 369.930 C 35.393 369.472,31.475 366.271,30.345 360.883 C 29.874 358.639,29.884 202.778,30.355 200.470 C 30.642 199.062,30.645 198.829,30.380 198.197 C 29.849 196.925,29.912 41.072,30.444 39.029 C 31.655 34.392,35.715 30.800,40.537 30.101 C 42.724 29.784,358.219 29.860,360.042 30.178 M55.733 50.596 C 53.132 50.936,51.477 52.183,50.823 54.292 C 50.513 55.291,50.488 57.612,50.488 85.645 L 50.488 115.918 51.000 117.010 C 51.282 117.610,51.765 118.278,52.075 118.494 C 53.415 119.428,52.862 119.403,72.949 119.439 C 91.365 119.471,94.266 119.550,98.438 120.132 C 103.960 120.902,107.808 121.949,113.033 124.102 C 117.212 125.825,117.884 125.653,117.678 122.915 C 117.435 119.676,117.550 119.640,128.125 119.634 C 141.279 119.625,141.473 119.753,152.283 135.564 C 153.354 137.131,155.162 139.690,156.301 141.249 C 157.440 142.809,159.431 145.638,160.726 147.536 C 162.022 149.433,164.040 152.290,165.211 153.884 C 166.383 155.478,168.420 158.398,169.738 160.373 C 171.056 162.349,173.071 165.239,174.215 166.797 C 175.359 168.354,177.253 171.035,178.423 172.754 C 179.593 174.473,181.645 177.417,182.983 179.297 C 191.078 190.673,194.917 196.359,195.312 197.557 C 195.846 199.176,198.848 201.758,200.195 201.758 C 201.483 201.758,204.325 199.391,204.599 198.092 C 204.808 197.100,205.265 196.289,206.981 193.870 C 209.581 190.203,210.995 188.181,214.164 183.594 C 215.760 181.284,218.088 177.988,219.338 176.270 C 220.587 174.551,222.167 172.310,222.849 171.289 C 224.652 168.587,226.516 165.952,229.203 162.305 C 230.509 160.532,232.661 157.456,233.984 155.469 C 235.308 153.481,237.458 150.405,238.763 148.633 C 240.067 146.860,242.431 143.521,244.016 141.211 C 259.818 118.182,257.767 119.773,271.892 119.589 C 283.630 119.435,285.396 119.910,287.456 123.776 C 288.604 125.929,288.544 124.374,288.661 155.078 C 288.785 187.574,288.600 184.568,290.538 185.547 L 291.504 186.035 318.359 186.021 C 348.330 186.005,346.746 186.076,348.140 184.683 C 349.634 183.188,349.512 189.101,349.512 118.555 C 349.512 57.097,349.501 55.144,349.146 54.125 C 348.638 52.668,347.303 51.321,345.898 50.849 C 344.748 50.463,58.660 50.213,55.733 50.596 M52.667 142.472 C 50.351 143.298,50.488 141.842,50.488 165.527 C 50.488 189.682,50.315 188.111,53.056 188.849 C 54.265 189.174,89.954 189.203,92.188 188.880 C 106.504 186.810,114.664 177.822,114.189 164.648 C 113.730 151.888,105.049 143.585,90.918 142.390 C 87.095 142.066,53.603 142.139,52.667 142.472 M257.715 167.611 C 256.945 168.037,256.379 168.682,255.065 170.633 C 254.331 171.723,252.717 173.832,251.479 175.321 C 250.087 176.994,248.652 178.997,247.721 180.566 C 245.562 184.205,244.499 185.763,242.588 188.086 C 240.358 190.797,239.605 191.843,237.919 194.573 C 236.175 197.396,235.032 198.818,234.108 199.316 C 233.718 199.526,233.398 199.751,233.398 199.815 C 233.398 199.879,233.018 200.540,232.554 201.284 C 232.089 202.028,231.105 203.647,230.368 204.883 C 228.602 207.841,225.896 212.009,225.105 212.988 C 224.758 213.418,223.497 215.176,222.302 216.895 C 221.108 218.613,219.286 221.162,218.254 222.559 C 217.221 223.955,215.883 225.845,215.280 226.758 C 214.677 227.671,213.427 229.429,212.502 230.664 C 211.577 231.899,209.866 234.254,208.700 235.896 C 204.815 241.365,202.219 242.783,198.048 241.715 C 194.883 240.904,193.755 239.654,185.254 227.539 C 182.589 223.742,180.440 220.758,177.938 217.383 C 176.864 215.933,174.730 212.813,173.197 210.450 C 171.664 208.088,169.877 205.495,169.225 204.689 C 167.765 202.884,166.734 201.286,166.425 200.350 C 166.296 199.957,165.893 199.414,165.525 199.133 C 165.159 198.854,164.089 197.462,163.146 196.041 C 162.203 194.620,160.723 192.578,159.856 191.504 C 157.238 188.257,156.170 186.750,154.427 183.841 C 152.712 180.977,151.965 179.934,149.709 177.246 C 148.138 175.374,146.855 173.500,145.697 171.387 C 143.994 168.278,142.103 166.909,141.054 168.026 C 140.437 168.682,140.308 169.195,139.564 173.941 C 138.014 183.825,137.688 184.632,132.051 192.542 C 128.112 198.068,126.878 199.252,124.375 199.913 C 122.309 200.458,119.554 204.197,119.775 206.157 C 119.930 207.525,121.346 209.366,126.362 214.718 C 126.809 215.195,127.927 216.627,128.845 217.900 C 130.594 220.324,132.463 222.602,134.991 225.391 C 136.472 227.025,137.418 228.176,142.853 234.961 C 144.359 236.841,146.664 239.628,147.975 241.154 C 149.286 242.680,151.311 245.134,152.474 246.607 C 157.218 252.612,158.726 254.472,160.139 256.061 C 162.475 258.687,163.461 259.863,165.111 261.985 C 165.957 263.074,167.677 265.195,168.933 266.699 C 179.614 279.484,182.813 283.692,182.813 284.960 C 182.813 286.824,182.296 286.899,169.035 286.955 C 153.236 287.021,150.669 286.503,147.467 282.604 C 146.988 282.021,145.930 280.796,145.117 279.883 C 143.060 277.573,142.290 276.597,140.538 274.079 C 139.066 271.962,137.924 270.536,135.086 267.266 C 134.348 266.417,132.879 264.572,131.820 263.165 C 130.761 261.759,129.251 259.869,128.465 258.966 C 125.774 255.877,119.195 247.929,116.829 244.911 C 115.530 243.252,113.430 240.574,112.165 238.959 C 110.899 237.344,108.783 234.722,107.463 233.131 C 106.143 231.540,104.354 229.321,103.489 228.200 C 102.623 227.079,101.374 225.571,100.712 224.848 C 100.050 224.126,98.354 222.123,96.943 220.398 C 92.923 215.481,92.229 214.892,89.948 214.471 C 88.007 214.112,54.827 214.179,53.596 214.545 C 52.429 214.892,51.336 215.939,50.838 217.188 C 50.430 218.212,50.177 337.737,50.572 343.164 C 50.869 347.258,51.346 348.222,53.479 349.040 L 54.590 349.466 198.145 349.495 C 347.568 349.524,345.695 349.532,346.973 348.874 C 349.451 347.597,349.510 347.349,349.520 338.184 C 349.653 209.185,349.741 217.222,348.185 215.624 C 346.870 214.274,348.411 214.366,325.195 214.258 C 290.776 214.098,290.449 214.113,289.397 215.954 C 288.729 217.122,288.675 219.660,288.680 249.512 C 288.684 279.678,288.677 279.983,287.897 282.066 C 286.304 286.326,283.423 287.266,272.656 287.042 C 264.526 286.873,262.635 286.218,260.747 282.918 C 259.480 280.704,259.551 283.614,259.685 239.631 C 259.751 217.673,259.803 199.355,259.801 198.926 C 259.798 198.496,259.759 191.553,259.715 183.496 C 259.644 170.439,259.601 168.781,259.317 168.237 C 258.884 167.404,258.417 167.222,257.715 167.611 M138.841 200.732 C 139.961 201.795,140.453 205.919,140.062 210.979 C 139.638 216.471,138.522 216.693,134.147 212.154 C 129.787 207.632,129.830 204.596,134.290 202.047 C 134.820 201.744,135.386 201.391,135.547 201.261 C 135.820 201.042,137.813 200.228,138.132 200.205 C 138.211 200.200,138.530 200.437,138.841 200.732 M114.560 254.830 C 115.280 255.402,115.367 255.507,120.216 261.621 C 121.919 263.770,124.313 266.700,125.534 268.134 C 126.756 269.567,128.818 272.160,130.117 273.896 C 133.086 277.861,133.711 278.630,135.560 280.581 C 138.890 284.099,139.067 286.567,136.023 287.024 C 134.025 287.323,115.808 286.811,114.759 286.426 C 113.461 285.949,112.257 284.713,111.794 283.381 C 111.234 281.773,111.225 256.869,111.783 255.421 C 112.354 253.943,113.212 253.760,114.560 254.830 " stroke="none" fill="#f6f3eb" fill-rule="evenodd"></path><path id="path1" d="M40.537 30.101 C 35.715 30.800,31.655 34.392,30.444 39.029 C 29.838 41.353,29.858 197.005,30.465 198.377 C 31.257 200.166,26.303 199.996,78.250 200.022 C 111.599 200.039,124.145 199.985,124.737 199.824 C 126.878 199.244,128.318 197.801,132.263 192.283 C 137.566 184.866,138.036 183.684,139.564 173.941 C 140.308 169.195,140.437 168.682,141.054 168.026 C 142.103 166.909,143.994 168.278,145.697 171.387 C 146.855 173.500,148.138 175.374,149.709 177.246 C 151.965 179.934,152.712 180.977,154.427 183.841 C 156.170 186.750,157.238 188.257,159.856 191.504 C 160.723 192.578,162.203 194.620,163.146 196.041 C 164.891 198.672,165.658 199.462,166.826 199.833 C 168.115 200.243,193.298 200.041,194.270 199.613 C 196.596 198.590,196.184 197.849,182.983 179.297 C 181.645 177.417,179.593 174.473,178.423 172.754 C 177.253 171.035,175.359 168.354,174.215 166.797 C 173.071 165.239,171.056 162.349,169.738 160.373 C 168.420 158.398,166.383 155.478,165.211 153.884 C 164.040 152.290,162.022 149.433,160.726 147.536 C 159.431 145.638,157.440 142.809,156.301 141.249 C 155.162 139.690,153.354 137.131,152.283 135.564 C 144.582 124.301,143.343 122.844,140.137 121.284 C 136.743 119.633,136.709 119.628,128.125 119.634 C 117.550 119.640,117.435 119.676,117.678 122.915 C 117.884 125.653,117.212 125.825,113.033 124.102 C 107.808 121.949,103.960 120.902,98.438 120.132 C 94.266 119.550,91.365 119.471,72.949 119.439 C 52.862 119.403,53.415 119.428,52.075 118.494 C 51.765 118.278,51.282 117.610,51.000 117.010 L 50.488 115.918 50.488 85.645 C 50.488 57.612,50.513 55.291,50.823 54.292 C 51.513 52.066,53.126 50.931,56.109 50.573 C 59.549 50.161,344.657 50.432,345.898 50.849 C 347.303 51.321,348.638 52.668,349.146 54.125 C 349.501 55.144,349.512 57.097,349.512 118.555 C 349.512 189.101,349.634 183.188,348.140 184.683 C 346.746 186.076,348.330 186.005,318.359 186.021 L 291.504 186.035 290.538 185.547 C 288.600 184.568,288.785 187.574,288.661 155.078 C 288.544 124.374,288.604 125.929,287.456 123.776 C 285.396 119.910,283.630 119.435,271.892 119.589 C 257.767 119.773,259.818 118.182,244.016 141.211 C 242.431 143.521,240.067 146.860,238.763 148.633 C 237.458 150.405,235.308 153.481,233.984 155.469 C 232.661 157.456,230.509 160.532,229.203 162.305 C 226.516 165.952,224.652 168.587,222.849 171.289 C 222.167 172.310,220.587 174.551,219.338 176.270 C 218.088 177.988,215.760 181.284,214.164 183.594 C 211.011 188.158,209.591 190.190,207.011 193.829 C 204.054 197.999,203.939 198.641,205.954 199.739 C 206.477 200.025,207.867 200.053,219.625 200.021 L 232.715 199.986 233.742 199.489 C 234.988 198.887,235.963 197.739,237.919 194.573 C 239.605 191.843,240.358 190.797,242.588 188.086 C 244.499 185.763,245.562 184.205,247.721 180.566 C 248.652 178.998,250.087 176.994,251.476 175.325 C 252.712 173.838,254.260 171.817,254.915 170.833 C 257.228 167.358,258.475 166.619,259.312 168.227 C 259.604 168.787,259.638 170.274,259.666 183.398 C 259.700 199.714,259.613 198.772,261.141 199.556 L 262.028 200.011 314.545 200.003 C 353.685 199.997,367.254 199.937,367.816 199.769 C 368.842 199.462,369.459 198.839,369.744 197.824 C 370.136 196.429,370.015 40.796,369.621 39.094 C 368.604 34.710,364.587 30.971,360.042 30.178 C 358.219 29.860,42.724 29.784,40.537 30.101 M90.918 142.390 C 96.959 142.901,100.289 144.005,104.883 147.022 C 110.660 150.816,113.913 156.977,114.189 164.648 C 114.664 177.822,106.504 186.810,92.188 188.880 C 89.954 189.203,54.265 189.174,53.056 188.849 C 50.315 188.111,50.488 189.682,50.488 165.527 C 50.488 141.842,50.351 143.298,52.667 142.472 C 53.603 142.139,87.095 142.066,90.918 142.390 " stroke="none" fill="#92c5eb" fill-rule="evenodd"></path><path id="path2" d="M195.303 198.846 C 194.706 199.961,194.621 199.968,180.469 200.006 C 171.951 200.029,167.262 199.972,166.846 199.839 C 166.497 199.728,166.211 199.661,166.211 199.692 C 166.211 200.406,167.529 202.592,169.225 204.689 C 169.877 205.495,171.664 208.088,173.197 210.450 C 174.730 212.813,176.864 215.933,177.938 217.383 C 180.440 220.758,182.589 223.742,185.254 227.539 C 193.755 239.654,194.883 240.904,198.048 241.715 C 202.219 242.783,204.815 241.365,208.700 235.896 C 209.866 234.254,211.577 231.899,212.502 230.664 C 213.427 229.429,214.677 227.671,215.280 226.758 C 215.883 225.845,217.221 223.955,218.254 222.559 C 219.286 221.162,221.108 218.613,222.302 216.895 C 223.497 215.176,224.758 213.418,225.105 212.988 C 225.896 212.009,228.602 207.841,230.368 204.883 C 231.105 203.647,232.088 202.028,232.553 201.285 C 233.017 200.542,233.375 199.926,233.349 199.918 C 233.322 199.909,227.544 199.946,220.508 200.000 C 213.472 200.054,207.346 200.046,206.896 199.984 C 205.990 199.858,204.691 199.077,204.689 198.657 C 204.688 198.509,204.146 198.976,203.484 199.695 C 200.968 202.425,199.467 202.432,196.921 199.725 C 195.551 198.269,195.598 198.294,195.303 198.846 M259.870 199.475 C 259.552 200.939,259.547 279.489,259.864 280.728 C 261.121 285.635,263.590 286.853,272.656 287.042 C 283.423 287.266,286.304 286.326,287.897 282.066 C 288.677 279.983,288.684 279.678,288.680 249.512 C 288.675 219.660,288.729 217.122,289.397 215.954 C 290.449 214.113,290.776 214.098,325.195 214.258 C 348.411 214.366,346.870 214.274,348.185 215.624 C 349.741 217.222,349.653 209.185,349.520 338.184 C 349.510 347.349,349.451 347.597,346.973 348.874 C 345.695 349.532,347.568 349.524,198.145 349.495 L 54.590 349.466 53.479 349.040 C 51.346 348.222,50.869 347.258,50.572 343.164 C 50.177 337.737,50.430 218.212,50.838 217.188 C 51.336 215.939,52.429 214.892,53.596 214.545 C 54.827 214.179,88.007 214.112,89.948 214.471 C 92.229 214.892,92.923 215.481,96.943 220.398 C 98.354 222.123,100.050 224.126,100.712 224.848 C 101.374 225.571,102.623 227.079,103.489 228.200 C 104.354 229.321,106.143 231.540,107.463 233.131 C 108.783 234.722,110.899 237.344,112.165 238.959 C 113.430 240.574,115.530 243.252,116.829 244.911 C 119.195 247.929,125.774 255.877,128.465 258.966 C 129.251 259.869,130.761 261.759,131.820 263.165 C 132.879 264.572,134.348 266.417,135.086 267.266 C 137.924 270.536,139.066 271.962,140.538 274.079 C 142.290 276.597,143.060 277.573,145.117 279.883 C 145.930 280.796,146.988 282.021,147.467 282.604 C 150.669 286.503,153.236 287.021,169.035 286.955 C 186.427 286.882,186.066 287.636,175.121 274.219 C 172.974 271.587,170.190 268.203,168.933 266.699 C 167.677 265.195,165.957 263.074,165.111 261.985 C 163.461 259.863,162.475 258.687,160.139 256.061 C 158.726 254.472,157.218 252.612,152.474 246.607 C 151.311 245.134,149.286 242.680,147.975 241.154 C 146.664 239.628,144.359 236.841,142.853 234.961 C 137.418 228.176,136.472 227.025,134.991 225.391 C 132.463 222.602,130.594 220.324,128.845 217.900 C 127.927 216.627,126.809 215.195,126.362 214.718 C 118.636 206.475,118.301 205.388,122.240 201.368 L 123.535 200.046 78.027 200.023 L 32.520 200.000 31.595 199.543 C 30.547 199.026,30.652 198.922,30.265 200.867 C 29.875 202.832,29.953 359.013,30.345 360.883 C 31.475 366.271,35.393 369.472,41.422 369.930 C 46.331 370.304,359.005 370.018,360.840 369.638 C 365.281 368.719,368.166 366.038,369.468 361.621 C 370.108 359.451,370.178 202.184,369.540 199.969 L 369.278 199.060 368.477 199.481 L 367.676 199.902 315.723 200.000 C 260.683 200.103,261.919 200.118,260.756 199.349 L 260.005 198.852 259.870 199.475 M136.914 200.621 C 136.323 200.844,135.708 201.132,135.547 201.261 C 135.386 201.391,134.820 201.744,134.290 202.047 C 129.830 204.596,129.787 207.632,134.147 212.154 C 138.522 216.693,139.638 216.471,140.062 210.979 C 140.453 205.919,139.961 201.795,138.841 200.732 C 138.176 200.101,138.277 200.107,136.914 200.621 M112.467 254.296 C 111.457 254.910,111.426 255.356,111.426 269.336 C 111.426 288.145,110.257 286.672,125.415 286.970 C 136.048 287.180,136.645 287.149,137.545 286.345 C 138.847 285.182,138.235 283.407,135.560 280.581 C 133.711 278.630,133.086 277.861,130.117 273.896 C 128.818 272.160,126.756 269.567,125.534 268.134 C 124.313 266.700,121.919 263.770,120.216 261.621 C 115.367 255.507,115.280 255.402,114.560 254.830 C 113.788 254.218,112.948 254.003,112.467 254.296 " stroke="none" fill="#f9c7d3" fill-rule="evenodd"></path></g></svg>