<?xml version="1.0" encoding="UTF-8" standalone="no"?>
<!-- Created with Inkscape (http://www.inkscape.org/) -->

<svg
   width="150mm"
   height="150mm"
   viewBox="0 0 150 150"
   version="1.1"
   id="svg5"
   xml:space="preserve"
   inkscape:version="1.2.1 (9c6d41e410, 2022-07-14)"
   sodipodi:docname="rmhstudios.svg"
   xmlns:inkscape="http://www.inkscape.org/namespaces/inkscape"
   xmlns:sodipodi="http://sodipodi.sourceforge.net/DTD/sodipodi-0.dtd"
   xmlns="http://www.w3.org/2000/svg"
   xmlns:svg="http://www.w3.org/2000/svg"><sodipodi:namedview
     id="namedview7"
     pagecolor="#ffffff"
     bordercolor="#000000"
     borderopacity="0.25"
     inkscape:showpageshadow="2"
     inkscape:pageopacity="0.0"
     inkscape:pagecheckerboard="0"
     inkscape:deskcolor="#d1d1d1"
     inkscape:document-units="mm"
     showgrid="false"
     inkscape:zoom="1.0293026"
     inkscape:cx="200.62127"
     inkscape:cy="367.72469"
     inkscape:window-width="1920"
     inkscape:window-height="992"
     inkscape:window-x="-8"
     inkscape:window-y="-8"
     inkscape:window-maximized="1"
     inkscape:current-layer="layer2" /><defs
     id="defs2"><inkscape:path-effect
       effect="copy_rotate"
       starting_point="117.14896,129.745"
       origin="102.183,129.745"
       id="path-effect1915"
       is_visible="true"
       lpeversion="1.2"
       lpesatellites=""
       method="normal"
       num_copies="6"
       starting_angle="0"
       rotation_angle="60"
       gap="-0.01"
       copies_to_360="true"
       mirror_copies="false"
       split_items="false"
       link_styles="false" /><inkscape:path-effect
       effect="mirror_symmetry"
       start_point="102.18,81.795321"
       end_point="102.18,129.74482"
       center_point="102.18,105.77007"
       id="path-effect1913"
       is_visible="true"
       lpeversion="1.2"
       lpesatellites=""
       mode="free"
       discard_orig_path="false"
       fuse_paths="false"
       oposite_fuse="false"
       split_items="false"
       split_open="false"
       link_styles="false" /><inkscape:path-effect
       effect="mirror_symmetry"
       start_point="117.14596,81.795321"
       end_point="117.14596,129.74482"
       center_point="117.14596,105.77007"
       id="path-effect1911"
       is_visible="true"
       lpeversion="1.2"
       lpesatellites=""
       mode="free"
       discard_orig_path="false"
       fuse_paths="false"
       oposite_fuse="false"
       split_items="false"
       split_open="false"
       link_styles="false" /></defs><g
     inkscape:groupmode="layer"
     id="layer3"
     inkscape:label="Layer 3"
     transform="translate(-25.810282,-44.35006)"><rect
       style="font-variation-settings:'opsz' 32, 'wght' 700;fill:#ffffff;stroke:none;stroke-width:0.416666;stroke-linecap:round;stroke-dasharray:none;stroke-opacity:1;fill-opacity:1"
       id="rect2023"
       width="125"
       height="125"
       x="38.310284"
       y="56.85006"
       ry="62.5" /></g><g
     inkscape:groupmode="layer"
     id="layer2"
     inkscape:label="Layer 2"
     transform="translate(-36.444729,-71.275589)"><path
       id="path1839-0-8"
       style="font-variation-settings:'opsz' 32, 'wght' 700;fill:none;stroke:#000000;stroke-width:0.50225878;stroke-linecap:round;stroke-dasharray:none;stroke-opacity:1"
       d="m 98.100811,87.665639 c 6.780319,8.131173 10.375249,20.031241 10.428609,28.036871 0.0454,6.8161 -2.1886,9.95265 -6.34642,14.04231 M 99.521189,85.595561 c 7.533451,9.207058 10.266441,20.307539 10.317361,28.313189 0.0454,7.13741 -2.77068,12.38258 -7.65555,15.83607 m -1.19311,-45.767401 c 7.33398,7.557152 10.04161,20.147461 10.40514,28.145011 0.36352,7.99755 -3.34049,13.72468 -9.21203,17.62239 m 0,-47.554214 c 6.19947,3.793312 12.03398,12.109488 12.67338,24.100004 0.64355,12.06853 -5.09149,19.83422 -12.67338,23.45421 m 0,0 c 9.03701,-5.23591 11.55642,-13.24825 10.78527,-22.37356 -0.77116,-9.125309 -3.8099,-18.142413 -10.78527,-24.785369 m 0,47.159109 c 10.7491,-4.12526 14.65865,-15.80184 14.65865,-24.44322 0,-10.025403 -6.23994,-19.50986 -14.65865,-23.506459 m 4.07619,5.870318 c -6.78032,8.131173 -10.37525,20.031241 -10.42861,28.036871 -0.0454,6.8161 2.1886,9.95265 6.34642,14.04231 m 2.66181,-44.149259 c -7.53345,9.207058 -10.26644,20.307539 -10.31736,28.313189 -0.0454,7.13741 2.77068,12.38258 7.65555,15.83607 m 1.19311,-45.767401 c -7.33398,7.557152 -10.04161,20.147461 -10.40514,28.145011 -0.36352,7.99755 3.34049,13.72468 9.21203,17.62239 m 0,-47.554214 c -6.19947,3.793312 -12.03398,12.109488 -12.67338,24.100004 -0.64355,12.06853 5.09149,19.83422 12.67338,23.45421 m 0,0 C 93.13999,124.50891 90.62058,116.49657 91.39173,107.37126 92.16289,98.245951 95.20163,89.228847 102.177,82.585891 m 0,47.159109 c -10.7491,-4.12526 -14.65865,-15.80184 -14.65865,-24.44322 0,-10.025403 6.23994,-19.50986 14.65865,-23.506459 M 63.70011,112.2406 c 10.431962,-1.80634 22.535188,1.03039 29.494947,4.98699 5.925616,3.36874 7.524943,6.87171 8.987783,12.51732 M 62.617559,109.97548 c 11.740271,-1.92063 22.720065,1.26277 29.678621,5.22149 6.203879,3.52939 9.33829,8.59077 9.88666,14.54794 M 61.950557,107.89447 c 10.211676,-2.57283 22.469018,1.37744 29.576865,5.06139 7.107841,3.68396 10.215678,9.75529 10.655418,16.78905 M 60.999687,105.9678 c 6.384839,-3.47224 16.504114,-4.36699 27.207905,1.07454 10.773429,5.47693 14.631198,14.32647 13.975248,22.70257 m 0,0 c -0.0159,-10.44424 -5.695107,-16.63228 -13.983432,-20.5271 -8.28833,-3.89481 -17.616741,-5.77173 -26.857394,-3.05236 M 102.183,129.745 c 1.80197,-11.37162 -6.35547,-20.59568 -13.839124,-24.91637 -8.682254,-5.012705 -20.016005,-4.35099 -27.686516,0.94153 m 7.121939,-0.59492 c 3.651643,9.93751 12.159939,19.00085 19.066338,23.04987 5.880216,3.44737 9.713548,3.08094 15.334203,1.525 M 65.27637,105.37028 c 4.20682,11.12769 12.453624,19.04477 19.36126,23.09169 6.158479,3.60802 12.108969,3.79181 17.54221,1.28814 M 63.140667,105.83314 c 2.877696,10.12999 12.427408,18.77002 19.171725,23.08362 6.744321,4.3136 13.556166,3.96939 19.867448,0.83335 M 60.996687,105.973 c 0.185369,7.26555 4.470134,16.47648 14.534525,23.02547 10.129879,6.5916 19.722684,5.50775 26.648628,0.75164 m 0,0 c -9.052932,5.20832 -17.251527,3.38402 -24.768702,-1.84647 -7.51717,-5.23049 -13.806841,-12.37067 -16.072124,-21.733 M 102.18,129.7502 c -8.94713,7.24636 -21.01412,4.79384 -28.497774,0.47315 -8.682254,-5.0127 -13.776065,-15.15888 -13.027866,-24.44799 m 7.127939,48.5446 c 3.651643,-9.93752 12.159939,-19.00085 19.066338,-23.04988 5.880216,-3.44736 9.713548,-3.08094 15.334203,-1.52499 m -36.90347,24.37983 c 4.20682,-11.12769 12.453624,-19.04477 19.36126,-23.0917 6.158479,-3.60802 12.108969,-3.79181 17.54221,-1.28813 m -39.039173,23.91696 c 2.877696,-10.12998 12.427408,-18.77002 19.171725,-23.08362 6.744321,-4.31359 13.556166,-3.96939 19.867448,-0.83334 M 60.999687,153.5222 c 0.185369,-7.26556 4.470134,-16.47648 14.534525,-23.02547 10.129879,-6.5916 19.722684,-5.50775 26.648628,-0.75164 m 0,0 c -9.052932,-5.20833 -17.251527,-3.38403 -24.768702,1.84646 -7.51717,5.2305 -13.806841,12.37068 -16.072124,21.733 M 102.183,129.745 c -8.94713,-7.24636 -21.01412,-4.79384 -28.497774,-0.47315 -8.682254,5.0127 -13.776065,15.15887 -13.027866,24.44799 m 3.04575,-6.46524 c 10.431962,1.80634 22.535188,-1.03039 29.494947,-4.987 5.925616,-3.36873 7.524943,-6.87171 8.987783,-12.51731 m -39.565281,19.76943 c 11.740271,1.92063 22.720065,-1.26277 29.678621,-5.2215 6.203879,-3.52939 9.33829,-8.59077 9.88666,-14.54793 m -40.232283,21.85043 c 10.211676,2.57284 22.469018,-1.37744 29.576865,-5.06139 7.107841,-3.68395 10.215678,-9.75529 10.655418,-16.78904 m -41.183153,23.7771 c 6.384839,3.47225 16.504114,4.36699 27.207905,-1.07453 10.773429,-5.47693 14.631198,-14.32647 13.975248,-22.70257 m 0,0 c -0.0159,10.44423 -5.695107,16.63227 -13.983432,20.52709 -8.28833,3.89481 -17.616741,5.77174 -26.857394,3.05237 M 102.186,129.7502 c 1.80197,11.37162 -6.35547,20.59568 -13.839124,24.91637 -8.682254,5.0127 -20.016005,4.35098 -27.686516,-0.94153 m 45.60483,18.09932 c -6.78032,-8.13117 -10.37525,-20.03124 -10.42861,-28.03687 -0.0454,-6.8161 2.1886,-9.95265 6.34642,-14.04231 m 2.66181,44.14926 c -7.53345,-9.20706 -10.26644,-20.30754 -10.31736,-28.31319 -0.0454,-7.13741 2.77068,-12.38258 7.65555,-15.83607 m 1.19311,45.7674 c -7.33398,-7.55715 -10.04161,-20.14746 -10.40514,-28.14501 -0.36352,-7.99755 3.34049,-13.72468 9.21203,-17.62239 m 0,47.55421 c -6.19947,-3.79331 -12.03398,-12.10948 -12.67338,-24.1 -0.64355,-12.06853 5.09149,-19.83422 12.67338,-23.45421 m 0,0 c -9.03701,5.23591 -11.55642,13.24825 -10.78527,22.37356 0.77116,9.12531 3.8099,18.14241 10.78527,24.78537 m 0,-47.15911 c -10.7491,4.12526 -14.65865,15.80184 -14.65865,24.44322 0,10.0254 6.23994,19.50986 14.65865,23.50646 m -4.076189,-5.87032 c 6.780319,-8.13117 10.375249,-20.03124 10.428609,-28.03687 0.0454,-6.8161 -2.1886,-9.95265 -6.34642,-14.04231 m -2.661811,44.14926 c 7.533451,-9.20706 10.266441,-20.30754 10.317361,-28.31319 0.0454,-7.13741 -2.77068,-12.38258 -7.65555,-15.83607 m -1.19311,45.7674 c 7.33398,-7.55715 10.04161,-20.14746 10.40514,-28.14501 0.36352,-7.99755 -3.34049,-13.72468 -9.21203,-17.62239 m 0,47.55421 c 6.19947,-3.79331 12.03398,-12.10948 12.67338,-24.1 0.64355,-12.06853 -5.09149,-19.83422 -12.67338,-23.45421 m 0,0 c 9.03701,5.23591 11.55642,13.24825 10.78527,22.37356 -0.77116,9.12531 -3.8099,18.14241 -10.78527,24.78537 m 0,-47.15911 c 10.7491,4.12526 14.65865,15.80184 14.65865,24.44322 0,10.0254 -6.23994,19.50986 -14.65865,23.50646 m 38.47689,-30.44528 c -10.43196,1.80634 -22.53519,-1.03039 -29.49495,-4.98699 -5.92561,-3.36874 -7.52494,-6.87171 -8.98778,-12.51732 m 39.56528,19.76943 c -11.74027,1.92063 -22.72006,-1.26277 -29.67862,-5.22149 -6.20388,-3.52939 -9.33829,-8.59077 -9.88666,-14.54794 m 40.23228,21.85044 c -10.21167,2.57283 -22.46902,-1.37744 -29.57686,-5.06139 -7.10784,-3.68396 -10.21568,-9.75529 -10.65542,-16.78905 m 41.18315,23.77711 c -6.38484,3.47224 -16.50411,4.36699 -27.2079,-1.07454 -10.77343,-5.47693 -14.6312,-14.32647 -13.97525,-22.70257 m 0,0 c 0.0159,10.44424 5.69511,16.63228 13.98343,20.5271 8.28833,3.89481 17.61674,5.77173 26.8574,3.05236 M 102.183,129.745 c -1.80197,11.37162 6.35547,20.59568 13.83912,24.91637 8.68226,5.0127 20.01601,4.35099 27.68652,-0.94153 m -7.12194,0.59492 c -3.65164,-9.93751 -12.15994,-19.00085 -19.06634,-23.04987 -5.88021,-3.44737 -9.71354,-3.08094 -15.3342,-1.525 m 36.90347,24.37983 c -4.20682,-11.12769 -12.45362,-19.04477 -19.36126,-23.09169 -6.15848,-3.60802 -12.10897,-3.79181 -17.54221,-1.28814 m 39.03917,23.91697 c -2.87769,-10.12999 -12.42741,-18.77002 -19.17172,-23.08362 -6.74432,-4.3136 -13.55617,-3.96939 -19.86745,-0.83335 m 41.18315,23.77711 c -0.18537,-7.26555 -4.47013,-16.47648 -14.53452,-23.02547 -10.12988,-6.5916 -19.72269,-5.50775 -26.64863,-0.75164 m 0,0 c 9.05293,-5.20832 17.25153,-3.38402 24.7687,1.84647 7.51717,5.23049 13.80684,12.37067 16.07213,21.733 M 102.186,129.7398 c 8.94713,-7.24636 21.01412,-4.79384 28.49777,-0.47315 8.68226,5.0127 13.77607,15.15888 13.02787,24.44799 m -7.12794,-48.5446 c -3.65164,9.93752 -12.15994,19.00085 -19.06634,23.04988 -5.88021,3.44736 -9.71354,3.08094 -15.3342,1.52499 m 36.90347,-24.37983 c -4.20682,11.12769 -12.45362,19.04477 -19.36126,23.0917 -6.15848,3.60802 -12.10897,3.79181 -17.54221,1.28813 m 39.03917,-23.91696 c -2.87769,10.12998 -12.42741,18.77002 -19.17172,23.08362 -6.74432,4.31359 -13.55617,3.96939 -19.86745,0.83334 m 41.18315,-23.77711 c -0.18537,7.26556 -4.47013,16.47648 -14.53452,23.02547 -10.12988,6.5916 -19.72269,5.50775 -26.64863,0.75164 m 0,0 c 9.05293,5.20833 17.25153,3.38403 24.7687,-1.84646 7.51717,-5.2305 13.80684,-12.37068 16.07213,-21.733 M 102.183,129.745 c 8.94713,7.24636 21.01412,4.79384 28.49777,0.47315 8.68226,-5.0127 13.77607,-15.15887 13.02787,-24.44799 m -3.04575,6.46524 c -10.43196,-1.80634 -22.53519,1.03039 -29.49495,4.987 -5.92561,3.36873 -7.52494,6.87171 -8.98778,12.51731 m 39.56528,-19.76943 c -11.74027,-1.92063 -22.72006,1.26277 -29.67862,5.2215 -6.20388,3.52939 -9.33829,8.59077 -9.88666,14.54793 m 40.23228,-21.85043 c -10.21167,-2.57284 -22.46902,1.37744 -29.57686,5.06139 -7.10784,3.68395 -10.21568,9.75529 -10.65542,16.78904 m 41.18315,-23.7771 c -6.38484,-3.47225 -16.50411,-4.36699 -27.2079,1.07453 -10.77343,5.47693 -14.6312,14.32647 -13.97525,22.70257 m 0,0 c 0.0159,-10.44423 5.69511,-16.63227 13.98343,-20.52709 8.28833,-3.89481 17.61674,-5.77174 26.8574,-3.05237 M 102.18,129.7398 c -1.80197,-11.37162 6.35547,-20.59568 13.83912,-24.91637 8.68226,-5.012701 20.01601,-4.35098 27.68652,0.94153"
       sodipodi:nodetypes="csccsccsccsccsccsc"
       inkscape:transform-center-x="-6.482994"
       inkscape:transform-center-y="-29.179382"
       inkscape:path-effect="#path-effect1913;#path-effect1915"
       inkscape:original-d="m 98.100811,87.665639 c 6.780319,8.131173 10.375249,20.031241 10.428609,28.036871 0.0454,6.8161 -2.1886,9.95265 -6.34642,14.04231 M 99.521189,85.595561 c 7.533451,9.207058 10.266441,20.307539 10.317361,28.313189 0.0454,7.13741 -2.77068,12.38258 -7.65555,15.83607 m -1.19311,-45.767401 c 7.33398,7.557152 10.04161,20.147461 10.40514,28.145011 0.36352,7.99755 -3.34049,13.72468 -9.21203,17.62239 m 0,-47.554214 c 6.19947,3.793312 12.03398,12.109488 12.67338,24.100004 0.64355,12.06853 -5.09149,19.83422 -12.67338,23.45421 m 0,0 c 9.03701,-5.23591 11.55642,-13.24825 10.78527,-22.37356 -0.77116,-9.125309 -3.8099,-18.142413 -10.78527,-24.785369 m 0,47.159109 c 10.7491,-4.12526 14.65865,-15.80184 14.65865,-24.44322 0,-10.025403 -6.23994,-19.50986 -14.65865,-23.506459"
       class="UnoptimicedTransforms"
       transform="matrix(1.1946033,0,0,1.1946033,-10.62342,-8.7182165)" /></g></svg>
